<ttFont>
    <TTGlyph name=".notdef" xMin="68" yMin="0" xMax="612" yMax="1365">
      <contour>
        <pt x="68" y="0" on="1"/>
        <pt x="68" y="1365" on="1"/>
        <pt x="612" y="1365" on="1"/>
        <pt x="612" y="0" on="1"/>
      </contour>
      <contour>
        <pt x="136" y="68" on="1"/>
        <pt x="544" y="68" on="1"/>
        <pt x="544" y="1297" on="1"/>
        <pt x="136" y="1297" on="1"/>
      </contour>
    </TTGlyph>
    <TTGlyph name="A" xMin="130" yMin="0" xMax="1333" yMax="1421">
      <contour>
        <pt x="635" y="1421" on="1"/>
        <pt x="828" y="1421" on="1"/>
        <pt x="1333" y="0" on="1"/>
        <pt x="1161" y="0" on="1"/>
        <pt x="1017" y="413" on="1"/>
        <pt x="431" y="413" on="1"/>
        <pt x="287" y="0" on="1"/>
        <pt x="130" y="0" on="1"/>
      </contour>
      <contour>
        <pt x="724" y="1255" on="1"/>
        <pt x="482" y="562" on="1"/>
        <pt x="965" y="562" on="1"/>
      </contour>
    </TTGlyph>
    <TTGlyph name="AE" xMin="130" yMin="0" xMax="1755" yMax="1421">
      <contour>
        <pt x="510" y="562" on="1"/>
        <pt x="967" y="562" on="1"/>
        <pt x="967" y="1271" on="1"/>
        <pt x="784" y="1271" on="1"/>
      </contour>
      <contour>
        <pt x="685" y="1421" on="1"/>
        <pt x="1755" y="1421" on="1"/>
        <pt x="1755" y="1271" on="1"/>
        <pt x="1137" y="1271" on="1"/>
        <pt x="1137" y="807" on="1"/>
        <pt x="1700" y="807" on="1"/>
        <pt x="1700" y="657" on="1"/>
        <pt x="1137" y="657" on="1"/>
        <pt x="1137" y="150" on="1"/>
        <pt x="1755" y="150" on="1"/>
        <pt x="1755" y="0" on="1"/>
        <pt x="967" y="0" on="1"/>
        <pt x="967" y="414" on="1"/>
        <pt x="452" y="414" on="1"/>
        <pt x="292" y="0" on="1"/>
        <pt x="130" y="0" on="1"/>
      </contour>
    </TTGlyph>
    <TTGlyph name="Aacute" xMin="130" yMin="0" xMax="1333" yMax="1929">
      <contour>
        <pt x="635" y="1421" on="1"/>
        <pt x="828" y="1421" on="1"/>
        <pt x="1333" y="0" on="1"/>
        <pt x="1161" y="0" on="1"/>
        <pt x="1017" y="413" on="1"/>
        <pt x="431" y="413" on="1"/>
        <pt x="287" y="0" on="1"/>
        <pt x="130" y="0" on="1"/>
      </contour>
      <contour>
        <pt x="724" y="1255" on="1"/>
        <pt x="482" y="562" on="1"/>
        <pt x="965" y="562" on="1"/>
      </contour>
      <contour>
        <pt x="934" y="1929" on="1"/>
        <pt x="1004" y="1806" on="1"/>
        <pt x="492" y="1511" on="1"/>
        <pt x="430" y="1619" on="1"/>
      </contour>
    </TTGlyph>
    <TTGlyph name="Abreve" xMin="130" yMin="0" xMax="1333" yMax="1882">
      <contour>
        <pt x="358" y="1816" on="1"/>
        <pt x="482" y="1882" on="1"/>
        <pt x="518" y="1807" on="0"/>
        <pt x="646" y="1695" on="0"/>
        <pt x="734" y="1695" on="1"/>
        <pt x="815" y="1695" on="0"/>
        <pt x="970" y="1804" on="0"/>
        <pt x="1029" y="1882" on="1"/>
        <pt x="1142" y="1805" on="1"/>
        <pt x="1062" y="1698" on="0"/>
        <pt x="837" y="1557" on="0"/>
        <pt x="718" y="1557" on="1"/>
        <pt x="587" y="1557" on="0"/>
        <pt x="397" y="1710" on="0"/>
      </contour>
      <contour>
        <pt x="724" y="1255" on="1"/>
        <pt x="482" y="562" on="1"/>
        <pt x="965" y="562" on="1"/>
      </contour>
      <contour>
        <pt x="635" y="1421" on="1"/>
        <pt x="828" y="1421" on="1"/>
        <pt x="1333" y="0" on="1"/>
        <pt x="1161" y="0" on="1"/>
        <pt x="1017" y="413" on="1"/>
        <pt x="431" y="413" on="1"/>
        <pt x="287" y="0" on="1"/>
        <pt x="130" y="0" on="1"/>
      </contour>
    </TTGlyph>
    <TTGlyph name="Acircumflex" xMin="130" yMin="0" xMax="1333" yMax="1924">
      <contour>
        <pt x="635" y="1421" on="1"/>
        <pt x="828" y="1421" on="1"/>
        <pt x="1333" y="0" on="1"/>
        <pt x="1161" y="0" on="1"/>
        <pt x="1017" y="413" on="1"/>
        <pt x="431" y="413" on="1"/>
        <pt x="287" y="0" on="1"/>
        <pt x="130" y="0" on="1"/>
      </contour>
      <contour>
        <pt x="724" y="1255" on="1"/>
        <pt x="482" y="562" on="1"/>
        <pt x="965" y="562" on="1"/>
      </contour>
      <contour>
        <pt x="751" y="1924" on="1"/>
        <pt x="1007" y="1638" on="1"/>
        <pt x="914" y="1550" on="1"/>
        <pt x="738" y="1746" on="1"/>
        <pt x="557" y="1551" on="1"/>
        <pt x="469" y="1629" on="1"/>
      </contour>
    </TTGlyph>
    <TTGlyph name="Adieresis" xMin="130" yMin="0" xMax="1333" yMax="1897">
      <contour>
        <pt x="635" y="1421" on="1"/>
        <pt x="828" y="1421" on="1"/>
        <pt x="1333" y="0" on="1"/>
        <pt x="1161" y="0" on="1"/>
        <pt x="1017" y="413" on="1"/>
        <pt x="431" y="413" on="1"/>
        <pt x="287" y="0" on="1"/>
        <pt x="130" y="0" on="1"/>
      </contour>
      <contour>
        <pt x="724" y="1255" on="1"/>
        <pt x="482" y="562" on="1"/>
        <pt x="965" y="562" on="1"/>
      </contour>
      <contour>
        <pt x="416" y="1897" on="1"/>
        <pt x="601" y="1897" on="1"/>
        <pt x="601" y="1712" on="1"/>
        <pt x="416" y="1712" on="1"/>
      </contour>
      <contour>
        <pt x="864" y="1897" on="1"/>
        <pt x="1049" y="1897" on="1"/>
        <pt x="1049" y="1712" on="1"/>
        <pt x="864" y="1712" on="1"/>
      </contour>
    </TTGlyph>
    <TTGlyph name="Agrave" xMin="130" yMin="0" xMax="1333" yMax="1929">
      <contour>
        <pt x="635" y="1421" on="1"/>
        <pt x="828" y="1421" on="1"/>
        <pt x="1333" y="0" on="1"/>
        <pt x="1161" y="0" on="1"/>
        <pt x="1017" y="413" on="1"/>
        <pt x="431" y="413" on="1"/>
        <pt x="287" y="0" on="1"/>
        <pt x="130" y="0" on="1"/>
      </contour>
      <contour>
        <pt x="724" y="1255" on="1"/>
        <pt x="482" y="562" on="1"/>
        <pt x="965" y="562" on="1"/>
      </contour>
      <contour>
        <pt x="526" y="1929" on="1"/>
        <pt x="1030" y="1619" on="1"/>
        <pt x="968" y="1511" on="1"/>
        <pt x="456" y="1806" on="1"/>
      </contour>
    </TTGlyph>
    <TTGlyph name="Amacron" xMin="130" yMin="0" xMax="1333" yMax="1697">
      <contour>
        <pt x="635" y="1421" on="1"/>
        <pt x="828" y="1421" on="1"/>
        <pt x="1333" y="0" on="1"/>
        <pt x="1161" y="0" on="1"/>
        <pt x="1017" y="413" on="1"/>
        <pt x="431" y="413" on="1"/>
        <pt x="287" y="0" on="1"/>
        <pt x="130" y="0" on="1"/>
      </contour>
      <contour>
        <pt x="724" y="1255" on="1"/>
        <pt x="482" y="562" on="1"/>
        <pt x="965" y="562" on="1"/>
      </contour>
      <contour>
        <pt x="364" y="1697" on="1"/>
        <pt x="1104" y="1697" on="1"/>
        <pt x="1104" y="1568" on="1"/>
        <pt x="364" y="1568" on="1"/>
      </contour>
    </TTGlyph>
    <TTGlyph name="Aogonek" xMin="130" yMin="-544" xMax="1333" yMax="1421">
      <contour>
        <pt x="635" y="1421" on="1"/>
        <pt x="828" y="1421" on="1"/>
        <pt x="1333" y="0" on="1"/>
        <pt x="1233" y="0" on="0"/>
        <pt x="1077" y="-60" on="0"/>
        <pt x="995" y="-141" on="0"/>
        <pt x="942" y="-235" on="0"/>
        <pt x="928" y="-292" on="0"/>
        <pt x="928" y="-304" on="1"/>
        <pt x="928" y="-346" on="0"/>
        <pt x="979" y="-410" on="0"/>
        <pt x="1032" y="-410" on="1"/>
        <pt x="1100" y="-410" on="0"/>
        <pt x="1198" y="-352" on="1"/>
        <pt x="1246" y="-442" on="1"/>
        <pt x="1107" y="-544" on="0"/>
        <pt x="986" y="-544" on="1"/>
        <pt x="898" y="-544" on="0"/>
        <pt x="783" y="-431" on="0"/>
        <pt x="783" y="-341" on="1"/>
        <pt x="783" y="-215" on="0"/>
        <pt x="1003" y="35" on="0"/>
        <pt x="1134" y="78" on="1"/>
        <pt x="1017" y="413" on="1"/>
        <pt x="431" y="413" on="1"/>
        <pt x="287" y="0" on="1"/>
        <pt x="130" y="0" on="1"/>
      </contour>
      <contour>
        <pt x="724" y="1255" on="1"/>
        <pt x="482" y="562" on="1"/>
        <pt x="965" y="562" on="1"/>
      </contour>
    </TTGlyph>
    <TTGlyph name="Aring" xMin="130" yMin="0" xMax="1333" yMax="1873">
      <contour>
        <pt x="625" y="1873" on="0"/>
        <pt x="841" y="1873" on="0"/>
        <pt x="998" y="1724" on="0"/>
        <pt x="998" y="1618" on="1"/>
        <pt x="998" y="1541" on="0"/>
        <pt x="911" y="1414" on="0"/>
        <pt x="841" y="1383" on="1"/>
        <pt x="1333" y="0" on="1"/>
        <pt x="1161" y="0" on="1"/>
        <pt x="1017" y="413" on="1"/>
        <pt x="431" y="413" on="1"/>
        <pt x="287" y="0" on="1"/>
        <pt x="130" y="0" on="1"/>
        <pt x="622" y="1385" on="1"/>
        <pt x="554" y="1416" on="0"/>
        <pt x="470" y="1542" on="0"/>
        <pt x="470" y="1618" on="1"/>
        <pt x="470" y="1724" on="0"/>
      </contour>
      <contour>
        <pt x="735" y="1769" on="1"/>
        <pt x="668" y="1769" on="0"/>
        <pt x="578" y="1680" on="0"/>
        <pt x="578" y="1618" on="1"/>
        <pt x="578" y="1557" on="0"/>
        <pt x="667" y="1465" on="0"/>
        <pt x="735" y="1465" on="1"/>
        <pt x="800" y="1465" on="0"/>
        <pt x="887" y="1557" on="0"/>
        <pt x="887" y="1679" on="0"/>
        <pt x="800" y="1769" on="0"/>
      </contour>
      <contour>
        <pt x="724" y="1255" on="1"/>
        <pt x="482" y="562" on="1"/>
        <pt x="965" y="562" on="1"/>
      </contour>
    </TTGlyph>
    <TTGlyph name="Atilde" xMin="130" yMin="0" xMax="1333" yMax="1878">
      <contour>
        <pt x="1008" y="1878" on="1"/>
        <pt x="1116" y="1861" on="1"/>
        <pt x="1114" y="1850" on="0"/>
        <pt x="1104" y="1798" on="0"/>
        <pt x="1099" y="1771" on="0"/>
        <pt x="1087" y="1722" on="0"/>
        <pt x="1076" y="1694" on="0"/>
        <pt x="1058" y="1652" on="0"/>
        <pt x="1039" y="1628" on="0"/>
        <pt x="1011" y="1599" on="0"/>
        <pt x="980" y="1584" on="0"/>
        <pt x="939" y="1574" on="0"/>
        <pt x="915" y="1574" on="1"/>
        <pt x="871" y="1574" on="0"/>
        <pt x="788" y="1611" on="0"/>
        <pt x="727" y="1664" on="0"/>
        <pt x="673" y="1717" on="0"/>
        <pt x="620" y="1754" on="0"/>
        <pt x="597" y="1754" on="1"/>
        <pt x="585" y="1754" on="0"/>
        <pt x="564" y="1748" on="0"/>
        <pt x="548" y="1733" on="0"/>
        <pt x="535" y="1719" on="0"/>
        <pt x="524" y="1692" on="0"/>
        <pt x="517" y="1674" on="0"/>
        <pt x="509" y="1639" on="0"/>
        <pt x="505" y="1621" on="0"/>
        <pt x="497" y="1582" on="0"/>
        <pt x="496" y="1574" on="1"/>
        <pt x="388" y="1589" on="1"/>
        <pt x="390" y="1597" on="0"/>
        <pt x="402" y="1662" on="0"/>
        <pt x="408" y="1686" on="0"/>
        <pt x="422" y="1746" on="0"/>
        <pt x="436" y="1772" on="0"/>
        <pt x="458" y="1818" on="0"/>
        <pt x="484" y="1840" on="0"/>
        <pt x="519" y="1866" on="0"/>
        <pt x="564" y="1876" on="0"/>
        <pt x="590" y="1876" on="1"/>
        <pt x="634" y="1876" on="0"/>
        <pt x="717" y="1839" on="0"/>
        <pt x="778" y="1786" on="0"/>
        <pt x="832" y="1733" on="0"/>
        <pt x="885" y="1696" on="0"/>
        <pt x="908" y="1696" on="1"/>
        <pt x="922" y="1696" on="0"/>
        <pt x="945" y="1706" on="0"/>
        <pt x="961" y="1719" on="0"/>
        <pt x="976" y="1746" on="0"/>
        <pt x="984" y="1766" on="0"/>
        <pt x="994" y="1804" on="0"/>
        <pt x="998" y="1825" on="0"/>
        <pt x="1006" y="1870" on="0"/>
      </contour>
      <contour>
        <pt x="724" y="1255" on="1"/>
        <pt x="482" y="562" on="1"/>
        <pt x="965" y="562" on="1"/>
      </contour>
      <contour>
        <pt x="635" y="1421" on="1"/>
        <pt x="828" y="1421" on="1"/>
        <pt x="1333" y="0" on="1"/>
        <pt x="1161" y="0" on="1"/>
        <pt x="1017" y="413" on="1"/>
        <pt x="431" y="413" on="1"/>
        <pt x="287" y="0" on="1"/>
        <pt x="130" y="0" on="1"/>
      </contour>
    </TTGlyph>
    <TTGlyph name="B" xMin="290" yMin="0" xMax="1299" yMax="1421">
      <contour>
        <pt x="460" y="1291" on="1"/>
        <pt x="460" y="814" on="1"/>
        <pt x="479" y="815" on="0"/>
        <pt x="573" y="816" on="0"/>
        <pt x="625" y="817" on="0"/>
        <pt x="719" y="824" on="0"/>
        <pt x="776" y="833" on="0"/>
        <pt x="857" y="852" on="0"/>
        <pt x="908" y="877" on="0"/>
        <pt x="965" y="916" on="0"/>
        <pt x="997" y="964" on="0"/>
        <pt x="1018" y="1031" on="0"/>
        <pt x="1018" y="1071" on="1"/>
        <pt x="1018" y="1101" on="0"/>
        <pt x="1006" y="1155" on="0"/>
        <pt x="968" y="1217" on="0"/>
        <pt x="908" y="1261" on="0"/>
        <pt x="803" y="1291" on="0"/>
        <pt x="734" y="1291" on="1"/>
      </contour>
      <contour>
        <pt x="460" y="682" on="1"/>
        <pt x="460" y="150" on="1"/>
        <pt x="725" y="150" on="1"/>
        <pt x="761" y="150" on="0"/>
        <pt x="810" y="151" on="0"/>
        <pt x="902" y="162" on="0"/>
        <pt x="967" y="181" on="0"/>
        <pt x="1047" y="220" on="0"/>
        <pt x="1096" y="274" on="0"/>
        <pt x="1130" y="359" on="0"/>
        <pt x="1130" y="413" on="1"/>
        <pt x="1130" y="546" on="0"/>
        <pt x="924" y="696" on="0"/>
        <pt x="750" y="696" on="1"/>
        <pt x="731" y="696" on="0"/>
      </contour>
      <contour>
        <pt x="290" y="1421" on="1"/>
        <pt x="791" y="1421" on="1"/>
        <pt x="864" y="1421" on="0"/>
        <pt x="985" y="1390" on="0"/>
        <pt x="1064" y="1342" on="0"/>
        <pt x="1125" y="1276" on="0"/>
        <pt x="1157" y="1214" on="0"/>
        <pt x="1177" y="1144" on="0"/>
        <pt x="1182" y="1099" on="0"/>
        <pt x="1182" y="1079" on="1"/>
        <pt x="1182" y="992" on="0"/>
        <pt x="1064" y="819" on="0"/>
        <pt x="998" y="794" on="1"/>
        <pt x="1130" y="770" on="0"/>
        <pt x="1299" y="563" on="0"/>
        <pt x="1299" y="431" on="1"/>
        <pt x="1299" y="400" on="0"/>
        <pt x="1288" y="332" on="0"/>
        <pt x="1256" y="246" on="0"/>
        <pt x="1206" y="168" on="0"/>
        <pt x="1120" y="91" on="0"/>
        <pt x="1009" y="35" on="0"/>
        <pt x="848" y="0" on="0"/>
        <pt x="752" y="0" on="1"/>
        <pt x="290" y="0" on="1"/>
      </contour>
    </TTGlyph>
    <TTGlyph name="C" xMin="275" yMin="-20" xMax="1391" yMax="1431">
      <contour>
        <pt x="986" y="1431" on="1"/>
        <pt x="1180" y="1431" on="0"/>
        <pt x="1372" y="1355" on="1"/>
        <pt x="1320" y="1214" on="1"/>
        <pt x="1126" y="1281" on="0"/>
        <pt x="981" y="1281" on="1"/>
        <pt x="861" y="1281" on="0"/>
        <pt x="656" y="1186" on="0"/>
        <pt x="521" y="1027" on="0"/>
        <pt x="445" y="822" on="0"/>
        <pt x="445" y="710" on="1"/>
        <pt x="445" y="594" on="0"/>
        <pt x="526" y="385" on="0"/>
        <pt x="672" y="228" on="0"/>
        <pt x="889" y="136" on="0"/>
        <pt x="1018" y="136" on="1"/>
        <pt x="1172" y="136" on="0"/>
        <pt x="1339" y="196" on="1"/>
        <pt x="1391" y="70" on="1"/>
        <pt x="1182" y="-20" on="0"/>
        <pt x="975" y="-20" on="1"/>
        <pt x="847" y="-20" on="0"/>
        <pt x="623" y="54" on="0"/>
        <pt x="456" y="187" on="0"/>
        <pt x="336" y="369" on="0"/>
        <pt x="275" y="588" on="0"/>
        <pt x="275" y="709" on="1"/>
        <pt x="275" y="914" on="0"/>
        <pt x="446" y="1240" on="0"/>
        <pt x="772" y="1431" on="0"/>
      </contour>
    </TTGlyph>
    <TTGlyph name="Cacute" xMin="275" yMin="-20" xMax="1391" yMax="1976">
      <contour>
        <pt x="1073" y="1976" on="1"/>
        <pt x="1143" y="1853" on="1"/>
        <pt x="631" y="1558" on="1"/>
        <pt x="569" y="1666" on="1"/>
      </contour>
      <contour>
        <pt x="275" y="709" on="1"/>
        <pt x="275" y="914" on="0"/>
        <pt x="446" y="1240" on="0"/>
        <pt x="772" y="1431" on="0"/>
        <pt x="986" y="1431" on="1"/>
        <pt x="1180" y="1431" on="0"/>
        <pt x="1372" y="1355" on="1"/>
        <pt x="1320" y="1214" on="1"/>
        <pt x="1126" y="1281" on="0"/>
        <pt x="981" y="1281" on="1"/>
        <pt x="861" y="1281" on="0"/>
        <pt x="656" y="1186" on="0"/>
        <pt x="521" y="1027" on="0"/>
        <pt x="445" y="822" on="0"/>
        <pt x="445" y="710" on="1"/>
        <pt x="445" y="594" on="0"/>
        <pt x="526" y="385" on="0"/>
        <pt x="672" y="228" on="0"/>
        <pt x="889" y="136" on="0"/>
        <pt x="1018" y="136" on="1"/>
        <pt x="1172" y="136" on="0"/>
        <pt x="1339" y="196" on="1"/>
        <pt x="1391" y="70" on="1"/>
        <pt x="1182" y="-20" on="0"/>
        <pt x="975" y="-20" on="1"/>
        <pt x="847" y="-20" on="0"/>
        <pt x="623" y="54" on="0"/>
        <pt x="456" y="187" on="0"/>
        <pt x="336" y="369" on="0"/>
        <pt x="275" y="588" on="0"/>
      </contour>
    </TTGlyph>
    <TTGlyph name="Ccaron" xMin="275" yMin="-20" xMax="1391" yMax="1932">
      <contour>
        <pt x="275" y="709" on="1"/>
        <pt x="275" y="914" on="0"/>
        <pt x="446" y="1240" on="0"/>
        <pt x="772" y="1431" on="0"/>
        <pt x="986" y="1431" on="1"/>
        <pt x="1180" y="1431" on="0"/>
        <pt x="1372" y="1355" on="1"/>
        <pt x="1320" y="1214" on="1"/>
        <pt x="1126" y="1281" on="0"/>
        <pt x="981" y="1281" on="1"/>
        <pt x="861" y="1281" on="0"/>
        <pt x="656" y="1186" on="0"/>
        <pt x="521" y="1027" on="0"/>
        <pt x="445" y="822" on="0"/>
        <pt x="445" y="710" on="1"/>
        <pt x="445" y="594" on="0"/>
        <pt x="526" y="385" on="0"/>
        <pt x="672" y="228" on="0"/>
        <pt x="889" y="136" on="0"/>
        <pt x="1018" y="136" on="1"/>
        <pt x="1172" y="136" on="0"/>
        <pt x="1339" y="196" on="1"/>
        <pt x="1391" y="70" on="1"/>
        <pt x="1182" y="-20" on="0"/>
        <pt x="975" y="-20" on="1"/>
        <pt x="847" y="-20" on="0"/>
        <pt x="623" y="54" on="0"/>
        <pt x="456" y="187" on="0"/>
        <pt x="336" y="369" on="0"/>
        <pt x="275" y="588" on="0"/>
      </contour>
      <contour>
        <pt x="890" y="1558" on="1"/>
        <pt x="634" y="1844" on="1"/>
        <pt x="727" y="1932" on="1"/>
        <pt x="903" y="1736" on="1"/>
        <pt x="1084" y="1931" on="1"/>
        <pt x="1172" y="1853" on="1"/>
      </contour>
    </TTGlyph>
    <TTGlyph name="Ccedilla" xMin="275" yMin="-506" xMax="1391" yMax="1431">
      <contour>
        <pt x="1098" y="-316" on="1"/>
        <pt x="1098" y="-392" on="0"/>
        <pt x="980" y="-506" on="0"/>
        <pt x="886" y="-506" on="1"/>
        <pt x="849" y="-506" on="0"/>
        <pt x="773" y="-490" on="0"/>
        <pt x="648" y="-453" on="1"/>
        <pt x="678" y="-349" on="1"/>
        <pt x="842" y="-399" on="0"/>
        <pt x="893" y="-399" on="1"/>
        <pt x="936" y="-399" on="0"/>
        <pt x="985" y="-357" on="0"/>
        <pt x="985" y="-328" on="1"/>
        <pt x="985" y="-287" on="0"/>
        <pt x="913" y="-248" on="0"/>
        <pt x="810" y="-218" on="1"/>
        <pt x="771" y="-207" on="0"/>
        <pt x="750" y="-201" on="1"/>
        <pt x="805" y="-2" on="1"/>
        <pt x="559" y="52" on="0"/>
        <pt x="275" y="443" on="0"/>
        <pt x="275" y="709" on="1"/>
        <pt x="275" y="914" on="0"/>
        <pt x="446" y="1240" on="0"/>
        <pt x="772" y="1431" on="0"/>
        <pt x="986" y="1431" on="1"/>
        <pt x="1180" y="1431" on="0"/>
        <pt x="1372" y="1355" on="1"/>
        <pt x="1320" y="1214" on="1"/>
        <pt x="1126" y="1281" on="0"/>
        <pt x="981" y="1281" on="1"/>
        <pt x="861" y="1281" on="0"/>
        <pt x="656" y="1186" on="0"/>
        <pt x="521" y="1027" on="0"/>
        <pt x="445" y="822" on="0"/>
        <pt x="445" y="710" on="1"/>
        <pt x="445" y="594" on="0"/>
        <pt x="526" y="385" on="0"/>
        <pt x="672" y="228" on="0"/>
        <pt x="889" y="136" on="0"/>
        <pt x="1018" y="136" on="1"/>
        <pt x="1172" y="136" on="0"/>
        <pt x="1339" y="196" on="1"/>
        <pt x="1391" y="70" on="1"/>
        <pt x="1182" y="-20" on="0"/>
        <pt x="975" y="-20" on="1"/>
        <pt x="947" y="-20" on="1"/>
        <pt x="918" y="-135" on="1"/>
        <pt x="929" y="-138" on="1"/>
        <pt x="940" y="-141" on="0"/>
        <pt x="958" y="-147" on="0"/>
        <pt x="989" y="-158" on="0"/>
        <pt x="1014" y="-173" on="0"/>
        <pt x="1045" y="-193" on="0"/>
        <pt x="1067" y="-219" on="0"/>
        <pt x="1087" y="-251" on="0"/>
        <pt x="1098" y="-293" on="0"/>
      </contour>
    </TTGlyph>
    <TTGlyph name="Ccircumflex" xMin="275" yMin="-20" xMax="1391" yMax="1932">
      <contour>
        <pt x="275" y="709" on="1"/>
        <pt x="275" y="914" on="0"/>
        <pt x="446" y="1240" on="0"/>
        <pt x="772" y="1431" on="0"/>
        <pt x="986" y="1431" on="1"/>
        <pt x="1180" y="1431" on="0"/>
        <pt x="1372" y="1355" on="1"/>
        <pt x="1320" y="1214" on="1"/>
        <pt x="1126" y="1281" on="0"/>
        <pt x="981" y="1281" on="1"/>
        <pt x="861" y="1281" on="0"/>
        <pt x="656" y="1186" on="0"/>
        <pt x="521" y="1027" on="0"/>
        <pt x="445" y="822" on="0"/>
        <pt x="445" y="710" on="1"/>
        <pt x="445" y="594" on="0"/>
        <pt x="526" y="385" on="0"/>
        <pt x="672" y="228" on="0"/>
        <pt x="889" y="136" on="0"/>
        <pt x="1018" y="136" on="1"/>
        <pt x="1172" y="136" on="0"/>
        <pt x="1339" y="196" on="1"/>
        <pt x="1391" y="70" on="1"/>
        <pt x="1182" y="-20" on="0"/>
        <pt x="975" y="-20" on="1"/>
        <pt x="847" y="-20" on="0"/>
        <pt x="623" y="54" on="0"/>
        <pt x="456" y="187" on="0"/>
        <pt x="336" y="369" on="0"/>
        <pt x="275" y="588" on="0"/>
      </contour>
      <contour>
        <pt x="846" y="1932" on="1"/>
        <pt x="1102" y="1646" on="1"/>
        <pt x="1009" y="1558" on="1"/>
        <pt x="833" y="1754" on="1"/>
        <pt x="652" y="1559" on="1"/>
        <pt x="564" y="1637" on="1"/>
      </contour>
    </TTGlyph>
    <TTGlyph name="Cdotaccent" xMin="275" yMin="-20" xMax="1391" yMax="1829">
      <contour>
        <pt x="754" y="1829" on="1"/>
        <pt x="964" y="1829" on="1"/>
        <pt x="964" y="1619" on="1"/>
        <pt x="754" y="1619" on="1"/>
      </contour>
      <contour>
        <pt x="275" y="709" on="1"/>
        <pt x="275" y="914" on="0"/>
        <pt x="446" y="1240" on="0"/>
        <pt x="772" y="1431" on="0"/>
        <pt x="986" y="1431" on="1"/>
        <pt x="1180" y="1431" on="0"/>
        <pt x="1372" y="1355" on="1"/>
        <pt x="1320" y="1214" on="1"/>
        <pt x="1126" y="1281" on="0"/>
        <pt x="981" y="1281" on="1"/>
        <pt x="861" y="1281" on="0"/>
        <pt x="656" y="1186" on="0"/>
        <pt x="521" y="1027" on="0"/>
        <pt x="445" y="822" on="0"/>
        <pt x="445" y="710" on="1"/>
        <pt x="445" y="594" on="0"/>
        <pt x="526" y="385" on="0"/>
        <pt x="672" y="228" on="0"/>
        <pt x="889" y="136" on="0"/>
        <pt x="1018" y="136" on="1"/>
        <pt x="1172" y="136" on="0"/>
        <pt x="1339" y="196" on="1"/>
        <pt x="1391" y="70" on="1"/>
        <pt x="1182" y="-20" on="0"/>
        <pt x="975" y="-20" on="1"/>
        <pt x="847" y="-20" on="0"/>
        <pt x="623" y="54" on="0"/>
        <pt x="456" y="187" on="0"/>
        <pt x="336" y="369" on="0"/>
        <pt x="275" y="588" on="0"/>
      </contour>
    </TTGlyph>
    <TTGlyph name="D" xMin="290" yMin="0" xMax="1446" yMax="1421">
      <contour>
        <pt x="460" y="1271" on="1"/>
        <pt x="460" y="150" on="1"/>
        <pt x="667" y="150" on="1"/>
        <pt x="712" y="150" on="0"/>
        <pt x="771" y="152" on="0"/>
        <pt x="872" y="162" on="0"/>
        <pt x="945" y="182" on="0"/>
        <pt x="1038" y="220" on="0"/>
        <pt x="1110" y="274" on="0"/>
        <pt x="1182" y="358" on="0"/>
        <pt x="1209" y="411" on="1"/>
        <pt x="1275" y="538" on="0"/>
        <pt x="1275" y="720" on="1"/>
        <pt x="1275" y="846" on="0"/>
        <pt x="1202" y="1049" on="0"/>
        <pt x="1081" y="1176" on="0"/>
        <pt x="944" y="1250" on="0"/>
        <pt x="869" y="1263" on="1"/>
        <pt x="825" y="1271" on="0"/>
        <pt x="736" y="1271" on="1"/>
      </contour>
      <contour>
        <pt x="730" y="1421" on="1"/>
        <pt x="868" y="1421" on="0"/>
        <pt x="1094" y="1366" on="0"/>
        <pt x="1247" y="1266" on="0"/>
        <pt x="1357" y="1140" on="0"/>
        <pt x="1418" y="985" on="0"/>
        <pt x="1446" y="835" on="0"/>
        <pt x="1446" y="754" on="1"/>
        <pt x="1446" y="661" on="0"/>
        <pt x="1418" y="489" on="0"/>
        <pt x="1349" y="311" on="0"/>
        <pt x="1242" y="170" on="0"/>
        <pt x="1072" y="57" on="0"/>
        <pt x="964" y="30" on="1"/>
        <pt x="908" y="16" on="0"/>
        <pt x="770" y="2" on="0"/>
        <pt x="680" y="0" on="0"/>
        <pt x="598" y="0" on="1"/>
        <pt x="290" y="0" on="1"/>
        <pt x="290" y="1421" on="1"/>
      </contour>
    </TTGlyph>
    <TTGlyph name="Dcaron" xMin="290" yMin="0" xMax="1446" yMax="1932">
      <contour>
        <pt x="731" y="1421" on="1"/>
        <pt x="850" y="1421" on="0"/>
        <pt x="1051" y="1379" on="0"/>
        <pt x="1196" y="1306" on="0"/>
        <pt x="1309" y="1203" on="0"/>
        <pt x="1381" y="1088" on="0"/>
        <pt x="1427" y="952" on="0"/>
        <pt x="1446" y="823" on="0"/>
        <pt x="1446" y="754" on="1"/>
        <pt x="1446" y="661" on="0"/>
        <pt x="1418" y="489" on="0"/>
        <pt x="1349" y="311" on="0"/>
        <pt x="1242" y="170" on="0"/>
        <pt x="1072" y="57" on="0"/>
        <pt x="964" y="30" on="1"/>
        <pt x="908" y="16" on="0"/>
        <pt x="770" y="2" on="0"/>
        <pt x="680" y="0" on="0"/>
        <pt x="598" y="0" on="1"/>
        <pt x="290" y="0" on="1"/>
        <pt x="290" y="1421" on="1"/>
      </contour>
      <contour>
        <pt x="460" y="1271" on="1"/>
        <pt x="460" y="150" on="1"/>
        <pt x="667" y="150" on="1"/>
        <pt x="712" y="150" on="0"/>
        <pt x="771" y="152" on="0"/>
        <pt x="872" y="162" on="0"/>
        <pt x="945" y="182" on="0"/>
        <pt x="1038" y="220" on="0"/>
        <pt x="1110" y="274" on="0"/>
        <pt x="1182" y="358" on="0"/>
        <pt x="1209" y="411" on="1"/>
        <pt x="1275" y="538" on="0"/>
        <pt x="1275" y="720" on="1"/>
        <pt x="1275" y="846" on="0"/>
        <pt x="1202" y="1049" on="0"/>
        <pt x="1081" y="1176" on="0"/>
        <pt x="944" y="1250" on="0"/>
        <pt x="869" y="1263" on="1"/>
        <pt x="825" y="1271" on="0"/>
        <pt x="736" y="1271" on="1"/>
      </contour>
      <contour>
        <pt x="844" y="1558" on="1"/>
        <pt x="588" y="1844" on="1"/>
        <pt x="681" y="1932" on="1"/>
        <pt x="857" y="1736" on="1"/>
        <pt x="1038" y="1931" on="1"/>
        <pt x="1126" y="1853" on="1"/>
      </contour>
    </TTGlyph>
    <TTGlyph name="Dcroat" xMin="117" yMin="0" xMax="1491" yMax="1421">
      <contour>
        <pt x="776" y="1421" on="1"/>
        <pt x="895" y="1421" on="0"/>
        <pt x="1096" y="1379" on="0"/>
        <pt x="1241" y="1306" on="0"/>
        <pt x="1354" y="1203" on="0"/>
        <pt x="1426" y="1088" on="0"/>
        <pt x="1472" y="952" on="0"/>
        <pt x="1491" y="823" on="0"/>
        <pt x="1491" y="754" on="1"/>
        <pt x="1491" y="661" on="0"/>
        <pt x="1463" y="489" on="0"/>
        <pt x="1394" y="311" on="0"/>
        <pt x="1287" y="170" on="0"/>
        <pt x="1117" y="57" on="0"/>
        <pt x="1009" y="30" on="1"/>
        <pt x="953" y="16" on="0"/>
        <pt x="815" y="2" on="0"/>
        <pt x="725" y="0" on="0"/>
        <pt x="643" y="0" on="1"/>
        <pt x="335" y="0" on="1"/>
        <pt x="335" y="658" on="1"/>
        <pt x="117" y="658" on="1"/>
        <pt x="117" y="808" on="1"/>
        <pt x="335" y="808" on="1"/>
        <pt x="335" y="1421" on="1"/>
      </contour>
      <contour>
        <pt x="505" y="658" on="1"/>
        <pt x="505" y="150" on="1"/>
        <pt x="712" y="150" on="1"/>
        <pt x="757" y="150" on="0"/>
        <pt x="816" y="152" on="0"/>
        <pt x="917" y="162" on="0"/>
        <pt x="990" y="182" on="0"/>
        <pt x="1083" y="220" on="0"/>
        <pt x="1155" y="274" on="0"/>
        <pt x="1227" y="358" on="0"/>
        <pt x="1254" y="411" on="1"/>
        <pt x="1320" y="538" on="0"/>
        <pt x="1320" y="720" on="1"/>
        <pt x="1320" y="846" on="0"/>
        <pt x="1247" y="1049" on="0"/>
        <pt x="1126" y="1176" on="0"/>
        <pt x="989" y="1250" on="0"/>
        <pt x="914" y="1263" on="1"/>
        <pt x="870" y="1271" on="0"/>
        <pt x="781" y="1271" on="1"/>
        <pt x="505" y="1271" on="1"/>
        <pt x="505" y="808" on="1"/>
        <pt x="761" y="808" on="1"/>
        <pt x="761" y="658" on="1"/>
      </contour>
    </TTGlyph>
    <TTGlyph name="E" xMin="290" yMin="0" xMax="1123" yMax="1421">
      <contour>
        <pt x="290" y="0" on="1"/>
        <pt x="290" y="1421" on="1"/>
        <pt x="1123" y="1421" on="1"/>
        <pt x="1123" y="1271" on="1"/>
        <pt x="460" y="1271" on="1"/>
        <pt x="460" y="807" on="1"/>
        <pt x="1068" y="807" on="1"/>
        <pt x="1068" y="657" on="1"/>
        <pt x="460" y="657" on="1"/>
        <pt x="460" y="150" on="1"/>
        <pt x="1123" y="150" on="1"/>
        <pt x="1123" y="0" on="1"/>
      </contour>
    </TTGlyph>
    <TTGlyph name="Eacute" xMin="290" yMin="0" xMax="1123" yMax="1929">
      <contour>
        <pt x="290" y="1421" on="1"/>
        <pt x="1123" y="1421" on="1"/>
        <pt x="1123" y="1271" on="1"/>
        <pt x="460" y="1271" on="1"/>
        <pt x="460" y="807" on="1"/>
        <pt x="1068" y="807" on="1"/>
        <pt x="1068" y="657" on="1"/>
        <pt x="460" y="657" on="1"/>
        <pt x="460" y="150" on="1"/>
        <pt x="1123" y="150" on="1"/>
        <pt x="1123" y="0" on="1"/>
        <pt x="290" y="0" on="1"/>
      </contour>
      <contour>
        <pt x="952" y="1929" on="1"/>
        <pt x="1022" y="1806" on="1"/>
        <pt x="510" y="1511" on="1"/>
        <pt x="448" y="1619" on="1"/>
      </contour>
    </TTGlyph>
    <TTGlyph name="Ebreve" xMin="290" yMin="0" xMax="1123" yMax="1882">
      <contour>
        <pt x="1003" y="1882" on="1"/>
        <pt x="1116" y="1805" on="1"/>
        <pt x="1022" y="1681" on="0"/>
        <pt x="800" y="1559" on="0"/>
        <pt x="690" y="1559" on="1"/>
        <pt x="569" y="1559" on="0"/>
        <pt x="375" y="1697" on="0"/>
        <pt x="332" y="1816" on="1"/>
        <pt x="456" y="1882" on="1"/>
        <pt x="497" y="1796" on="0"/>
        <pt x="630" y="1695" on="0"/>
        <pt x="709" y="1695" on="1"/>
        <pt x="862" y="1695" on="0"/>
      </contour>
      <contour>
        <pt x="290" y="0" on="1"/>
        <pt x="290" y="1421" on="1"/>
        <pt x="1123" y="1421" on="1"/>
        <pt x="1123" y="1271" on="1"/>
        <pt x="460" y="1271" on="1"/>
        <pt x="460" y="807" on="1"/>
        <pt x="1068" y="807" on="1"/>
        <pt x="1068" y="657" on="1"/>
        <pt x="460" y="657" on="1"/>
        <pt x="460" y="150" on="1"/>
        <pt x="1123" y="150" on="1"/>
        <pt x="1123" y="0" on="1"/>
      </contour>
    </TTGlyph>
    <TTGlyph name="Ecaron" xMin="290" yMin="0" xMax="1123" yMax="1932">
      <contour>
        <pt x="290" y="0" on="1"/>
        <pt x="290" y="1421" on="1"/>
        <pt x="1123" y="1421" on="1"/>
        <pt x="1123" y="1271" on="1"/>
        <pt x="460" y="1271" on="1"/>
        <pt x="460" y="807" on="1"/>
        <pt x="1068" y="807" on="1"/>
        <pt x="1068" y="657" on="1"/>
        <pt x="460" y="657" on="1"/>
        <pt x="460" y="150" on="1"/>
        <pt x="1123" y="150" on="1"/>
        <pt x="1123" y="0" on="1"/>
      </contour>
      <contour>
        <pt x="694" y="1558" on="1"/>
        <pt x="438" y="1844" on="1"/>
        <pt x="530" y="1932" on="1"/>
        <pt x="706" y="1736" on="1"/>
        <pt x="888" y="1931" on="1"/>
        <pt x="976" y="1853" on="1"/>
      </contour>
    </TTGlyph>
    <TTGlyph name="Ecircumflex" xMin="290" yMin="0" xMax="1123" yMax="1932">
      <contour>
        <pt x="290" y="1421" on="1"/>
        <pt x="1123" y="1421" on="1"/>
        <pt x="1123" y="1271" on="1"/>
        <pt x="460" y="1271" on="1"/>
        <pt x="460" y="807" on="1"/>
        <pt x="1068" y="807" on="1"/>
        <pt x="1068" y="657" on="1"/>
        <pt x="460" y="657" on="1"/>
        <pt x="460" y="150" on="1"/>
        <pt x="1123" y="150" on="1"/>
        <pt x="1123" y="0" on="1"/>
        <pt x="290" y="0" on="1"/>
      </contour>
      <contour>
        <pt x="720" y="1932" on="1"/>
        <pt x="976" y="1646" on="1"/>
        <pt x="882" y="1558" on="1"/>
        <pt x="707" y="1754" on="1"/>
        <pt x="526" y="1559" on="1"/>
        <pt x="438" y="1637" on="1"/>
      </contour>
    </TTGlyph>
    <TTGlyph name="Edieresis" xMin="290" yMin="0" xMax="1123" yMax="1898">
      <contour>
        <pt x="290" y="1421" on="1"/>
        <pt x="1123" y="1421" on="1"/>
        <pt x="1123" y="1271" on="1"/>
        <pt x="460" y="1271" on="1"/>
        <pt x="460" y="807" on="1"/>
        <pt x="1068" y="807" on="1"/>
        <pt x="1068" y="657" on="1"/>
        <pt x="460" y="657" on="1"/>
        <pt x="460" y="150" on="1"/>
        <pt x="1123" y="150" on="1"/>
        <pt x="1123" y="0" on="1"/>
        <pt x="290" y="0" on="1"/>
      </contour>
      <contour>
        <pt x="390" y="1898" on="1"/>
        <pt x="575" y="1898" on="1"/>
        <pt x="575" y="1713" on="1"/>
        <pt x="390" y="1713" on="1"/>
      </contour>
      <contour>
        <pt x="838" y="1898" on="1"/>
        <pt x="1023" y="1898" on="1"/>
        <pt x="1023" y="1713" on="1"/>
        <pt x="838" y="1713" on="1"/>
      </contour>
    </TTGlyph>
    <TTGlyph name="Edotaccent" xMin="290" yMin="0" xMax="1123" yMax="1829">
      <contour>
        <pt x="290" y="0" on="1"/>
        <pt x="290" y="1421" on="1"/>
        <pt x="1123" y="1421" on="1"/>
        <pt x="1123" y="1271" on="1"/>
        <pt x="460" y="1271" on="1"/>
        <pt x="460" y="807" on="1"/>
        <pt x="1068" y="807" on="1"/>
        <pt x="1068" y="657" on="1"/>
        <pt x="460" y="657" on="1"/>
        <pt x="460" y="150" on="1"/>
        <pt x="1123" y="150" on="1"/>
        <pt x="1123" y="0" on="1"/>
      </contour>
      <contour>
        <pt x="592" y="1829" on="1"/>
        <pt x="802" y="1829" on="1"/>
        <pt x="802" y="1619" on="1"/>
        <pt x="592" y="1619" on="1"/>
      </contour>
    </TTGlyph>
    <TTGlyph name="Egrave" xMin="290" yMin="0" xMax="1123" yMax="1929">
      <contour>
        <pt x="290" y="1421" on="1"/>
        <pt x="1123" y="1421" on="1"/>
        <pt x="1123" y="1271" on="1"/>
        <pt x="460" y="1271" on="1"/>
        <pt x="460" y="807" on="1"/>
        <pt x="1068" y="807" on="1"/>
        <pt x="1068" y="657" on="1"/>
        <pt x="460" y="657" on="1"/>
        <pt x="460" y="150" on="1"/>
        <pt x="1123" y="150" on="1"/>
        <pt x="1123" y="0" on="1"/>
        <pt x="290" y="0" on="1"/>
      </contour>
      <contour>
        <pt x="479" y="1929" on="1"/>
        <pt x="983" y="1619" on="1"/>
        <pt x="920" y="1511" on="1"/>
        <pt x="408" y="1806" on="1"/>
      </contour>
    </TTGlyph>
    <TTGlyph name="Emacron" xMin="290" yMin="0" xMax="1123" yMax="1697">
      <contour>
        <pt x="290" y="0" on="1"/>
        <pt x="290" y="1421" on="1"/>
        <pt x="1123" y="1421" on="1"/>
        <pt x="1123" y="1271" on="1"/>
        <pt x="460" y="1271" on="1"/>
        <pt x="460" y="807" on="1"/>
        <pt x="1068" y="807" on="1"/>
        <pt x="1068" y="657" on="1"/>
        <pt x="460" y="657" on="1"/>
        <pt x="460" y="150" on="1"/>
        <pt x="1123" y="150" on="1"/>
        <pt x="1123" y="0" on="1"/>
      </contour>
      <contour>
        <pt x="360" y="1697" on="1"/>
        <pt x="1093" y="1697" on="1"/>
        <pt x="1093" y="1568" on="1"/>
        <pt x="360" y="1568" on="1"/>
      </contour>
    </TTGlyph>
    <TTGlyph name="Eng" xMin="290" yMin="-365" xMax="1438" yMax="1483">
      <contour>
        <pt x="1438" y="-35" on="1"/>
        <pt x="1438" y="-111" on="0"/>
        <pt x="1400" y="-230" on="0"/>
        <pt x="1338" y="-302" on="0"/>
        <pt x="1252" y="-348" on="0"/>
        <pt x="1166" y="-365" on="0"/>
        <pt x="1118" y="-365" on="1"/>
        <pt x="1024" y="-365" on="0"/>
        <pt x="891" y="-330" on="1"/>
        <pt x="916" y="-208" on="1"/>
        <pt x="1017" y="-228" on="0"/>
        <pt x="1071" y="-228" on="1"/>
        <pt x="1150" y="-228" on="0"/>
        <pt x="1250" y="-152" on="0"/>
        <pt x="1263" y="-84" on="1"/>
        <pt x="1268" y="-60" on="0"/>
        <pt x="1268" y="-10" on="1"/>
        <pt x="1268" y="857" on="1"/>
        <pt x="1268" y="895" on="0"/>
        <pt x="1267" y="942" on="0"/>
        <pt x="1258" y="1029" on="0"/>
        <pt x="1242" y="1089" on="0"/>
        <pt x="1210" y="1168" on="0"/>
        <pt x="1165" y="1224" on="0"/>
        <pt x="1094" y="1277" on="0"/>
        <pt x="1049" y="1293" on="1"/>
        <pt x="990" y="1314" on="0"/>
        <pt x="916" y="1314" on="1"/>
        <pt x="746" y="1314" on="0"/>
        <pt x="460" y="1178" on="1"/>
        <pt x="460" y="0" on="1"/>
        <pt x="290" y="0" on="1"/>
        <pt x="290" y="1421" on="1"/>
        <pt x="401" y="1421" on="1"/>
        <pt x="446" y="1328" on="1"/>
        <pt x="788" y="1483" on="0"/>
        <pt x="984" y="1483" on="1"/>
        <pt x="1176" y="1483" on="0"/>
        <pt x="1408" y="1263" on="0"/>
        <pt x="1431" y="1085" on="1"/>
        <pt x="1438" y="1028" on="0"/>
        <pt x="1438" y="912" on="1"/>
      </contour>
    </TTGlyph>
    <TTGlyph name="Eogonek" xMin="290" yMin="-543" xMax="1123" yMax="1421">
      <contour>
        <pt x="290" y="1421" on="1"/>
        <pt x="1123" y="1421" on="1"/>
        <pt x="1123" y="1271" on="1"/>
        <pt x="460" y="1271" on="1"/>
        <pt x="460" y="807" on="1"/>
        <pt x="1068" y="807" on="1"/>
        <pt x="1068" y="657" on="1"/>
        <pt x="460" y="657" on="1"/>
        <pt x="460" y="150" on="1"/>
        <pt x="1123" y="150" on="1"/>
        <pt x="1123" y="28" on="1"/>
        <pt x="1100" y="12" on="0"/>
        <pt x="1016" y="-47" on="0"/>
        <pt x="976" y="-76" on="0"/>
        <pt x="910" y="-125" on="0"/>
        <pt x="878" y="-156" on="0"/>
        <pt x="836" y="-200" on="0"/>
        <pt x="817" y="-237" on="0"/>
        <pt x="803" y="-281" on="0"/>
        <pt x="803" y="-304" on="1"/>
        <pt x="803" y="-351" on="0"/>
        <pt x="863" y="-410" on="0"/>
        <pt x="910" y="-410" on="1"/>
        <pt x="980" y="-410" on="0"/>
        <pt x="1073" y="-351" on="1"/>
        <pt x="1121" y="-441" on="1"/>
        <pt x="983" y="-543" on="0"/>
        <pt x="862" y="-543" on="1"/>
        <pt x="771" y="-543" on="0"/>
        <pt x="659" y="-430" on="0"/>
        <pt x="659" y="-340" on="1"/>
        <pt x="659" y="-281" on="0"/>
        <pt x="700" y="-176" on="0"/>
        <pt x="776" y="-90" on="0"/>
        <pt x="843" y="-33" on="0"/>
        <pt x="890" y="0" on="1"/>
        <pt x="290" y="0" on="1"/>
      </contour>
    </TTGlyph>
    <TTGlyph name="Eth" xMin="117" yMin="0" xMax="1491" yMax="1421">
      <contour>
        <pt x="335" y="1421" on="1"/>
        <pt x="770" y="1421" on="1"/>
        <pt x="807" y="1421" on="0"/>
        <pt x="875" y="1418" on="0"/>
        <pt x="987" y="1403" on="0"/>
        <pt x="1083" y="1378" on="0"/>
        <pt x="1201" y="1329" on="0"/>
        <pt x="1296" y="1263" on="0"/>
        <pt x="1389" y="1160" on="0"/>
        <pt x="1452" y="1033" on="0"/>
        <pt x="1491" y="857" on="0"/>
        <pt x="1491" y="754" on="1"/>
        <pt x="1491" y="637" on="0"/>
        <pt x="1452" y="440" on="0"/>
        <pt x="1388" y="296" on="0"/>
        <pt x="1292" y="180" on="0"/>
        <pt x="1194" y="105" on="0"/>
        <pt x="1069" y="49" on="0"/>
        <pt x="965" y="21" on="0"/>
        <pt x="838" y="4" on="0"/>
        <pt x="755" y="0" on="0"/>
        <pt x="706" y="0" on="1"/>
        <pt x="335" y="0" on="1"/>
        <pt x="335" y="658" on="1"/>
        <pt x="117" y="658" on="1"/>
        <pt x="117" y="808" on="1"/>
        <pt x="335" y="808" on="1"/>
      </contour>
      <contour>
        <pt x="505" y="1271" on="1"/>
        <pt x="505" y="808" on="1"/>
        <pt x="761" y="808" on="1"/>
        <pt x="761" y="658" on="1"/>
        <pt x="505" y="658" on="1"/>
        <pt x="505" y="150" on="1"/>
        <pt x="712" y="150" on="1"/>
        <pt x="757" y="150" on="0"/>
        <pt x="832" y="154" on="0"/>
        <pt x="932" y="168" on="0"/>
        <pt x="1014" y="191" on="0"/>
        <pt x="1107" y="234" on="0"/>
        <pt x="1179" y="292" on="0"/>
        <pt x="1248" y="379" on="0"/>
        <pt x="1293" y="487" on="0"/>
        <pt x="1320" y="634" on="0"/>
        <pt x="1320" y="720" on="1"/>
        <pt x="1320" y="797" on="0"/>
        <pt x="1292" y="940" on="0"/>
        <pt x="1216" y="1090" on="0"/>
        <pt x="1099" y="1201" on="0"/>
        <pt x="905" y="1271" on="0"/>
        <pt x="781" y="1271" on="1"/>
      </contour>
    </TTGlyph>
    <TTGlyph name="Euro" xMin="50" yMin="-20" xMax="1255" yMax="1431">
      <contour>
        <pt x="272" y="504" on="1"/>
        <pt x="50" y="504" on="1"/>
        <pt x="50" y="634" on="1"/>
        <pt x="254" y="634" on="1"/>
        <pt x="254" y="646" on="0"/>
        <pt x="251" y="695" on="0"/>
        <pt x="251" y="708" on="1"/>
        <pt x="251" y="784" on="0"/>
        <pt x="261" y="848" on="1"/>
        <pt x="114" y="848" on="1"/>
        <pt x="114" y="978" on="1"/>
        <pt x="290" y="978" on="1"/>
        <pt x="355" y="1187" on="0"/>
        <pt x="672" y="1431" on="0"/>
        <pt x="890" y="1431" on="1"/>
        <pt x="1062" y="1431" on="0"/>
        <pt x="1238" y="1355" on="1"/>
        <pt x="1191" y="1214" on="1"/>
        <pt x="1015" y="1281" on="0"/>
        <pt x="887" y="1281" on="1"/>
        <pt x="741" y="1281" on="0"/>
        <pt x="516" y="1116" on="0"/>
        <pt x="457" y="978" on="1"/>
        <pt x="908" y="978" on="1"/>
        <pt x="908" y="848" on="1"/>
        <pt x="417" y="848" on="1"/>
        <pt x="404" y="783" on="0"/>
        <pt x="404" y="708" on="1"/>
        <pt x="404" y="666" on="0"/>
        <pt x="408" y="634" on="1"/>
        <pt x="844" y="634" on="1"/>
        <pt x="844" y="504" on="1"/>
        <pt x="436" y="504" on="1"/>
        <pt x="488" y="341" on="0"/>
        <pt x="740" y="136" on="0"/>
        <pt x="918" y="136" on="1"/>
        <pt x="1056" y="136" on="0"/>
        <pt x="1208" y="196" on="1"/>
        <pt x="1255" y="70" on="1"/>
        <pt x="1069" y="-20" on="0"/>
        <pt x="880" y="-20" on="1"/>
        <pt x="649" y="-20" on="0"/>
        <pt x="324" y="267" on="0"/>
      </contour>
    </TTGlyph>
    <TTGlyph name="F" xMin="290" yMin="0" xMax="1113" yMax="1421">
      <contour>
        <pt x="460" y="1271" on="1"/>
        <pt x="460" y="807" on="1"/>
        <pt x="1053" y="807" on="1"/>
        <pt x="1053" y="657" on="1"/>
        <pt x="460" y="657" on="1"/>
        <pt x="460" y="0" on="1"/>
        <pt x="290" y="0" on="1"/>
        <pt x="290" y="1421" on="1"/>
        <pt x="1113" y="1421" on="1"/>
        <pt x="1113" y="1271" on="1"/>
      </contour>
    </TTGlyph>
    <TTGlyph name="G" xMin="215" yMin="-20" xMax="1441" yMax="1432">
      <contour>
        <pt x="919" y="1432" on="1"/>
        <pt x="1159" y="1432" on="0"/>
        <pt x="1376" y="1311" on="1"/>
        <pt x="1309" y="1184" on="1"/>
        <pt x="1233" y="1224" on="0"/>
        <pt x="1031" y="1282" on="0"/>
        <pt x="928" y="1282" on="1"/>
        <pt x="823" y="1282" on="0"/>
        <pt x="628" y="1204" on="0"/>
        <pt x="476" y="1063" on="0"/>
        <pt x="385" y="848" on="0"/>
        <pt x="385" y="720" on="1"/>
        <pt x="385" y="551" on="0"/>
        <pt x="535" y="281" on="0"/>
        <pt x="799" y="131" on="0"/>
        <pt x="962" y="131" on="1"/>
        <pt x="1155" y="131" on="0"/>
        <pt x="1276" y="247" on="1"/>
        <pt x="1276" y="610" on="1"/>
        <pt x="872" y="610" on="1"/>
        <pt x="872" y="750" on="1"/>
        <pt x="1441" y="750" on="1"/>
        <pt x="1441" y="192" on="1"/>
        <pt x="1414" y="161" on="0"/>
        <pt x="1343" y="103" on="0"/>
        <pt x="1216" y="27" on="0"/>
        <pt x="1030" y="-20" on="0"/>
        <pt x="922" y="-20" on="1"/>
        <pt x="780" y="-20" on="0"/>
        <pt x="541" y="65" on="0"/>
        <pt x="379" y="207" on="0"/>
        <pt x="267" y="396" on="0"/>
        <pt x="215" y="602" on="0"/>
        <pt x="215" y="709" on="1"/>
        <pt x="215" y="821" on="0"/>
        <pt x="272" y="1032" on="0"/>
        <pt x="390" y="1216" on="0"/>
        <pt x="555" y="1353" on="0"/>
        <pt x="785" y="1432" on="0"/>
      </contour>
    </TTGlyph>
    <TTGlyph name="Gbreve" xMin="216" yMin="-20" xMax="1441" yMax="1882">
      <contour>
        <pt x="507" y="1816" on="1"/>
        <pt x="630" y="1882" on="1"/>
        <pt x="666" y="1807" on="0"/>
        <pt x="795" y="1695" on="0"/>
        <pt x="883" y="1695" on="1"/>
        <pt x="964" y="1695" on="0"/>
        <pt x="1119" y="1804" on="0"/>
        <pt x="1178" y="1882" on="1"/>
        <pt x="1290" y="1805" on="1"/>
        <pt x="1210" y="1698" on="0"/>
        <pt x="986" y="1557" on="0"/>
        <pt x="867" y="1557" on="1"/>
        <pt x="736" y="1557" on="0"/>
        <pt x="546" y="1710" on="0"/>
      </contour>
      <contour>
        <pt x="919" y="1432" on="1"/>
        <pt x="1159" y="1432" on="0"/>
        <pt x="1376" y="1311" on="1"/>
        <pt x="1309" y="1184" on="1"/>
        <pt x="1233" y="1224" on="0"/>
        <pt x="1031" y="1282" on="0"/>
        <pt x="928" y="1282" on="1"/>
        <pt x="823" y="1282" on="0"/>
        <pt x="628" y="1204" on="0"/>
        <pt x="476" y="1063" on="0"/>
        <pt x="385" y="848" on="0"/>
        <pt x="385" y="720" on="1"/>
        <pt x="385" y="551" on="0"/>
        <pt x="535" y="281" on="0"/>
        <pt x="799" y="131" on="0"/>
        <pt x="962" y="131" on="1"/>
        <pt x="1155" y="131" on="0"/>
        <pt x="1276" y="247" on="1"/>
        <pt x="1276" y="610" on="1"/>
        <pt x="872" y="610" on="1"/>
        <pt x="872" y="750" on="1"/>
        <pt x="1441" y="750" on="1"/>
        <pt x="1441" y="192" on="1"/>
        <pt x="1414" y="161" on="0"/>
        <pt x="1343" y="103" on="0"/>
        <pt x="1216" y="27" on="0"/>
        <pt x="1030" y="-20" on="0"/>
        <pt x="922" y="-20" on="1"/>
        <pt x="784" y="-20" on="0"/>
        <pt x="550" y="60" on="0"/>
        <pt x="386" y="197" on="0"/>
        <pt x="271" y="381" on="0"/>
        <pt x="216" y="587" on="0"/>
        <pt x="216" y="697" on="1"/>
        <pt x="216" y="808" on="0"/>
        <pt x="272" y="1020" on="0"/>
        <pt x="389" y="1208" on="0"/>
        <pt x="553" y="1349" on="0"/>
        <pt x="784" y="1432" on="0"/>
      </contour>
    </TTGlyph>
    <TTGlyph name="Gcircumflex" xMin="215" yMin="-20" xMax="1441" yMax="1932">
      <contour>
        <pt x="215" y="709" on="1"/>
        <pt x="215" y="850" on="0"/>
        <pt x="308" y="1107" on="0"/>
        <pt x="480" y="1311" on="0"/>
        <pt x="752" y="1432" on="0"/>
        <pt x="919" y="1432" on="1"/>
        <pt x="1159" y="1432" on="0"/>
        <pt x="1376" y="1311" on="1"/>
        <pt x="1309" y="1184" on="1"/>
        <pt x="1233" y="1224" on="0"/>
        <pt x="1031" y="1282" on="0"/>
        <pt x="928" y="1282" on="1"/>
        <pt x="823" y="1282" on="0"/>
        <pt x="628" y="1204" on="0"/>
        <pt x="476" y="1063" on="0"/>
        <pt x="385" y="848" on="0"/>
        <pt x="385" y="720" on="1"/>
        <pt x="385" y="551" on="0"/>
        <pt x="535" y="281" on="0"/>
        <pt x="799" y="131" on="0"/>
        <pt x="962" y="131" on="1"/>
        <pt x="1155" y="131" on="0"/>
        <pt x="1276" y="247" on="1"/>
        <pt x="1276" y="610" on="1"/>
        <pt x="872" y="610" on="1"/>
        <pt x="872" y="750" on="1"/>
        <pt x="1441" y="750" on="1"/>
        <pt x="1441" y="192" on="1"/>
        <pt x="1414" y="161" on="0"/>
        <pt x="1343" y="103" on="0"/>
        <pt x="1216" y="27" on="0"/>
        <pt x="1030" y="-20" on="0"/>
        <pt x="922" y="-20" on="1"/>
        <pt x="780" y="-20" on="0"/>
        <pt x="541" y="65" on="0"/>
        <pt x="379" y="207" on="0"/>
        <pt x="267" y="396" on="0"/>
        <pt x="215" y="602" on="0"/>
      </contour>
      <contour>
        <pt x="874" y="1932" on="1"/>
        <pt x="1130" y="1646" on="1"/>
        <pt x="1037" y="1558" on="1"/>
        <pt x="862" y="1754" on="1"/>
        <pt x="680" y="1559" on="1"/>
        <pt x="592" y="1637" on="1"/>
      </contour>
    </TTGlyph>
    <TTGlyph name="Gcommaaccent" xMin="215" yMin="-531" xMax="1441" yMax="1432">
      <contour>
        <pt x="215" y="709" on="1"/>
        <pt x="215" y="821" on="0"/>
        <pt x="272" y="1032" on="0"/>
        <pt x="390" y="1216" on="0"/>
        <pt x="555" y="1353" on="0"/>
        <pt x="785" y="1432" on="0"/>
        <pt x="919" y="1432" on="1"/>
        <pt x="1159" y="1432" on="0"/>
        <pt x="1376" y="1311" on="1"/>
        <pt x="1309" y="1184" on="1"/>
        <pt x="1233" y="1224" on="0"/>
        <pt x="1031" y="1282" on="0"/>
        <pt x="928" y="1282" on="1"/>
        <pt x="823" y="1282" on="0"/>
        <pt x="628" y="1204" on="0"/>
        <pt x="476" y="1063" on="0"/>
        <pt x="385" y="848" on="0"/>
        <pt x="385" y="720" on="1"/>
        <pt x="385" y="551" on="0"/>
        <pt x="535" y="281" on="0"/>
        <pt x="799" y="131" on="0"/>
        <pt x="962" y="131" on="1"/>
        <pt x="1155" y="131" on="0"/>
        <pt x="1276" y="247" on="1"/>
        <pt x="1276" y="610" on="1"/>
        <pt x="872" y="610" on="1"/>
        <pt x="872" y="750" on="1"/>
        <pt x="1441" y="750" on="1"/>
        <pt x="1441" y="192" on="1"/>
        <pt x="1414" y="161" on="0"/>
        <pt x="1343" y="103" on="0"/>
        <pt x="1216" y="27" on="0"/>
        <pt x="1030" y="-20" on="0"/>
        <pt x="922" y="-20" on="1"/>
        <pt x="780" y="-20" on="0"/>
        <pt x="541" y="65" on="0"/>
        <pt x="379" y="207" on="0"/>
        <pt x="267" y="396" on="0"/>
        <pt x="215" y="602" on="0"/>
      </contour>
      <contour>
        <pt x="886" y="-141" on="1"/>
        <pt x="1066" y="-141" on="1"/>
        <pt x="908" y="-531" on="1"/>
        <pt x="728" y="-531" on="1"/>
      </contour>
    </TTGlyph>
    <TTGlyph name="Gdotaccent" xMin="215" yMin="-20" xMax="1441" yMax="1829">
      <contour>
        <pt x="797" y="1829" on="1"/>
        <pt x="1007" y="1829" on="1"/>
        <pt x="1007" y="1619" on="1"/>
        <pt x="797" y="1619" on="1"/>
      </contour>
      <contour>
        <pt x="215" y="709" on="1"/>
        <pt x="215" y="850" on="0"/>
        <pt x="308" y="1107" on="0"/>
        <pt x="480" y="1311" on="0"/>
        <pt x="752" y="1432" on="0"/>
        <pt x="919" y="1432" on="1"/>
        <pt x="1159" y="1432" on="0"/>
        <pt x="1376" y="1311" on="1"/>
        <pt x="1309" y="1184" on="1"/>
        <pt x="1233" y="1224" on="0"/>
        <pt x="1031" y="1282" on="0"/>
        <pt x="928" y="1282" on="1"/>
        <pt x="823" y="1282" on="0"/>
        <pt x="628" y="1204" on="0"/>
        <pt x="476" y="1063" on="0"/>
        <pt x="385" y="848" on="0"/>
        <pt x="385" y="720" on="1"/>
        <pt x="385" y="551" on="0"/>
        <pt x="535" y="281" on="0"/>
        <pt x="799" y="131" on="0"/>
        <pt x="962" y="131" on="1"/>
        <pt x="1155" y="131" on="0"/>
        <pt x="1276" y="247" on="1"/>
        <pt x="1276" y="610" on="1"/>
        <pt x="872" y="610" on="1"/>
        <pt x="872" y="750" on="1"/>
        <pt x="1441" y="750" on="1"/>
        <pt x="1441" y="192" on="1"/>
        <pt x="1414" y="161" on="0"/>
        <pt x="1343" y="103" on="0"/>
        <pt x="1216" y="27" on="0"/>
        <pt x="1030" y="-20" on="0"/>
        <pt x="922" y="-20" on="1"/>
        <pt x="780" y="-20" on="0"/>
        <pt x="541" y="65" on="0"/>
        <pt x="379" y="207" on="0"/>
        <pt x="267" y="396" on="0"/>
        <pt x="215" y="602" on="0"/>
      </contour>
    </TTGlyph>
    <TTGlyph name="H" xMin="290" yMin="0" xMax="1390" yMax="1421">
      <contour>
        <pt x="1220" y="1421" on="1"/>
        <pt x="1390" y="1421" on="1"/>
        <pt x="1390" y="0" on="1"/>
        <pt x="1220" y="0" on="1"/>
        <pt x="1220" y="658" on="1"/>
        <pt x="460" y="658" on="1"/>
        <pt x="460" y="0" on="1"/>
        <pt x="290" y="0" on="1"/>
        <pt x="290" y="1421" on="1"/>
        <pt x="460" y="1421" on="1"/>
        <pt x="460" y="808" on="1"/>
        <pt x="1220" y="808" on="1"/>
      </contour>
    </TTGlyph>
    <TTGlyph name="Hbar" xMin="140" yMin="0" xMax="1540" yMax="1421">
      <contour>
        <pt x="1220" y="1421" on="1"/>
        <pt x="1390" y="1421" on="1"/>
        <pt x="1390" y="1271" on="1"/>
        <pt x="1540" y="1271" on="1"/>
        <pt x="1540" y="1133" on="1"/>
        <pt x="1390" y="1133" on="1"/>
        <pt x="1390" y="0" on="1"/>
        <pt x="1220" y="0" on="1"/>
        <pt x="1220" y="658" on="1"/>
        <pt x="460" y="658" on="1"/>
        <pt x="460" y="0" on="1"/>
        <pt x="290" y="0" on="1"/>
        <pt x="290" y="1133" on="1"/>
        <pt x="140" y="1133" on="1"/>
        <pt x="140" y="1271" on="1"/>
        <pt x="290" y="1271" on="1"/>
        <pt x="290" y="1421" on="1"/>
        <pt x="460" y="1421" on="1"/>
        <pt x="460" y="1271" on="1"/>
        <pt x="1220" y="1271" on="1"/>
      </contour>
      <contour>
        <pt x="1220" y="1133" on="1"/>
        <pt x="460" y="1133" on="1"/>
        <pt x="460" y="808" on="1"/>
        <pt x="1220" y="808" on="1"/>
      </contour>
    </TTGlyph>
    <TTGlyph name="Hcircumflex" xMin="290" yMin="0" xMax="1390" yMax="1937">
      <contour>
        <pt x="1220" y="1421" on="1"/>
        <pt x="1390" y="1421" on="1"/>
        <pt x="1390" y="0" on="1"/>
        <pt x="1220" y="0" on="1"/>
        <pt x="1220" y="658" on="1"/>
        <pt x="460" y="658" on="1"/>
        <pt x="460" y="0" on="1"/>
        <pt x="290" y="0" on="1"/>
        <pt x="290" y="1421" on="1"/>
        <pt x="460" y="1421" on="1"/>
        <pt x="460" y="808" on="1"/>
        <pt x="1220" y="808" on="1"/>
      </contour>
      <contour>
        <pt x="833" y="1937" on="1"/>
        <pt x="1089" y="1651" on="1"/>
        <pt x="996" y="1563" on="1"/>
        <pt x="820" y="1759" on="1"/>
        <pt x="639" y="1564" on="1"/>
        <pt x="551" y="1642" on="1"/>
      </contour>
    </TTGlyph>
    <TTGlyph name="I" xMin="320" yMin="0" xMax="490" yMax="1421">
      <contour>
        <pt x="320" y="1421" on="1"/>
        <pt x="490" y="1421" on="1"/>
        <pt x="490" y="0" on="1"/>
        <pt x="320" y="0" on="1"/>
      </contour>
    </TTGlyph>
    <TTGlyph name="IJ" xMin="320" yMin="-17" xMax="1473" yMax="1421">
      <contour>
        <pt x="1303" y="1421" on="1"/>
        <pt x="1473" y="1421" on="1"/>
        <pt x="1473" y="426" on="1"/>
        <pt x="1473" y="315" on="0"/>
        <pt x="1433" y="167" on="0"/>
        <pt x="1375" y="106" on="1"/>
        <pt x="1258" y="-17" on="0"/>
        <pt x="1036" y="-17" on="1"/>
        <pt x="936" y="-17" on="0"/>
        <pt x="840" y="7" on="1"/>
        <pt x="867" y="149" on="1"/>
        <pt x="934" y="133" on="0"/>
        <pt x="1008" y="133" on="1"/>
        <pt x="1069" y="133" on="0"/>
        <pt x="1165" y="158" on="0"/>
        <pt x="1226" y="193" on="0"/>
        <pt x="1270" y="250" on="0"/>
        <pt x="1290" y="295" on="0"/>
        <pt x="1302" y="360" on="0"/>
        <pt x="1303" y="392" on="0"/>
        <pt x="1303" y="417" on="1"/>
      </contour>
      <contour>
        <pt x="320" y="1421" on="1"/>
        <pt x="490" y="1421" on="1"/>
        <pt x="490" y="0" on="1"/>
        <pt x="320" y="0" on="1"/>
      </contour>
    </TTGlyph>
    <TTGlyph name="Iacute" xMin="51" yMin="0" xMax="625" yMax="1930">
      <contour>
        <pt x="320" y="1421" on="1"/>
        <pt x="490" y="1421" on="1"/>
        <pt x="490" y="0" on="1"/>
        <pt x="320" y="0" on="1"/>
      </contour>
      <contour>
        <pt x="555" y="1930" on="1"/>
        <pt x="625" y="1807" on="1"/>
        <pt x="113" y="1511" on="1"/>
        <pt x="51" y="1620" on="1"/>
      </contour>
    </TTGlyph>
    <TTGlyph name="Ibreve" xMin="83" yMin="0" xMax="726" yMax="1874">
      <contour>
        <pt x="83" y="1808" on="1"/>
        <pt x="206" y="1874" on="1"/>
        <pt x="236" y="1795" on="0"/>
        <pt x="342" y="1705" on="0"/>
        <pt x="401" y="1705" on="1"/>
        <pt x="465" y="1705" on="0"/>
        <pt x="574" y="1793" on="0"/>
        <pt x="633" y="1872" on="1"/>
        <pt x="726" y="1795" on="1"/>
        <pt x="663" y="1687" on="0"/>
        <pt x="474" y="1557" on="0"/>
        <pt x="370" y="1557" on="1"/>
        <pt x="310" y="1557" on="0"/>
        <pt x="210" y="1602" on="0"/>
        <pt x="142" y="1679" on="0"/>
        <pt x="98" y="1761" on="0"/>
      </contour>
      <contour>
        <pt x="320" y="1421" on="1"/>
        <pt x="490" y="1421" on="1"/>
        <pt x="490" y="0" on="1"/>
        <pt x="320" y="0" on="1"/>
      </contour>
    </TTGlyph>
    <TTGlyph name="Icircumflex" xMin="110" yMin="0" xMax="648" yMax="1924">
      <contour>
        <pt x="320" y="1421" on="1"/>
        <pt x="490" y="1421" on="1"/>
        <pt x="490" y="0" on="1"/>
        <pt x="320" y="0" on="1"/>
      </contour>
      <contour>
        <pt x="392" y="1924" on="1"/>
        <pt x="648" y="1638" on="1"/>
        <pt x="554" y="1550" on="1"/>
        <pt x="379" y="1746" on="1"/>
        <pt x="198" y="1551" on="1"/>
        <pt x="110" y="1629" on="1"/>
      </contour>
    </TTGlyph>
    <TTGlyph name="Idieresis" xMin="88" yMin="0" xMax="662" yMax="1824">
      <contour>
        <pt x="290" y="1421" on="1"/>
        <pt x="460" y="1421" on="1"/>
        <pt x="460" y="0" on="1"/>
        <pt x="290" y="0" on="1"/>
      </contour>
      <contour>
        <pt x="88" y="1824" on="1"/>
        <pt x="273" y="1824" on="1"/>
        <pt x="273" y="1639" on="1"/>
        <pt x="88" y="1639" on="1"/>
      </contour>
      <contour>
        <pt x="477" y="1824" on="1"/>
        <pt x="662" y="1824" on="1"/>
        <pt x="662" y="1639" on="1"/>
        <pt x="477" y="1639" on="1"/>
      </contour>
    </TTGlyph>
    <TTGlyph name="Idotaccent" xMin="298" yMin="0" xMax="508" yMax="1829">
      <contour>
        <pt x="298" y="1829" on="1"/>
        <pt x="508" y="1829" on="1"/>
        <pt x="508" y="1619" on="1"/>
        <pt x="298" y="1619" on="1"/>
      </contour>
      <contour>
        <pt x="320" y="1421" on="1"/>
        <pt x="490" y="1421" on="1"/>
        <pt x="490" y="0" on="1"/>
        <pt x="320" y="0" on="1"/>
      </contour>
    </TTGlyph>
    <TTGlyph name="Igrave" xMin="136" yMin="0" xMax="711" yMax="1927">
      <contour>
        <pt x="320" y="1421" on="1"/>
        <pt x="490" y="1421" on="1"/>
        <pt x="490" y="0" on="1"/>
        <pt x="320" y="0" on="1"/>
      </contour>
      <contour>
        <pt x="207" y="1927" on="1"/>
        <pt x="711" y="1617" on="1"/>
        <pt x="648" y="1511" on="1"/>
        <pt x="136" y="1804" on="1"/>
      </contour>
    </TTGlyph>
    <TTGlyph name="Imacron" xMin="200" yMin="0" xMax="610" yMax="1697">
      <contour>
        <pt x="200" y="1697" on="1"/>
        <pt x="610" y="1697" on="1"/>
        <pt x="610" y="1568" on="1"/>
        <pt x="200" y="1568" on="1"/>
      </contour>
      <contour>
        <pt x="320" y="1421" on="1"/>
        <pt x="490" y="1421" on="1"/>
        <pt x="490" y="0" on="1"/>
        <pt x="320" y="0" on="1"/>
      </contour>
    </TTGlyph>
    <TTGlyph name="Iogonek" xMin="30" yMin="-544" xMax="493" yMax="1421">
      <contour>
        <pt x="30" y="-339" on="1"/>
        <pt x="30" y="-227" on="0"/>
        <pt x="196" y="-15" on="0"/>
        <pt x="320" y="49" on="1"/>
        <pt x="320" y="1421" on="1"/>
        <pt x="490" y="1421" on="1"/>
        <pt x="490" y="30" on="1"/>
        <pt x="396" y="-21" on="0"/>
        <pt x="263" y="-124" on="0"/>
        <pt x="200" y="-210" on="0"/>
        <pt x="175" y="-274" on="0"/>
        <pt x="175" y="-303" on="1"/>
        <pt x="175" y="-350" on="0"/>
        <pt x="234" y="-412" on="0"/>
        <pt x="283" y="-412" on="1"/>
        <pt x="344" y="-412" on="0"/>
        <pt x="445" y="-352" on="1"/>
        <pt x="493" y="-442" on="1"/>
        <pt x="351" y="-544" on="0"/>
        <pt x="233" y="-544" on="1"/>
        <pt x="144" y="-544" on="0"/>
        <pt x="30" y="-430" on="0"/>
      </contour>
    </TTGlyph>
    <TTGlyph name="Itilde" xMin="84" yMin="0" xMax="726" yMax="1866">
      <contour>
        <pt x="320" y="1421" on="1"/>
        <pt x="490" y="1421" on="1"/>
        <pt x="490" y="0" on="1"/>
        <pt x="320" y="0" on="1"/>
      </contour>
      <contour>
        <pt x="188" y="1584" on="1"/>
        <pt x="84" y="1612" on="1"/>
        <pt x="110" y="1710" on="1"/>
        <pt x="135" y="1801" on="0"/>
        <pt x="190" y="1838" on="1"/>
        <pt x="231" y="1866" on="0"/>
        <pt x="289" y="1866" on="1"/>
        <pt x="324" y="1866" on="0"/>
        <pt x="383" y="1834" on="0"/>
        <pt x="403" y="1811" on="0"/>
        <pt x="417" y="1792" on="1"/>
        <pt x="465" y="1728" on="1"/>
        <pt x="504" y="1677" on="0"/>
        <pt x="533" y="1677" on="1"/>
        <pt x="549" y="1677" on="0"/>
        <pt x="574" y="1701" on="0"/>
        <pt x="588" y="1740" on="0"/>
        <pt x="593" y="1758" on="0"/>
        <pt x="595" y="1766" on="1"/>
        <pt x="622" y="1864" on="1"/>
        <pt x="726" y="1835" on="1"/>
        <pt x="700" y="1738" on="1"/>
        <pt x="651" y="1550" on="0"/>
        <pt x="518" y="1550" on="1"/>
        <pt x="448" y="1550" on="0"/>
        <pt x="396" y="1622" on="1"/>
        <pt x="394" y="1625" on="0"/>
        <pt x="393" y="1626" on="1"/>
        <pt x="345" y="1690" on="1"/>
        <pt x="306" y="1744" on="0"/>
        <pt x="268" y="1744" on="1"/>
        <pt x="232" y="1744" on="0"/>
        <pt x="215" y="1682" on="1"/>
      </contour>
    </TTGlyph>
    <TTGlyph name="J" xMin="110" yMin="-17" xMax="743" yMax="1421">
      <contour>
        <pt x="573" y="1421" on="1"/>
        <pt x="743" y="1421" on="1"/>
        <pt x="743" y="426" on="1"/>
        <pt x="743" y="315" on="0"/>
        <pt x="703" y="167" on="0"/>
        <pt x="645" y="106" on="1"/>
        <pt x="528" y="-17" on="0"/>
        <pt x="306" y="-17" on="1"/>
        <pt x="206" y="-17" on="0"/>
        <pt x="110" y="7" on="1"/>
        <pt x="137" y="149" on="1"/>
        <pt x="204" y="133" on="0"/>
        <pt x="278" y="133" on="1"/>
        <pt x="339" y="133" on="0"/>
        <pt x="435" y="158" on="0"/>
        <pt x="496" y="193" on="0"/>
        <pt x="540" y="250" on="0"/>
        <pt x="560" y="295" on="0"/>
        <pt x="572" y="360" on="0"/>
        <pt x="573" y="392" on="0"/>
        <pt x="573" y="417" on="1"/>
      </contour>
    </TTGlyph>
    <TTGlyph name="Jcircumflex" xMin="110" yMin="-17" xMax="920" yMax="1932">
      <contour>
        <pt x="664" y="1932" on="1"/>
        <pt x="920" y="1646" on="1"/>
        <pt x="827" y="1558" on="1"/>
        <pt x="651" y="1754" on="1"/>
        <pt x="470" y="1559" on="1"/>
        <pt x="382" y="1637" on="1"/>
      </contour>
      <contour>
        <pt x="573" y="1421" on="1"/>
        <pt x="743" y="1421" on="1"/>
        <pt x="743" y="426" on="1"/>
        <pt x="743" y="315" on="0"/>
        <pt x="703" y="167" on="0"/>
        <pt x="645" y="106" on="1"/>
        <pt x="528" y="-17" on="0"/>
        <pt x="306" y="-17" on="1"/>
        <pt x="206" y="-17" on="0"/>
        <pt x="110" y="7" on="1"/>
        <pt x="137" y="149" on="1"/>
        <pt x="204" y="133" on="0"/>
        <pt x="278" y="133" on="1"/>
        <pt x="339" y="133" on="0"/>
        <pt x="435" y="158" on="0"/>
        <pt x="496" y="193" on="0"/>
        <pt x="540" y="250" on="0"/>
        <pt x="560" y="295" on="0"/>
        <pt x="572" y="360" on="0"/>
        <pt x="573" y="392" on="0"/>
        <pt x="573" y="417" on="1"/>
      </contour>
    </TTGlyph>
    <TTGlyph name="K" xMin="290" yMin="0" xMax="1337" yMax="1421">
      <contour>
        <pt x="290" y="1421" on="1"/>
        <pt x="460" y="1421" on="1"/>
        <pt x="460" y="0" on="1"/>
        <pt x="290" y="0" on="1"/>
      </contour>
      <contour>
        <pt x="1086" y="1421" on="1"/>
        <pt x="1299" y="1421" on="1"/>
        <pt x="698" y="743" on="1"/>
        <pt x="1337" y="0" on="1"/>
        <pt x="1118" y="0" on="1"/>
        <pt x="484" y="729" on="1"/>
      </contour>
    </TTGlyph>
    <TTGlyph name="Kcommaaccent" xMin="290" yMin="-512" xMax="1337" yMax="1421">
      <contour>
        <pt x="648" y="-122" on="1"/>
        <pt x="828" y="-122" on="1"/>
        <pt x="670" y="-512" on="1"/>
        <pt x="490" y="-512" on="1"/>
      </contour>
      <contour>
        <pt x="1086" y="1421" on="1"/>
        <pt x="1299" y="1421" on="1"/>
        <pt x="698" y="743" on="1"/>
        <pt x="1337" y="0" on="1"/>
        <pt x="1118" y="0" on="1"/>
        <pt x="484" y="729" on="1"/>
      </contour>
      <contour>
        <pt x="290" y="1421" on="1"/>
        <pt x="460" y="1421" on="1"/>
        <pt x="460" y="0" on="1"/>
        <pt x="290" y="0" on="1"/>
      </contour>
    </TTGlyph>
    <TTGlyph name="L" xMin="290" yMin="0" xMax="1098" yMax="1421">
      <contour>
        <pt x="290" y="1421" on="1"/>
        <pt x="460" y="1421" on="1"/>
        <pt x="460" y="149" on="1"/>
        <pt x="1098" y="149" on="1"/>
        <pt x="1098" y="0" on="1"/>
        <pt x="290" y="0" on="1"/>
      </contour>
    </TTGlyph>
    <TTGlyph name="Lacute" xMin="283" yMin="0" xMax="1098" yMax="1976">
      <contour>
        <pt x="290" y="1421" on="1"/>
        <pt x="460" y="1421" on="1"/>
        <pt x="460" y="149" on="1"/>
        <pt x="1098" y="149" on="1"/>
        <pt x="1098" y="0" on="1"/>
        <pt x="290" y="0" on="1"/>
      </contour>
      <contour>
        <pt x="787" y="1976" on="1"/>
        <pt x="857" y="1853" on="1"/>
        <pt x="345" y="1558" on="1"/>
        <pt x="283" y="1666" on="1"/>
      </contour>
    </TTGlyph>
    <TTGlyph name="Lcaron" xMin="290" yMin="0" xMax="1098" yMax="1421">
      <contour>
        <pt x="290" y="1421" on="1"/>
        <pt x="460" y="1421" on="1"/>
        <pt x="460" y="149" on="1"/>
        <pt x="1098" y="149" on="1"/>
        <pt x="1098" y="0" on="1"/>
        <pt x="290" y="0" on="1"/>
      </contour>
      <contour>
        <pt x="834" y="1421" on="1"/>
        <pt x="1014" y="1421" on="1"/>
        <pt x="856" y="1031" on="1"/>
        <pt x="676" y="1031" on="1"/>
      </contour>
    </TTGlyph>
    <TTGlyph name="Lcommaaccent" xMin="288" yMin="-512" xMax="1098" yMax="1421">
      <contour>
        <pt x="290" y="1421" on="1"/>
        <pt x="460" y="1421" on="1"/>
        <pt x="460" y="149" on="1"/>
        <pt x="1098" y="149" on="1"/>
        <pt x="1098" y="0" on="1"/>
        <pt x="290" y="0" on="1"/>
      </contour>
      <contour>
        <pt x="446" y="-122" on="1"/>
        <pt x="626" y="-122" on="1"/>
        <pt x="468" y="-512" on="1"/>
        <pt x="288" y="-512" on="1"/>
      </contour>
    </TTGlyph>
    <TTGlyph name="Ldot" xMin="290" yMin="0" xMax="1098" yMax="1421">
      <contour>
        <pt x="290" y="1421" on="1"/>
        <pt x="460" y="1421" on="1"/>
        <pt x="460" y="149" on="1"/>
        <pt x="1098" y="149" on="1"/>
        <pt x="1098" y="0" on="1"/>
        <pt x="290" y="0" on="1"/>
      </contour>
      <contour>
        <pt x="679" y="823" on="1"/>
        <pt x="889" y="823" on="1"/>
        <pt x="889" y="613" on="1"/>
        <pt x="679" y="613" on="1"/>
      </contour>
    </TTGlyph>
    <TTGlyph name="Lslash" xMin="146" yMin="0" xMax="1098" yMax="1421">
      <contour>
        <pt x="290" y="1421" on="1"/>
        <pt x="460" y="1421" on="1"/>
        <pt x="460" y="826" on="1"/>
        <pt x="720" y="976" on="1"/>
        <pt x="720" y="804" on="1"/>
        <pt x="460" y="654" on="1"/>
        <pt x="460" y="149" on="1"/>
        <pt x="1098" y="149" on="1"/>
        <pt x="1098" y="0" on="1"/>
        <pt x="290" y="0" on="1"/>
        <pt x="290" y="555" on="1"/>
        <pt x="146" y="472" on="1"/>
        <pt x="146" y="644" on="1"/>
        <pt x="290" y="727" on="1"/>
      </contour>
    </TTGlyph>
    <TTGlyph name="M" xMin="290" yMin="0" xMax="1674" yMax="1421">
      <contour>
        <pt x="290" y="1421" on="1"/>
        <pt x="530" y="1421" on="1"/>
        <pt x="986" y="559" on="1"/>
        <pt x="1449" y="1421" on="1"/>
        <pt x="1674" y="1421" on="1"/>
        <pt x="1674" y="0" on="1"/>
        <pt x="1504" y="0" on="1"/>
        <pt x="1504" y="1177" on="1"/>
        <pt x="1067" y="407" on="1"/>
        <pt x="897" y="407" on="1"/>
        <pt x="460" y="1177" on="1"/>
        <pt x="460" y="0" on="1"/>
        <pt x="290" y="0" on="1"/>
      </contour>
    </TTGlyph>
    <TTGlyph name="N" xMin="290" yMin="0" xMax="1449" yMax="1421">
      <contour>
        <pt x="290" y="1421" on="1"/>
        <pt x="505" y="1421" on="1"/>
        <pt x="1279" y="232" on="1"/>
        <pt x="1279" y="1421" on="1"/>
        <pt x="1449" y="1421" on="1"/>
        <pt x="1449" y="0" on="1"/>
        <pt x="1234" y="0" on="1"/>
        <pt x="460" y="1191" on="1"/>
        <pt x="460" y="0" on="1"/>
        <pt x="290" y="0" on="1"/>
      </contour>
    </TTGlyph>
    <TTGlyph name="Nacute" xMin="290" yMin="0" xMax="1449" yMax="1976">
      <contour>
        <pt x="290" y="1421" on="1"/>
        <pt x="505" y="1421" on="1"/>
        <pt x="1279" y="232" on="1"/>
        <pt x="1279" y="1421" on="1"/>
        <pt x="1449" y="1421" on="1"/>
        <pt x="1449" y="0" on="1"/>
        <pt x="1234" y="0" on="1"/>
        <pt x="460" y="1191" on="1"/>
        <pt x="460" y="0" on="1"/>
        <pt x="290" y="0" on="1"/>
      </contour>
      <contour>
        <pt x="1092" y="1976" on="1"/>
        <pt x="1162" y="1853" on="1"/>
        <pt x="650" y="1558" on="1"/>
        <pt x="588" y="1666" on="1"/>
      </contour>
    </TTGlyph>
    <TTGlyph name="Ncaron" xMin="290" yMin="0" xMax="1449" yMax="1932">
      <contour>
        <pt x="290" y="1421" on="1"/>
        <pt x="505" y="1421" on="1"/>
        <pt x="1279" y="232" on="1"/>
        <pt x="1279" y="1421" on="1"/>
        <pt x="1449" y="1421" on="1"/>
        <pt x="1449" y="0" on="1"/>
        <pt x="1234" y="0" on="1"/>
        <pt x="460" y="1191" on="1"/>
        <pt x="460" y="0" on="1"/>
        <pt x="290" y="0" on="1"/>
      </contour>
      <contour>
        <pt x="906" y="1558" on="1"/>
        <pt x="650" y="1844" on="1"/>
        <pt x="744" y="1932" on="1"/>
        <pt x="919" y="1736" on="1"/>
        <pt x="1100" y="1931" on="1"/>
        <pt x="1188" y="1853" on="1"/>
      </contour>
    </TTGlyph>
    <TTGlyph name="Ncommaaccent" xMin="290" yMin="-512" xMax="1449" yMax="1421">
      <contour>
        <pt x="761" y="-122" on="1"/>
        <pt x="941" y="-122" on="1"/>
        <pt x="783" y="-512" on="1"/>
        <pt x="603" y="-512" on="1"/>
      </contour>
      <contour>
        <pt x="290" y="1421" on="1"/>
        <pt x="505" y="1421" on="1"/>
        <pt x="1279" y="232" on="1"/>
        <pt x="1279" y="1421" on="1"/>
        <pt x="1449" y="1421" on="1"/>
        <pt x="1449" y="0" on="1"/>
        <pt x="1234" y="0" on="1"/>
        <pt x="460" y="1191" on="1"/>
        <pt x="460" y="0" on="1"/>
        <pt x="290" y="0" on="1"/>
      </contour>
    </TTGlyph>
    <TTGlyph name="Ntilde" xMin="290" yMin="0" xMax="1449" yMax="1878">
      <contour>
        <pt x="733" y="1876" on="1"/>
        <pt x="777" y="1876" on="0"/>
        <pt x="860" y="1839" on="0"/>
        <pt x="921" y="1786" on="0"/>
        <pt x="975" y="1733" on="0"/>
        <pt x="1028" y="1696" on="0"/>
        <pt x="1051" y="1696" on="1"/>
        <pt x="1063" y="1696" on="0"/>
        <pt x="1084" y="1702" on="0"/>
        <pt x="1100" y="1717" on="0"/>
        <pt x="1113" y="1732" on="0"/>
        <pt x="1124" y="1759" on="0"/>
        <pt x="1132" y="1777" on="0"/>
        <pt x="1139" y="1812" on="0"/>
        <pt x="1143" y="1831" on="0"/>
        <pt x="1150" y="1870" on="0"/>
        <pt x="1152" y="1878" on="1"/>
        <pt x="1260" y="1861" on="1"/>
        <pt x="1258" y="1853" on="0"/>
        <pt x="1246" y="1788" on="0"/>
        <pt x="1240" y="1764" on="0"/>
        <pt x="1226" y="1704" on="0"/>
        <pt x="1212" y="1678" on="0"/>
        <pt x="1190" y="1632" on="0"/>
        <pt x="1164" y="1610" on="0"/>
        <pt x="1129" y="1584" on="0"/>
        <pt x="1084" y="1574" on="0"/>
        <pt x="1058" y="1574" on="1"/>
        <pt x="1014" y="1574" on="0"/>
        <pt x="931" y="1611" on="0"/>
        <pt x="870" y="1664" on="0"/>
        <pt x="816" y="1717" on="0"/>
        <pt x="763" y="1754" on="0"/>
        <pt x="740" y="1754" on="1"/>
        <pt x="726" y="1754" on="0"/>
        <pt x="703" y="1744" on="0"/>
        <pt x="687" y="1731" on="0"/>
        <pt x="672" y="1704" on="0"/>
        <pt x="664" y="1684" on="0"/>
        <pt x="654" y="1646" on="0"/>
        <pt x="650" y="1625" on="0"/>
        <pt x="642" y="1580" on="0"/>
        <pt x="640" y="1572" on="1"/>
        <pt x="532" y="1589" on="1"/>
        <pt x="534" y="1600" on="0"/>
        <pt x="544" y="1652" on="0"/>
        <pt x="549" y="1679" on="0"/>
        <pt x="561" y="1728" on="0"/>
        <pt x="572" y="1756" on="0"/>
        <pt x="590" y="1798" on="0"/>
        <pt x="609" y="1822" on="0"/>
        <pt x="637" y="1851" on="0"/>
        <pt x="668" y="1866" on="0"/>
        <pt x="709" y="1876" on="0"/>
      </contour>
      <contour>
        <pt x="290" y="1421" on="1"/>
        <pt x="505" y="1421" on="1"/>
        <pt x="1279" y="232" on="1"/>
        <pt x="1279" y="1421" on="1"/>
        <pt x="1449" y="1421" on="1"/>
        <pt x="1449" y="0" on="1"/>
        <pt x="1234" y="0" on="1"/>
        <pt x="460" y="1191" on="1"/>
        <pt x="460" y="0" on="1"/>
        <pt x="290" y="0" on="1"/>
      </contour>
    </TTGlyph>
    <TTGlyph name="O" xMin="215" yMin="-15" xMax="1551" yMax="1436">
      <contour>
        <pt x="884" y="1436" on="1"/>
        <pt x="1025" y="1436" on="0"/>
        <pt x="1270" y="1337" on="0"/>
        <pt x="1449" y="1157" on="0"/>
        <pt x="1551" y="888" on="0"/>
        <pt x="1551" y="727" on="1"/>
        <pt x="1551" y="509" on="0"/>
        <pt x="1378" y="170" on="0"/>
        <pt x="1071" y="-15" on="0"/>
        <pt x="877" y="-15" on="1"/>
        <pt x="749" y="-15" on="0"/>
        <pt x="515" y="76" on="0"/>
        <pt x="327" y="250" on="0"/>
        <pt x="215" y="531" on="0"/>
        <pt x="215" y="707" on="1"/>
        <pt x="215" y="872" on="0"/>
        <pt x="317" y="1146" on="0"/>
        <pt x="495" y="1333" on="0"/>
        <pt x="741" y="1436" on="0"/>
      </contour>
      <contour>
        <pt x="875" y="1287" on="1"/>
        <pt x="784" y="1287" on="0"/>
        <pt x="616" y="1219" on="0"/>
        <pt x="475" y="1088" on="0"/>
        <pt x="390" y="867" on="0"/>
        <pt x="390" y="728" on="1"/>
        <pt x="390" y="595" on="0"/>
        <pt x="468" y="370" on="0"/>
        <pt x="602" y="218" on="0"/>
        <pt x="785" y="134" on="0"/>
        <pt x="890" y="134" on="1"/>
        <pt x="961" y="134" on="0"/>
        <pt x="1098" y="176" on="0"/>
        <pt x="1224" y="267" on="0"/>
        <pt x="1319" y="399" on="0"/>
        <pt x="1376" y="593" on="0"/>
        <pt x="1376" y="709" on="1"/>
        <pt x="1376" y="827" on="0"/>
        <pt x="1316" y="1023" on="0"/>
        <pt x="1217" y="1155" on="0"/>
        <pt x="1086" y="1246" on="0"/>
        <pt x="947" y="1287" on="0"/>
      </contour>
    </TTGlyph>
    <TTGlyph name="OE" xMin="215" yMin="0" xMax="1838" yMax="1421">
      <contour>
        <pt x="1050" y="1271" on="1"/>
        <pt x="993" y="1271" on="1"/>
        <pt x="867" y="1271" on="0"/>
        <pt x="805" y="1261" on="1"/>
        <pt x="606" y="1230" on="0"/>
        <pt x="385" y="933" on="0"/>
        <pt x="385" y="701" on="1"/>
        <pt x="385" y="594" on="0"/>
        <pt x="436" y="417" on="0"/>
        <pt x="524" y="299" on="0"/>
        <pt x="614" y="224" on="0"/>
        <pt x="665" y="199" on="1"/>
        <pt x="727" y="168" on="0"/>
        <pt x="843" y="150" on="0"/>
        <pt x="924" y="150" on="1"/>
        <pt x="1050" y="150" on="1"/>
      </contour>
      <contour>
        <pt x="391" y="1224" on="1"/>
        <pt x="443" y="1278" on="0"/>
        <pt x="576" y="1355" on="0"/>
        <pt x="698" y="1395" on="0"/>
        <pt x="862" y="1416" on="0"/>
        <pt x="977" y="1421" on="0"/>
        <pt x="1062" y="1421" on="1"/>
        <pt x="1838" y="1421" on="1"/>
        <pt x="1838" y="1271" on="1"/>
        <pt x="1220" y="1271" on="1"/>
        <pt x="1220" y="807" on="1"/>
        <pt x="1783" y="807" on="1"/>
        <pt x="1783" y="657" on="1"/>
        <pt x="1220" y="657" on="1"/>
        <pt x="1220" y="150" on="1"/>
        <pt x="1838" y="150" on="1"/>
        <pt x="1838" y="0" on="1"/>
        <pt x="973" y="0" on="1"/>
        <pt x="851" y="0" on="0"/>
        <pt x="663" y="23" on="0"/>
        <pt x="579" y="58" on="1"/>
        <pt x="409" y="130" on="0"/>
        <pt x="215" y="454" on="0"/>
        <pt x="215" y="703" on="1"/>
        <pt x="215" y="1040" on="0"/>
      </contour>
    </TTGlyph>
    <TTGlyph name="Oacute" xMin="215" yMin="-15" xMax="1551" yMax="1930">
      <contour>
        <pt x="884" y="1436" on="1"/>
        <pt x="1025" y="1436" on="0"/>
        <pt x="1270" y="1337" on="0"/>
        <pt x="1449" y="1157" on="0"/>
        <pt x="1551" y="888" on="0"/>
        <pt x="1551" y="727" on="1"/>
        <pt x="1551" y="509" on="0"/>
        <pt x="1378" y="170" on="0"/>
        <pt x="1071" y="-15" on="0"/>
        <pt x="877" y="-15" on="1"/>
        <pt x="749" y="-15" on="0"/>
        <pt x="515" y="76" on="0"/>
        <pt x="327" y="250" on="0"/>
        <pt x="215" y="531" on="0"/>
        <pt x="215" y="707" on="1"/>
        <pt x="215" y="872" on="0"/>
        <pt x="317" y="1146" on="0"/>
        <pt x="495" y="1333" on="0"/>
        <pt x="741" y="1436" on="0"/>
      </contour>
      <contour>
        <pt x="1376" y="709" on="1"/>
        <pt x="1376" y="827" on="0"/>
        <pt x="1316" y="1022" on="0"/>
        <pt x="1217" y="1154" on="0"/>
        <pt x="1086" y="1246" on="0"/>
        <pt x="945" y="1287" on="0"/>
        <pt x="872" y="1287" on="1"/>
        <pt x="802" y="1287" on="0"/>
        <pt x="667" y="1246" on="0"/>
        <pt x="541" y="1157" on="0"/>
        <pt x="447" y="1029" on="0"/>
        <pt x="390" y="841" on="0"/>
        <pt x="390" y="728" on="1"/>
        <pt x="390" y="595" on="0"/>
        <pt x="468" y="370" on="0"/>
        <pt x="602" y="218" on="0"/>
        <pt x="785" y="134" on="0"/>
        <pt x="890" y="134" on="1"/>
        <pt x="961" y="134" on="0"/>
        <pt x="1098" y="176" on="0"/>
        <pt x="1224" y="267" on="0"/>
        <pt x="1319" y="399" on="0"/>
        <pt x="1376" y="593" on="0"/>
      </contour>
      <contour>
        <pt x="1107" y="1930" on="1"/>
        <pt x="1177" y="1807" on="1"/>
        <pt x="665" y="1511" on="1"/>
        <pt x="603" y="1620" on="1"/>
      </contour>
    </TTGlyph>
    <TTGlyph name="Obreve" xMin="215" yMin="-15" xMax="1551" yMax="1882">
      <contour>
        <pt x="523" y="1816" on="1"/>
        <pt x="646" y="1882" on="1"/>
        <pt x="682" y="1807" on="0"/>
        <pt x="810" y="1695" on="0"/>
        <pt x="898" y="1695" on="1"/>
        <pt x="979" y="1695" on="0"/>
        <pt x="1134" y="1804" on="0"/>
        <pt x="1193" y="1882" on="1"/>
        <pt x="1306" y="1805" on="1"/>
        <pt x="1226" y="1698" on="0"/>
        <pt x="1001" y="1557" on="0"/>
        <pt x="882" y="1557" on="1"/>
        <pt x="751" y="1557" on="0"/>
        <pt x="562" y="1710" on="0"/>
      </contour>
      <contour>
        <pt x="1376" y="709" on="1"/>
        <pt x="1376" y="826" on="0"/>
        <pt x="1317" y="1021" on="0"/>
        <pt x="1219" y="1154" on="0"/>
        <pt x="1087" y="1245" on="0"/>
        <pt x="946" y="1287" on="0"/>
        <pt x="872" y="1287" on="1"/>
        <pt x="802" y="1287" on="0"/>
        <pt x="667" y="1246" on="0"/>
        <pt x="541" y="1157" on="0"/>
        <pt x="447" y="1029" on="0"/>
        <pt x="390" y="841" on="0"/>
        <pt x="390" y="728" on="1"/>
        <pt x="390" y="595" on="0"/>
        <pt x="468" y="370" on="0"/>
        <pt x="602" y="218" on="0"/>
        <pt x="785" y="134" on="0"/>
        <pt x="890" y="134" on="1"/>
        <pt x="961" y="134" on="0"/>
        <pt x="1098" y="176" on="0"/>
        <pt x="1224" y="267" on="0"/>
        <pt x="1319" y="399" on="0"/>
        <pt x="1376" y="593" on="0"/>
      </contour>
      <contour>
        <pt x="884" y="1436" on="1"/>
        <pt x="1025" y="1436" on="0"/>
        <pt x="1270" y="1337" on="0"/>
        <pt x="1449" y="1157" on="0"/>
        <pt x="1551" y="888" on="0"/>
        <pt x="1551" y="727" on="1"/>
        <pt x="1551" y="509" on="0"/>
        <pt x="1378" y="170" on="0"/>
        <pt x="1071" y="-15" on="0"/>
        <pt x="877" y="-15" on="1"/>
        <pt x="749" y="-15" on="0"/>
        <pt x="515" y="76" on="0"/>
        <pt x="327" y="250" on="0"/>
        <pt x="215" y="531" on="0"/>
        <pt x="215" y="707" on="1"/>
        <pt x="215" y="872" on="0"/>
        <pt x="317" y="1146" on="0"/>
        <pt x="495" y="1333" on="0"/>
        <pt x="741" y="1436" on="0"/>
      </contour>
    </TTGlyph>
    <TTGlyph name="Ocircumflex" xMin="215" yMin="-15" xMax="1551" yMax="1924">
      <contour>
        <pt x="884" y="1436" on="1"/>
        <pt x="1025" y="1436" on="0"/>
        <pt x="1270" y="1337" on="0"/>
        <pt x="1449" y="1157" on="0"/>
        <pt x="1551" y="888" on="0"/>
        <pt x="1551" y="727" on="1"/>
        <pt x="1551" y="509" on="0"/>
        <pt x="1378" y="170" on="0"/>
        <pt x="1071" y="-15" on="0"/>
        <pt x="877" y="-15" on="1"/>
        <pt x="749" y="-15" on="0"/>
        <pt x="515" y="76" on="0"/>
        <pt x="327" y="250" on="0"/>
        <pt x="215" y="531" on="0"/>
        <pt x="215" y="707" on="1"/>
        <pt x="215" y="872" on="0"/>
        <pt x="317" y="1146" on="0"/>
        <pt x="495" y="1333" on="0"/>
        <pt x="741" y="1436" on="0"/>
      </contour>
      <contour>
        <pt x="1376" y="709" on="1"/>
        <pt x="1376" y="827" on="0"/>
        <pt x="1316" y="1022" on="0"/>
        <pt x="1217" y="1154" on="0"/>
        <pt x="1086" y="1246" on="0"/>
        <pt x="945" y="1287" on="0"/>
        <pt x="872" y="1287" on="1"/>
        <pt x="802" y="1287" on="0"/>
        <pt x="667" y="1246" on="0"/>
        <pt x="541" y="1157" on="0"/>
        <pt x="447" y="1029" on="0"/>
        <pt x="390" y="841" on="0"/>
        <pt x="390" y="728" on="1"/>
        <pt x="390" y="595" on="0"/>
        <pt x="468" y="370" on="0"/>
        <pt x="602" y="218" on="0"/>
        <pt x="785" y="134" on="0"/>
        <pt x="890" y="134" on="1"/>
        <pt x="961" y="134" on="0"/>
        <pt x="1098" y="176" on="0"/>
        <pt x="1224" y="267" on="0"/>
        <pt x="1319" y="399" on="0"/>
        <pt x="1376" y="593" on="0"/>
      </contour>
      <contour>
        <pt x="912" y="1924" on="1"/>
        <pt x="1168" y="1638" on="1"/>
        <pt x="1075" y="1550" on="1"/>
        <pt x="899" y="1746" on="1"/>
        <pt x="718" y="1551" on="1"/>
        <pt x="630" y="1629" on="1"/>
      </contour>
    </TTGlyph>
    <TTGlyph name="Odieresis" xMin="215" yMin="-15" xMax="1551" yMax="1898">
      <contour>
        <pt x="884" y="1436" on="1"/>
        <pt x="1025" y="1436" on="0"/>
        <pt x="1270" y="1337" on="0"/>
        <pt x="1449" y="1157" on="0"/>
        <pt x="1551" y="888" on="0"/>
        <pt x="1551" y="727" on="1"/>
        <pt x="1551" y="509" on="0"/>
        <pt x="1378" y="170" on="0"/>
        <pt x="1071" y="-15" on="0"/>
        <pt x="877" y="-15" on="1"/>
        <pt x="749" y="-15" on="0"/>
        <pt x="515" y="76" on="0"/>
        <pt x="327" y="250" on="0"/>
        <pt x="215" y="531" on="0"/>
        <pt x="215" y="707" on="1"/>
        <pt x="215" y="872" on="0"/>
        <pt x="317" y="1146" on="0"/>
        <pt x="495" y="1333" on="0"/>
        <pt x="741" y="1436" on="0"/>
      </contour>
      <contour>
        <pt x="1376" y="709" on="1"/>
        <pt x="1376" y="827" on="0"/>
        <pt x="1316" y="1022" on="0"/>
        <pt x="1217" y="1154" on="0"/>
        <pt x="1086" y="1246" on="0"/>
        <pt x="945" y="1287" on="0"/>
        <pt x="872" y="1287" on="1"/>
        <pt x="802" y="1287" on="0"/>
        <pt x="667" y="1246" on="0"/>
        <pt x="541" y="1157" on="0"/>
        <pt x="447" y="1029" on="0"/>
        <pt x="390" y="841" on="0"/>
        <pt x="390" y="728" on="1"/>
        <pt x="390" y="595" on="0"/>
        <pt x="468" y="370" on="0"/>
        <pt x="602" y="218" on="0"/>
        <pt x="785" y="134" on="0"/>
        <pt x="890" y="134" on="1"/>
        <pt x="961" y="134" on="0"/>
        <pt x="1098" y="176" on="0"/>
        <pt x="1224" y="267" on="0"/>
        <pt x="1319" y="399" on="0"/>
        <pt x="1376" y="593" on="0"/>
      </contour>
      <contour>
        <pt x="576" y="1898" on="1"/>
        <pt x="761" y="1898" on="1"/>
        <pt x="761" y="1713" on="1"/>
        <pt x="576" y="1713" on="1"/>
      </contour>
      <contour>
        <pt x="1025" y="1898" on="1"/>
        <pt x="1210" y="1898" on="1"/>
        <pt x="1210" y="1713" on="1"/>
        <pt x="1025" y="1713" on="1"/>
      </contour>
    </TTGlyph>
    <TTGlyph name="Ograve" xMin="215" yMin="-15" xMax="1551" yMax="1932">
      <contour>
        <pt x="884" y="1436" on="1"/>
        <pt x="1025" y="1436" on="0"/>
        <pt x="1270" y="1337" on="0"/>
        <pt x="1449" y="1157" on="0"/>
        <pt x="1551" y="888" on="0"/>
        <pt x="1551" y="727" on="1"/>
        <pt x="1551" y="509" on="0"/>
        <pt x="1378" y="170" on="0"/>
        <pt x="1071" y="-15" on="0"/>
        <pt x="877" y="-15" on="1"/>
        <pt x="749" y="-15" on="0"/>
        <pt x="515" y="76" on="0"/>
        <pt x="327" y="250" on="0"/>
        <pt x="215" y="531" on="0"/>
        <pt x="215" y="707" on="1"/>
        <pt x="215" y="872" on="0"/>
        <pt x="317" y="1146" on="0"/>
        <pt x="495" y="1333" on="0"/>
        <pt x="741" y="1436" on="0"/>
      </contour>
      <contour>
        <pt x="1376" y="709" on="1"/>
        <pt x="1376" y="827" on="0"/>
        <pt x="1316" y="1022" on="0"/>
        <pt x="1217" y="1154" on="0"/>
        <pt x="1086" y="1246" on="0"/>
        <pt x="945" y="1287" on="0"/>
        <pt x="872" y="1287" on="1"/>
        <pt x="802" y="1287" on="0"/>
        <pt x="667" y="1246" on="0"/>
        <pt x="541" y="1157" on="0"/>
        <pt x="447" y="1029" on="0"/>
        <pt x="390" y="841" on="0"/>
        <pt x="390" y="728" on="1"/>
        <pt x="390" y="595" on="0"/>
        <pt x="468" y="370" on="0"/>
        <pt x="602" y="218" on="0"/>
        <pt x="785" y="134" on="0"/>
        <pt x="890" y="134" on="1"/>
        <pt x="961" y="134" on="0"/>
        <pt x="1098" y="176" on="0"/>
        <pt x="1224" y="267" on="0"/>
        <pt x="1319" y="399" on="0"/>
        <pt x="1376" y="593" on="0"/>
      </contour>
      <contour>
        <pt x="737" y="1932" on="1"/>
        <pt x="1241" y="1622" on="1"/>
        <pt x="1178" y="1514" on="1"/>
        <pt x="666" y="1809" on="1"/>
      </contour>
    </TTGlyph>
    <TTGlyph name="Ohungarumlaut" xMin="215" yMin="-15" xMax="1551" yMax="1994">
      <contour>
        <pt x="1444" y="1994" on="1"/>
        <pt x="1525" y="1878" on="1"/>
        <pt x="1041" y="1539" on="1"/>
        <pt x="969" y="1641" on="1"/>
      </contour>
      <contour>
        <pt x="924" y="1994" on="1"/>
        <pt x="1005" y="1878" on="1"/>
        <pt x="521" y="1539" on="1"/>
        <pt x="449" y="1641" on="1"/>
      </contour>
      <contour>
        <pt x="1376" y="709" on="1"/>
        <pt x="1376" y="826" on="0"/>
        <pt x="1317" y="1021" on="0"/>
        <pt x="1219" y="1154" on="0"/>
        <pt x="1087" y="1245" on="0"/>
        <pt x="946" y="1287" on="0"/>
        <pt x="872" y="1287" on="1"/>
        <pt x="802" y="1287" on="0"/>
        <pt x="667" y="1246" on="0"/>
        <pt x="541" y="1157" on="0"/>
        <pt x="447" y="1029" on="0"/>
        <pt x="390" y="841" on="0"/>
        <pt x="390" y="728" on="1"/>
        <pt x="390" y="595" on="0"/>
        <pt x="468" y="370" on="0"/>
        <pt x="602" y="218" on="0"/>
        <pt x="785" y="134" on="0"/>
        <pt x="890" y="134" on="1"/>
        <pt x="961" y="134" on="0"/>
        <pt x="1098" y="176" on="0"/>
        <pt x="1224" y="267" on="0"/>
        <pt x="1319" y="399" on="0"/>
        <pt x="1376" y="593" on="0"/>
      </contour>
      <contour>
        <pt x="884" y="1436" on="1"/>
        <pt x="1025" y="1436" on="0"/>
        <pt x="1270" y="1337" on="0"/>
        <pt x="1449" y="1157" on="0"/>
        <pt x="1551" y="888" on="0"/>
        <pt x="1551" y="727" on="1"/>
        <pt x="1551" y="509" on="0"/>
        <pt x="1378" y="170" on="0"/>
        <pt x="1071" y="-15" on="0"/>
        <pt x="877" y="-15" on="1"/>
        <pt x="749" y="-15" on="0"/>
        <pt x="515" y="76" on="0"/>
        <pt x="327" y="250" on="0"/>
        <pt x="215" y="531" on="0"/>
        <pt x="215" y="707" on="1"/>
        <pt x="215" y="872" on="0"/>
        <pt x="317" y="1146" on="0"/>
        <pt x="495" y="1333" on="0"/>
        <pt x="741" y="1436" on="0"/>
      </contour>
    </TTGlyph>
    <TTGlyph name="Omacron" xMin="215" yMin="-15" xMax="1551" yMax="1697">
      <contour>
        <pt x="1376" y="709" on="1"/>
        <pt x="1376" y="826" on="0"/>
        <pt x="1317" y="1021" on="0"/>
        <pt x="1219" y="1154" on="0"/>
        <pt x="1087" y="1245" on="0"/>
        <pt x="946" y="1287" on="0"/>
        <pt x="872" y="1287" on="1"/>
        <pt x="802" y="1287" on="0"/>
        <pt x="667" y="1246" on="0"/>
        <pt x="541" y="1157" on="0"/>
        <pt x="447" y="1029" on="0"/>
        <pt x="390" y="841" on="0"/>
        <pt x="390" y="728" on="1"/>
        <pt x="390" y="595" on="0"/>
        <pt x="468" y="370" on="0"/>
        <pt x="602" y="218" on="0"/>
        <pt x="785" y="134" on="0"/>
        <pt x="890" y="134" on="1"/>
        <pt x="961" y="134" on="0"/>
        <pt x="1098" y="176" on="0"/>
        <pt x="1224" y="267" on="0"/>
        <pt x="1319" y="399" on="0"/>
        <pt x="1376" y="593" on="0"/>
      </contour>
      <contour>
        <pt x="884" y="1436" on="1"/>
        <pt x="1025" y="1436" on="0"/>
        <pt x="1270" y="1337" on="0"/>
        <pt x="1449" y="1157" on="0"/>
        <pt x="1551" y="888" on="0"/>
        <pt x="1551" y="727" on="1"/>
        <pt x="1551" y="509" on="0"/>
        <pt x="1378" y="170" on="0"/>
        <pt x="1071" y="-15" on="0"/>
        <pt x="877" y="-15" on="1"/>
        <pt x="749" y="-15" on="0"/>
        <pt x="515" y="76" on="0"/>
        <pt x="327" y="250" on="0"/>
        <pt x="215" y="531" on="0"/>
        <pt x="215" y="707" on="1"/>
        <pt x="215" y="872" on="0"/>
        <pt x="317" y="1146" on="0"/>
        <pt x="495" y="1333" on="0"/>
        <pt x="741" y="1436" on="0"/>
      </contour>
      <contour>
        <pt x="532" y="1697" on="1"/>
        <pt x="1272" y="1697" on="1"/>
        <pt x="1272" y="1568" on="1"/>
        <pt x="532" y="1568" on="1"/>
      </contour>
    </TTGlyph>
    <TTGlyph name="Oslash" xMin="154" yMin="-15" xMax="1619" yMax="1436">
      <contour>
        <pt x="884" y="1436" on="1"/>
        <pt x="1021" y="1436" on="0"/>
        <pt x="1278" y="1335" on="0"/>
        <pt x="1372" y="1233" on="1"/>
        <pt x="1556" y="1409" on="1"/>
        <pt x="1619" y="1344" on="1"/>
        <pt x="1428" y="1162" on="1"/>
        <pt x="1551" y="980" on="0"/>
        <pt x="1551" y="727" on="1"/>
        <pt x="1551" y="509" on="0"/>
        <pt x="1378" y="170" on="0"/>
        <pt x="1071" y="-15" on="0"/>
        <pt x="877" y="-15" on="1"/>
        <pt x="795" y="-15" on="0"/>
        <pt x="639" y="23" on="0"/>
        <pt x="542" y="68" on="0"/>
        <pt x="447" y="138" on="0"/>
        <pt x="419" y="164" on="0"/>
        <pt x="402" y="182" on="1"/>
        <pt x="215" y="5" on="1"/>
        <pt x="154" y="70" on="1"/>
        <pt x="345" y="252" on="1"/>
        <pt x="215" y="439" on="0"/>
        <pt x="215" y="707" on="1"/>
        <pt x="215" y="872" on="0"/>
        <pt x="317" y="1146" on="0"/>
        <pt x="495" y="1333" on="0"/>
        <pt x="741" y="1436" on="0"/>
      </contour>
      <contour>
        <pt x="1247" y="1114" on="1"/>
        <pt x="1177" y="1198" on="0"/>
        <pt x="982" y="1287" on="0"/>
        <pt x="875" y="1287" on="1"/>
        <pt x="784" y="1287" on="0"/>
        <pt x="616" y="1219" on="0"/>
        <pt x="475" y="1088" on="0"/>
        <pt x="390" y="867" on="0"/>
        <pt x="390" y="728" on="1"/>
        <pt x="390" y="527" on="0"/>
        <pt x="476" y="377" on="1"/>
      </contour>
      <contour>
        <pt x="890" y="134" on="1"/>
        <pt x="961" y="134" on="0"/>
        <pt x="1098" y="176" on="0"/>
        <pt x="1224" y="267" on="0"/>
        <pt x="1319" y="399" on="0"/>
        <pt x="1376" y="593" on="0"/>
        <pt x="1376" y="709" on="1"/>
        <pt x="1376" y="899" on="0"/>
        <pt x="1299" y="1038" on="1"/>
        <pt x="528" y="302" on="1"/>
        <pt x="597" y="220" on="0"/>
        <pt x="786" y="134" on="0"/>
      </contour>
    </TTGlyph>
    <TTGlyph name="Otilde" xMin="215" yMin="-15" xMax="1551" yMax="1878">
      <contour>
        <pt x="1169" y="1878" on="1"/>
        <pt x="1277" y="1861" on="1"/>
        <pt x="1275" y="1853" on="0"/>
        <pt x="1263" y="1788" on="0"/>
        <pt x="1257" y="1764" on="0"/>
        <pt x="1243" y="1704" on="0"/>
        <pt x="1229" y="1678" on="0"/>
        <pt x="1207" y="1632" on="0"/>
        <pt x="1181" y="1610" on="0"/>
        <pt x="1146" y="1584" on="0"/>
        <pt x="1101" y="1574" on="0"/>
        <pt x="1075" y="1574" on="1"/>
        <pt x="1031" y="1574" on="0"/>
        <pt x="948" y="1611" on="0"/>
        <pt x="887" y="1664" on="0"/>
        <pt x="833" y="1717" on="0"/>
        <pt x="780" y="1754" on="0"/>
        <pt x="757" y="1754" on="1"/>
        <pt x="743" y="1754" on="0"/>
        <pt x="720" y="1744" on="0"/>
        <pt x="704" y="1731" on="0"/>
        <pt x="689" y="1704" on="0"/>
        <pt x="681" y="1684" on="0"/>
        <pt x="671" y="1646" on="0"/>
        <pt x="667" y="1625" on="0"/>
        <pt x="659" y="1580" on="0"/>
        <pt x="657" y="1572" on="1"/>
        <pt x="549" y="1589" on="1"/>
        <pt x="551" y="1597" on="0"/>
        <pt x="563" y="1662" on="0"/>
        <pt x="569" y="1686" on="0"/>
        <pt x="583" y="1746" on="0"/>
        <pt x="597" y="1772" on="0"/>
        <pt x="619" y="1818" on="0"/>
        <pt x="645" y="1840" on="0"/>
        <pt x="680" y="1866" on="0"/>
        <pt x="725" y="1876" on="0"/>
        <pt x="751" y="1876" on="1"/>
        <pt x="795" y="1876" on="0"/>
        <pt x="878" y="1839" on="0"/>
        <pt x="939" y="1786" on="0"/>
        <pt x="993" y="1733" on="0"/>
        <pt x="1046" y="1696" on="0"/>
        <pt x="1069" y="1696" on="1"/>
        <pt x="1083" y="1696" on="0"/>
        <pt x="1106" y="1706" on="0"/>
        <pt x="1122" y="1719" on="0"/>
        <pt x="1137" y="1746" on="0"/>
        <pt x="1145" y="1766" on="0"/>
        <pt x="1155" y="1804" on="0"/>
        <pt x="1159" y="1825" on="0"/>
        <pt x="1167" y="1870" on="0"/>
      </contour>
      <contour>
        <pt x="1376" y="709" on="1"/>
        <pt x="1376" y="826" on="0"/>
        <pt x="1317" y="1021" on="0"/>
        <pt x="1219" y="1154" on="0"/>
        <pt x="1087" y="1245" on="0"/>
        <pt x="946" y="1287" on="0"/>
        <pt x="872" y="1287" on="1"/>
        <pt x="802" y="1287" on="0"/>
        <pt x="667" y="1246" on="0"/>
        <pt x="541" y="1157" on="0"/>
        <pt x="447" y="1029" on="0"/>
        <pt x="390" y="841" on="0"/>
        <pt x="390" y="728" on="1"/>
        <pt x="390" y="595" on="0"/>
        <pt x="468" y="370" on="0"/>
        <pt x="602" y="218" on="0"/>
        <pt x="785" y="134" on="0"/>
        <pt x="890" y="134" on="1"/>
        <pt x="961" y="134" on="0"/>
        <pt x="1098" y="176" on="0"/>
        <pt x="1224" y="267" on="0"/>
        <pt x="1319" y="399" on="0"/>
        <pt x="1376" y="593" on="0"/>
      </contour>
      <contour>
        <pt x="884" y="1436" on="1"/>
        <pt x="1025" y="1436" on="0"/>
        <pt x="1270" y="1337" on="0"/>
        <pt x="1449" y="1157" on="0"/>
        <pt x="1551" y="888" on="0"/>
        <pt x="1551" y="727" on="1"/>
        <pt x="1551" y="509" on="0"/>
        <pt x="1378" y="170" on="0"/>
        <pt x="1071" y="-15" on="0"/>
        <pt x="877" y="-15" on="1"/>
        <pt x="749" y="-15" on="0"/>
        <pt x="515" y="76" on="0"/>
        <pt x="327" y="250" on="0"/>
        <pt x="215" y="531" on="0"/>
        <pt x="215" y="707" on="1"/>
        <pt x="215" y="872" on="0"/>
        <pt x="317" y="1146" on="0"/>
        <pt x="495" y="1333" on="0"/>
        <pt x="741" y="1436" on="0"/>
      </contour>
    </TTGlyph>
    <TTGlyph name="P" xMin="290" yMin="0" xMax="1232" yMax="1421">
      <contour>
        <pt x="290" y="1421" on="1"/>
        <pt x="759" y="1421" on="1"/>
        <pt x="792" y="1421" on="0"/>
        <pt x="835" y="1420" on="0"/>
        <pt x="917" y="1413" on="0"/>
        <pt x="975" y="1400" on="0"/>
        <pt x="1054" y="1373" on="0"/>
        <pt x="1110" y="1337" on="0"/>
        <pt x="1171" y="1278" on="0"/>
        <pt x="1208" y="1206" on="0"/>
        <pt x="1232" y="1104" on="0"/>
        <pt x="1232" y="1043" on="1"/>
        <pt x="1232" y="955" on="0"/>
        <pt x="1192" y="815" on="0"/>
        <pt x="1129" y="721" on="0"/>
        <pt x="1029" y="653" on="0"/>
        <pt x="931" y="616" on="0"/>
        <pt x="798" y="595" on="0"/>
        <pt x="693" y="589" on="0"/>
        <pt x="624" y="589" on="1"/>
        <pt x="556" y="589" on="0"/>
        <pt x="460" y="596" on="1"/>
        <pt x="460" y="0" on="1"/>
        <pt x="290" y="0" on="1"/>
      </contour>
      <contour>
        <pt x="460" y="746" on="1"/>
        <pt x="556" y="738" on="0"/>
        <pt x="642" y="738" on="1"/>
        <pt x="691" y="738" on="0"/>
        <pt x="757" y="740" on="0"/>
        <pt x="853" y="752" on="0"/>
        <pt x="917" y="773" on="0"/>
        <pt x="989" y="815" on="0"/>
        <pt x="1032" y="872" on="0"/>
        <pt x="1060" y="959" on="0"/>
        <pt x="1060" y="1015" on="1"/>
        <pt x="1060" y="1073" on="0"/>
        <pt x="1030" y="1162" on="0"/>
        <pt x="973" y="1216" on="0"/>
        <pt x="910" y="1251" on="0"/>
        <pt x="821" y="1266" on="0"/>
        <pt x="754" y="1271" on="0"/>
        <pt x="708" y="1271" on="1"/>
        <pt x="460" y="1271" on="1"/>
      </contour>
    </TTGlyph>
    <TTGlyph name="Q" xMin="215" yMin="-56" xMax="1582" yMax="1436">
      <contour>
        <pt x="886" y="1436" on="1"/>
        <pt x="1185" y="1436" on="0"/>
        <pt x="1551" y="1040" on="0"/>
        <pt x="1551" y="711" on="1"/>
        <pt x="1551" y="412" on="0"/>
        <pt x="1401" y="220" on="1"/>
        <pt x="1582" y="41" on="1"/>
        <pt x="1490" y="-56" on="1"/>
        <pt x="1303" y="121" on="1"/>
        <pt x="1131" y="-15" on="0"/>
        <pt x="888" y="-15" on="1"/>
        <pt x="747" y="-15" on="0"/>
        <pt x="503" y="83" on="0"/>
        <pt x="320" y="263" on="0"/>
        <pt x="215" y="537" on="0"/>
        <pt x="215" y="705" on="1"/>
        <pt x="215" y="871" on="0"/>
        <pt x="317" y="1146" on="0"/>
        <pt x="495" y="1333" on="0"/>
        <pt x="742" y="1436" on="0"/>
      </contour>
      <contour>
        <pt x="872" y="1287" on="1"/>
        <pt x="784" y="1287" on="0"/>
        <pt x="618" y="1221" on="0"/>
        <pt x="476" y="1090" on="0"/>
        <pt x="390" y="867" on="0"/>
        <pt x="390" y="724" on="1"/>
        <pt x="390" y="584" on="0"/>
        <pt x="474" y="356" on="0"/>
        <pt x="618" y="211" on="0"/>
        <pt x="804" y="134" on="0"/>
        <pt x="908" y="134" on="1"/>
        <pt x="1071" y="134" on="0"/>
        <pt x="1191" y="227" on="1"/>
        <pt x="876" y="525" on="1"/>
        <pt x="981" y="633" on="1"/>
        <pt x="1287" y="332" on="1"/>
        <pt x="1376" y="469" on="0"/>
        <pt x="1376" y="685" on="1"/>
        <pt x="1376" y="820" on="0"/>
        <pt x="1310" y="1035" on="0"/>
        <pt x="1207" y="1167" on="0"/>
        <pt x="1070" y="1254" on="0"/>
        <pt x="939" y="1287" on="0"/>
      </contour>
    </TTGlyph>
    <TTGlyph name="R" xMin="290" yMin="0" xMax="1311" yMax="1421">
      <contour>
        <pt x="1228" y="1031" on="1"/>
        <pt x="1228" y="960" on="0"/>
        <pt x="1194" y="832" on="0"/>
        <pt x="1122" y="716" on="0"/>
        <pt x="995" y="631" on="0"/>
        <pt x="910" y="611" on="1"/>
        <pt x="1311" y="0" on="1"/>
        <pt x="1121" y="0" on="1"/>
        <pt x="736" y="592" on="1"/>
        <pt x="461" y="592" on="1"/>
        <pt x="461" y="0" on="1"/>
        <pt x="290" y="0" on="1"/>
        <pt x="290" y="1421" on="1"/>
        <pt x="812" y="1421" on="1"/>
        <pt x="848" y="1421" on="0"/>
        <pt x="906" y="1417" on="0"/>
        <pt x="997" y="1400" on="0"/>
        <pt x="1067" y="1371" on="0"/>
        <pt x="1144" y="1312" on="0"/>
        <pt x="1195" y="1232" on="0"/>
        <pt x="1228" y="1108" on="0"/>
      </contour>
      <contour>
        <pt x="461" y="742" on="1"/>
        <pt x="706" y="742" on="1"/>
        <pt x="757" y="742" on="0"/>
        <pt x="835" y="749" on="0"/>
        <pt x="940" y="780" on="0"/>
        <pt x="1009" y="835" on="0"/>
        <pt x="1058" y="940" on="0"/>
        <pt x="1058" y="1012" on="1"/>
        <pt x="1058" y="1063" on="0"/>
        <pt x="1032" y="1145" on="0"/>
        <pt x="992" y="1198" on="0"/>
        <pt x="934" y="1237" on="0"/>
        <pt x="880" y="1257" on="0"/>
        <pt x="814" y="1269" on="0"/>
        <pt x="771" y="1272" on="0"/>
        <pt x="747" y="1272" on="1"/>
        <pt x="461" y="1272" on="1"/>
      </contour>
    </TTGlyph>
    <TTGlyph name="Racute" xMin="290" yMin="0" xMax="1311" yMax="1976">
      <contour>
        <pt x="1228" y="1031" on="1"/>
        <pt x="1228" y="960" on="0"/>
        <pt x="1194" y="832" on="0"/>
        <pt x="1122" y="716" on="0"/>
        <pt x="995" y="631" on="0"/>
        <pt x="910" y="611" on="1"/>
        <pt x="1311" y="0" on="1"/>
        <pt x="1121" y="0" on="1"/>
        <pt x="736" y="593" on="1"/>
        <pt x="725" y="593" on="0"/>
        <pt x="682" y="592" on="0"/>
        <pt x="671" y="592" on="1"/>
        <pt x="461" y="592" on="1"/>
        <pt x="461" y="0" on="1"/>
        <pt x="290" y="0" on="1"/>
        <pt x="290" y="1421" on="1"/>
        <pt x="812" y="1421" on="1"/>
        <pt x="915" y="1421" on="0"/>
        <pt x="1067" y="1382" on="0"/>
        <pt x="1129" y="1316" on="1"/>
        <pt x="1228" y="1211" on="0"/>
      </contour>
      <contour>
        <pt x="461" y="742" on="1"/>
        <pt x="706" y="742" on="1"/>
        <pt x="831" y="742" on="0"/>
        <pt x="993" y="801" on="0"/>
        <pt x="1034" y="892" on="1"/>
        <pt x="1058" y="945" on="0"/>
        <pt x="1058" y="1012" on="1"/>
        <pt x="1058" y="1100" on="0"/>
        <pt x="961" y="1241" on="0"/>
        <pt x="860" y="1262" on="1"/>
        <pt x="814" y="1272" on="0"/>
        <pt x="720" y="1272" on="1"/>
        <pt x="461" y="1272" on="1"/>
      </contour>
      <contour>
        <pt x="934" y="1976" on="1"/>
        <pt x="1004" y="1853" on="1"/>
        <pt x="492" y="1558" on="1"/>
        <pt x="430" y="1666" on="1"/>
      </contour>
    </TTGlyph>
    <TTGlyph name="Rcaron" xMin="290" yMin="0" xMax="1311" yMax="1932">
      <contour>
        <pt x="1228" y="1031" on="1"/>
        <pt x="1228" y="960" on="0"/>
        <pt x="1194" y="832" on="0"/>
        <pt x="1122" y="716" on="0"/>
        <pt x="995" y="631" on="0"/>
        <pt x="910" y="611" on="1"/>
        <pt x="1311" y="0" on="1"/>
        <pt x="1121" y="0" on="1"/>
        <pt x="736" y="593" on="1"/>
        <pt x="725" y="593" on="0"/>
        <pt x="682" y="592" on="0"/>
        <pt x="671" y="592" on="1"/>
        <pt x="461" y="592" on="1"/>
        <pt x="461" y="0" on="1"/>
        <pt x="290" y="0" on="1"/>
        <pt x="290" y="1421" on="1"/>
        <pt x="812" y="1421" on="1"/>
        <pt x="915" y="1421" on="0"/>
        <pt x="1067" y="1382" on="0"/>
        <pt x="1129" y="1316" on="1"/>
        <pt x="1228" y="1211" on="0"/>
      </contour>
      <contour>
        <pt x="461" y="742" on="1"/>
        <pt x="706" y="742" on="1"/>
        <pt x="831" y="742" on="0"/>
        <pt x="993" y="801" on="0"/>
        <pt x="1034" y="892" on="1"/>
        <pt x="1058" y="945" on="0"/>
        <pt x="1058" y="1012" on="1"/>
        <pt x="1058" y="1100" on="0"/>
        <pt x="961" y="1241" on="0"/>
        <pt x="860" y="1262" on="1"/>
        <pt x="814" y="1272" on="0"/>
        <pt x="720" y="1272" on="1"/>
        <pt x="461" y="1272" on="1"/>
      </contour>
      <contour>
        <pt x="699" y="1558" on="1"/>
        <pt x="443" y="1844" on="1"/>
        <pt x="536" y="1932" on="1"/>
        <pt x="712" y="1736" on="1"/>
        <pt x="893" y="1931" on="1"/>
        <pt x="981" y="1853" on="1"/>
      </contour>
    </TTGlyph>
    <TTGlyph name="Rcommaaccent" xMin="290" yMin="-512" xMax="1311" yMax="1421">
      <contour>
        <pt x="464" y="-122" on="1"/>
        <pt x="644" y="-122" on="1"/>
        <pt x="486" y="-512" on="1"/>
        <pt x="306" y="-512" on="1"/>
      </contour>
      <contour>
        <pt x="461" y="742" on="1"/>
        <pt x="706" y="742" on="1"/>
        <pt x="831" y="742" on="0"/>
        <pt x="993" y="801" on="0"/>
        <pt x="1034" y="892" on="1"/>
        <pt x="1058" y="945" on="0"/>
        <pt x="1058" y="1012" on="1"/>
        <pt x="1058" y="1100" on="0"/>
        <pt x="961" y="1241" on="0"/>
        <pt x="860" y="1262" on="1"/>
        <pt x="814" y="1272" on="0"/>
        <pt x="720" y="1272" on="1"/>
        <pt x="461" y="1272" on="1"/>
      </contour>
      <contour>
        <pt x="1228" y="1031" on="1"/>
        <pt x="1228" y="960" on="0"/>
        <pt x="1194" y="832" on="0"/>
        <pt x="1122" y="716" on="0"/>
        <pt x="995" y="631" on="0"/>
        <pt x="910" y="611" on="1"/>
        <pt x="1311" y="0" on="1"/>
        <pt x="1121" y="0" on="1"/>
        <pt x="736" y="593" on="1"/>
        <pt x="725" y="593" on="0"/>
        <pt x="682" y="592" on="0"/>
        <pt x="671" y="592" on="1"/>
        <pt x="461" y="592" on="1"/>
        <pt x="461" y="0" on="1"/>
        <pt x="290" y="0" on="1"/>
        <pt x="290" y="1421" on="1"/>
        <pt x="812" y="1421" on="1"/>
        <pt x="915" y="1421" on="0"/>
        <pt x="1067" y="1382" on="0"/>
        <pt x="1129" y="1316" on="1"/>
        <pt x="1228" y="1211" on="0"/>
      </contour>
    </TTGlyph>
    <TTGlyph name="S" xMin="240" yMin="-20" xMax="1221" yMax="1434">
      <contour>
        <pt x="821" y="1434" on="1"/>
        <pt x="985" y="1434" on="0"/>
        <pt x="1174" y="1377" on="1"/>
        <pt x="1119" y="1222" on="1"/>
        <pt x="939" y="1274" on="0"/>
        <pt x="807" y="1274" on="1"/>
        <pt x="659" y="1274" on="0"/>
        <pt x="454" y="1149" on="0"/>
        <pt x="454" y="1050" on="1"/>
        <pt x="454" y="995" on="0"/>
        <pt x="520" y="909" on="0"/>
        <pt x="628" y="855" on="0"/>
        <pt x="766" y="802" on="0"/>
        <pt x="909" y="758" on="0"/>
        <pt x="1047" y="690" on="0"/>
        <pt x="1155" y="609" on="0"/>
        <pt x="1221" y="479" on="0"/>
        <pt x="1221" y="397" on="1"/>
        <pt x="1221" y="340" on="0"/>
        <pt x="1185" y="227" on="0"/>
        <pt x="1101" y="116" on="0"/>
        <pt x="977" y="32" on="0"/>
        <pt x="788" y="-20" on="0"/>
        <pt x="556" y="-20" on="0"/>
        <pt x="361" y="28" on="0"/>
        <pt x="240" y="76" on="1"/>
        <pt x="298" y="241" on="1"/>
        <pt x="548" y="148" on="0"/>
        <pt x="693" y="148" on="1"/>
        <pt x="845" y="148" on="0"/>
        <pt x="1036" y="270" on="0"/>
        <pt x="1036" y="372" on="1"/>
        <pt x="1036" y="440" on="0"/>
        <pt x="951" y="539" on="0"/>
        <pt x="816" y="600" on="0"/>
        <pt x="652" y="653" on="0"/>
        <pt x="489" y="714" on="0"/>
        <pt x="354" y="794" on="0"/>
        <pt x="269" y="930" on="0"/>
        <pt x="269" y="1022" on="1"/>
        <pt x="269" y="1104" on="0"/>
        <pt x="348" y="1254" on="0"/>
        <pt x="488" y="1367" on="0"/>
        <pt x="698" y="1434" on="0"/>
      </contour>
    </TTGlyph>
    <TTGlyph name="Sacute" xMin="240" yMin="-20" xMax="1221" yMax="1976">
      <contour>
        <pt x="934" y="1976" on="1"/>
        <pt x="1004" y="1853" on="1"/>
        <pt x="492" y="1558" on="1"/>
        <pt x="430" y="1666" on="1"/>
      </contour>
      <contour>
        <pt x="821" y="1434" on="1"/>
        <pt x="985" y="1434" on="0"/>
        <pt x="1174" y="1377" on="1"/>
        <pt x="1119" y="1222" on="1"/>
        <pt x="939" y="1274" on="0"/>
        <pt x="807" y="1274" on="1"/>
        <pt x="659" y="1274" on="0"/>
        <pt x="454" y="1149" on="0"/>
        <pt x="454" y="1050" on="1"/>
        <pt x="454" y="995" on="0"/>
        <pt x="520" y="909" on="0"/>
        <pt x="628" y="855" on="0"/>
        <pt x="766" y="802" on="0"/>
        <pt x="909" y="758" on="0"/>
        <pt x="1047" y="690" on="0"/>
        <pt x="1155" y="609" on="0"/>
        <pt x="1221" y="479" on="0"/>
        <pt x="1221" y="397" on="1"/>
        <pt x="1221" y="340" on="0"/>
        <pt x="1185" y="227" on="0"/>
        <pt x="1101" y="116" on="0"/>
        <pt x="977" y="32" on="0"/>
        <pt x="788" y="-20" on="0"/>
        <pt x="556" y="-20" on="0"/>
        <pt x="361" y="28" on="0"/>
        <pt x="240" y="76" on="1"/>
        <pt x="298" y="241" on="1"/>
        <pt x="548" y="148" on="0"/>
        <pt x="693" y="148" on="1"/>
        <pt x="845" y="148" on="0"/>
        <pt x="1036" y="270" on="0"/>
        <pt x="1036" y="372" on="1"/>
        <pt x="1036" y="440" on="0"/>
        <pt x="951" y="539" on="0"/>
        <pt x="816" y="600" on="0"/>
        <pt x="652" y="653" on="0"/>
        <pt x="489" y="714" on="0"/>
        <pt x="354" y="794" on="0"/>
        <pt x="269" y="930" on="0"/>
        <pt x="269" y="1022" on="1"/>
        <pt x="269" y="1104" on="0"/>
        <pt x="348" y="1254" on="0"/>
        <pt x="488" y="1367" on="0"/>
        <pt x="698" y="1434" on="0"/>
      </contour>
    </TTGlyph>
    <TTGlyph name="Scaron" xMin="240" yMin="-20" xMax="1221" yMax="1932">
      <contour>
        <pt x="739" y="1558" on="1"/>
        <pt x="483" y="1844" on="1"/>
        <pt x="576" y="1932" on="1"/>
        <pt x="752" y="1736" on="1"/>
        <pt x="933" y="1931" on="1"/>
        <pt x="1021" y="1853" on="1"/>
      </contour>
      <contour>
        <pt x="821" y="1434" on="1"/>
        <pt x="985" y="1434" on="0"/>
        <pt x="1174" y="1377" on="1"/>
        <pt x="1119" y="1222" on="1"/>
        <pt x="939" y="1274" on="0"/>
        <pt x="807" y="1274" on="1"/>
        <pt x="659" y="1274" on="0"/>
        <pt x="454" y="1149" on="0"/>
        <pt x="454" y="1050" on="1"/>
        <pt x="454" y="995" on="0"/>
        <pt x="520" y="909" on="0"/>
        <pt x="628" y="855" on="0"/>
        <pt x="766" y="802" on="0"/>
        <pt x="909" y="758" on="0"/>
        <pt x="1047" y="690" on="0"/>
        <pt x="1155" y="609" on="0"/>
        <pt x="1221" y="479" on="0"/>
        <pt x="1221" y="397" on="1"/>
        <pt x="1221" y="340" on="0"/>
        <pt x="1185" y="227" on="0"/>
        <pt x="1101" y="116" on="0"/>
        <pt x="977" y="32" on="0"/>
        <pt x="788" y="-20" on="0"/>
        <pt x="556" y="-20" on="0"/>
        <pt x="361" y="28" on="0"/>
        <pt x="240" y="76" on="1"/>
        <pt x="298" y="241" on="1"/>
        <pt x="548" y="148" on="0"/>
        <pt x="693" y="148" on="1"/>
        <pt x="845" y="148" on="0"/>
        <pt x="1036" y="270" on="0"/>
        <pt x="1036" y="372" on="1"/>
        <pt x="1036" y="440" on="0"/>
        <pt x="951" y="539" on="0"/>
        <pt x="816" y="600" on="0"/>
        <pt x="652" y="653" on="0"/>
        <pt x="489" y="714" on="0"/>
        <pt x="354" y="794" on="0"/>
        <pt x="269" y="930" on="0"/>
        <pt x="269" y="1022" on="1"/>
        <pt x="269" y="1104" on="0"/>
        <pt x="348" y="1254" on="0"/>
        <pt x="488" y="1367" on="0"/>
        <pt x="698" y="1434" on="0"/>
      </contour>
    </TTGlyph>
    <TTGlyph name="Scedilla" xMin="240" yMin="-506" xMax="1221" yMax="1434">
      <contour>
        <pt x="947" y="-316" on="1"/>
        <pt x="947" y="-392" on="0"/>
        <pt x="829" y="-506" on="0"/>
        <pt x="735" y="-506" on="1"/>
        <pt x="698" y="-506" on="0"/>
        <pt x="624" y="-490" on="0"/>
        <pt x="498" y="-453" on="1"/>
        <pt x="528" y="-349" on="1"/>
        <pt x="692" y="-399" on="0"/>
        <pt x="742" y="-399" on="1"/>
        <pt x="785" y="-399" on="0"/>
        <pt x="834" y="-357" on="0"/>
        <pt x="834" y="-328" on="1"/>
        <pt x="834" y="-287" on="0"/>
        <pt x="764" y="-249" on="0"/>
        <pt x="658" y="-218" on="1"/>
        <pt x="621" y="-207" on="0"/>
        <pt x="600" y="-201" on="1"/>
        <pt x="649" y="-20" on="1"/>
        <pt x="542" y="-20" on="0"/>
        <pt x="361" y="28" on="0"/>
        <pt x="240" y="76" on="1"/>
        <pt x="298" y="241" on="1"/>
        <pt x="548" y="148" on="0"/>
        <pt x="693" y="148" on="1"/>
        <pt x="845" y="148" on="0"/>
        <pt x="1036" y="270" on="0"/>
        <pt x="1036" y="372" on="1"/>
        <pt x="1036" y="440" on="0"/>
        <pt x="951" y="539" on="0"/>
        <pt x="816" y="600" on="0"/>
        <pt x="652" y="653" on="0"/>
        <pt x="489" y="714" on="0"/>
        <pt x="354" y="794" on="0"/>
        <pt x="269" y="930" on="0"/>
        <pt x="269" y="1022" on="1"/>
        <pt x="269" y="1104" on="0"/>
        <pt x="348" y="1254" on="0"/>
        <pt x="488" y="1367" on="0"/>
        <pt x="698" y="1434" on="0"/>
        <pt x="821" y="1434" on="1"/>
        <pt x="985" y="1434" on="0"/>
        <pt x="1174" y="1377" on="1"/>
        <pt x="1119" y="1222" on="1"/>
        <pt x="939" y="1274" on="0"/>
        <pt x="807" y="1274" on="1"/>
        <pt x="659" y="1274" on="0"/>
        <pt x="454" y="1149" on="0"/>
        <pt x="454" y="1050" on="1"/>
        <pt x="454" y="995" on="0"/>
        <pt x="520" y="909" on="0"/>
        <pt x="628" y="855" on="0"/>
        <pt x="766" y="802" on="0"/>
        <pt x="909" y="758" on="0"/>
        <pt x="1047" y="690" on="0"/>
        <pt x="1155" y="609" on="0"/>
        <pt x="1221" y="479" on="0"/>
        <pt x="1221" y="397" on="1"/>
        <pt x="1221" y="333" on="0"/>
        <pt x="1173" y="207" on="0"/>
        <pt x="1077" y="90" on="0"/>
        <pt x="908" y="3" on="0"/>
        <pt x="798" y="-12" on="1"/>
        <pt x="767" y="-135" on="1"/>
        <pt x="778" y="-138" on="1"/>
        <pt x="789" y="-141" on="0"/>
        <pt x="807" y="-147" on="0"/>
        <pt x="838" y="-158" on="0"/>
        <pt x="863" y="-173" on="0"/>
        <pt x="894" y="-193" on="0"/>
        <pt x="916" y="-219" on="0"/>
        <pt x="936" y="-251" on="0"/>
        <pt x="947" y="-293" on="0"/>
      </contour>
    </TTGlyph>
    <TTGlyph name="Scircumflex" xMin="240" yMin="-20" xMax="1221" yMax="1932">
      <contour>
        <pt x="821" y="1434" on="1"/>
        <pt x="985" y="1434" on="0"/>
        <pt x="1174" y="1377" on="1"/>
        <pt x="1119" y="1222" on="1"/>
        <pt x="939" y="1274" on="0"/>
        <pt x="807" y="1274" on="1"/>
        <pt x="659" y="1274" on="0"/>
        <pt x="454" y="1149" on="0"/>
        <pt x="454" y="1050" on="1"/>
        <pt x="454" y="995" on="0"/>
        <pt x="520" y="909" on="0"/>
        <pt x="628" y="855" on="0"/>
        <pt x="766" y="802" on="0"/>
        <pt x="909" y="758" on="0"/>
        <pt x="1047" y="690" on="0"/>
        <pt x="1155" y="609" on="0"/>
        <pt x="1221" y="479" on="0"/>
        <pt x="1221" y="397" on="1"/>
        <pt x="1221" y="340" on="0"/>
        <pt x="1185" y="227" on="0"/>
        <pt x="1101" y="116" on="0"/>
        <pt x="977" y="32" on="0"/>
        <pt x="788" y="-20" on="0"/>
        <pt x="556" y="-20" on="0"/>
        <pt x="361" y="28" on="0"/>
        <pt x="240" y="76" on="1"/>
        <pt x="298" y="241" on="1"/>
        <pt x="548" y="148" on="0"/>
        <pt x="693" y="148" on="1"/>
        <pt x="845" y="148" on="0"/>
        <pt x="1036" y="270" on="0"/>
        <pt x="1036" y="372" on="1"/>
        <pt x="1036" y="440" on="0"/>
        <pt x="951" y="539" on="0"/>
        <pt x="816" y="600" on="0"/>
        <pt x="652" y="653" on="0"/>
        <pt x="489" y="714" on="0"/>
        <pt x="354" y="794" on="0"/>
        <pt x="269" y="930" on="0"/>
        <pt x="269" y="1022" on="1"/>
        <pt x="269" y="1104" on="0"/>
        <pt x="348" y="1254" on="0"/>
        <pt x="488" y="1367" on="0"/>
        <pt x="698" y="1434" on="0"/>
      </contour>
      <contour>
        <pt x="715" y="1932" on="1"/>
        <pt x="971" y="1646" on="1"/>
        <pt x="878" y="1558" on="1"/>
        <pt x="702" y="1754" on="1"/>
        <pt x="521" y="1559" on="1"/>
        <pt x="433" y="1637" on="1"/>
      </contour>
    </TTGlyph>
    <TTGlyph name="T" xMin="85" yMin="0" xMax="1205" yMax="1421">
      <contour>
        <pt x="85" y="1421" on="1"/>
        <pt x="1205" y="1421" on="1"/>
        <pt x="1205" y="1271" on="1"/>
        <pt x="730" y="1271" on="1"/>
        <pt x="730" y="0" on="1"/>
        <pt x="560" y="0" on="1"/>
        <pt x="560" y="1271" on="1"/>
        <pt x="85" y="1271" on="1"/>
      </contour>
    </TTGlyph>
    <TTGlyph name="Tbar" xMin="85" yMin="0" xMax="1205" yMax="1421">
      <contour>
        <pt x="85" y="1421" on="1"/>
        <pt x="1205" y="1421" on="1"/>
        <pt x="1205" y="1271" on="1"/>
        <pt x="730" y="1271" on="1"/>
        <pt x="730" y="753" on="1"/>
        <pt x="1087" y="753" on="1"/>
        <pt x="1087" y="603" on="1"/>
        <pt x="730" y="603" on="1"/>
        <pt x="730" y="0" on="1"/>
        <pt x="560" y="0" on="1"/>
        <pt x="560" y="603" on="1"/>
        <pt x="254" y="603" on="1"/>
        <pt x="254" y="753" on="1"/>
        <pt x="560" y="753" on="1"/>
        <pt x="560" y="1271" on="1"/>
        <pt x="85" y="1271" on="1"/>
      </contour>
    </TTGlyph>
    <TTGlyph name="Tcaron" xMin="85" yMin="0" xMax="1205" yMax="1932">
      <contour>
        <pt x="658" y="1558" on="1"/>
        <pt x="402" y="1844" on="1"/>
        <pt x="495" y="1932" on="1"/>
        <pt x="671" y="1736" on="1"/>
        <pt x="852" y="1931" on="1"/>
        <pt x="940" y="1853" on="1"/>
      </contour>
      <contour>
        <pt x="85" y="1421" on="1"/>
        <pt x="1205" y="1421" on="1"/>
        <pt x="1205" y="1271" on="1"/>
        <pt x="730" y="1271" on="1"/>
        <pt x="730" y="0" on="1"/>
        <pt x="560" y="0" on="1"/>
        <pt x="560" y="1271" on="1"/>
        <pt x="85" y="1271" on="1"/>
      </contour>
    </TTGlyph>
    <TTGlyph name="Tcommaaccent" xMin="85" yMin="-506" xMax="1205" yMax="1421">
      <contour>
        <pt x="647" y="-398" on="1"/>
        <pt x="698" y="-398" on="0"/>
        <pt x="738" y="-351" on="0"/>
        <pt x="738" y="-325" on="1"/>
        <pt x="738" y="-311" on="0"/>
        <pt x="725" y="-288" on="0"/>
        <pt x="696" y="-267" on="0"/>
        <pt x="668" y="-252" on="0"/>
        <pt x="618" y="-235" on="0"/>
        <pt x="582" y="-224" on="0"/>
        <pt x="520" y="-206" on="0"/>
        <pt x="503" y="-201" on="1"/>
        <pt x="510" y="-177" on="0"/>
        <pt x="535" y="-86" on="0"/>
        <pt x="540" y="-68" on="0"/>
        <pt x="554" y="-7" on="0"/>
        <pt x="555" y="10" on="0"/>
        <pt x="560" y="66" on="0"/>
        <pt x="560" y="110" on="0"/>
        <pt x="560" y="150" on="1"/>
        <pt x="560" y="1271" on="1"/>
        <pt x="85" y="1271" on="1"/>
        <pt x="85" y="1421" on="1"/>
        <pt x="1205" y="1421" on="1"/>
        <pt x="1205" y="1271" on="1"/>
        <pt x="730" y="1271" on="1"/>
        <pt x="730" y="160" on="1"/>
        <pt x="730" y="54" on="0"/>
        <pt x="716" y="-62" on="0"/>
        <pt x="692" y="-138" on="1"/>
        <pt x="850" y="-185" on="0"/>
        <pt x="850" y="-316" on="1"/>
        <pt x="850" y="-390" on="0"/>
        <pt x="734" y="-506" on="0"/>
        <pt x="636" y="-506" on="1"/>
        <pt x="616" y="-506" on="0"/>
        <pt x="578" y="-502" on="0"/>
        <pt x="524" y="-489" on="0"/>
        <pt x="498" y="-482" on="0"/>
        <pt x="414" y="-457" on="0"/>
        <pt x="400" y="-453" on="1"/>
        <pt x="431" y="-349" on="1"/>
        <pt x="594" y="-398" on="0"/>
      </contour>
    </TTGlyph>
    <TTGlyph name="Thorn" xMin="290" yMin="0" xMax="1236" yMax="1421">
      <contour>
        <pt x="682" y="1008" on="1"/>
        <pt x="566" y="1008" on="0"/>
        <pt x="460" y="998" on="1"/>
        <pt x="460" y="483" on="1"/>
        <pt x="570" y="474" on="0"/>
        <pt x="655" y="474" on="1"/>
        <pt x="683" y="474" on="1"/>
        <pt x="722" y="474" on="0"/>
        <pt x="776" y="476" on="0"/>
        <pt x="862" y="488" on="0"/>
        <pt x="922" y="508" on="0"/>
        <pt x="992" y="550" on="0"/>
        <pt x="1034" y="607" on="0"/>
        <pt x="1063" y="696" on="0"/>
        <pt x="1063" y="752" on="1"/>
        <pt x="1063" y="801" on="0"/>
        <pt x="1037" y="880" on="0"/>
        <pt x="996" y="932" on="0"/>
        <pt x="932" y="971" on="0"/>
        <pt x="869" y="992" on="0"/>
        <pt x="787" y="1005" on="0"/>
        <pt x="722" y="1008" on="0"/>
      </contour>
      <contour>
        <pt x="290" y="1421" on="1"/>
        <pt x="460" y="1421" on="1"/>
        <pt x="460" y="1147" on="1"/>
        <pt x="590" y="1160" on="0"/>
        <pt x="729" y="1160" on="1"/>
        <pt x="818" y="1160" on="0"/>
        <pt x="962" y="1140" on="0"/>
        <pt x="1094" y="1089" on="0"/>
        <pt x="1183" y="1008" on="0"/>
        <pt x="1236" y="877" on="0"/>
        <pt x="1236" y="791" on="1"/>
        <pt x="1236" y="742" on="0"/>
        <pt x="1221" y="646" on="0"/>
        <pt x="1181" y="539" on="0"/>
        <pt x="1119" y="451" on="0"/>
        <pt x="1017" y="377" on="0"/>
        <pt x="952" y="358" on="1"/>
        <pt x="842" y="326" on="0"/>
        <pt x="624" y="326" on="1"/>
        <pt x="542" y="326" on="0"/>
        <pt x="460" y="332" on="1"/>
        <pt x="460" y="0" on="1"/>
        <pt x="290" y="0" on="1"/>
      </contour>
    </TTGlyph>
    <TTGlyph name="U" xMin="290" yMin="-20" xMax="1372" yMax="1421">
      <contour>
        <pt x="290" y="1421" on="1"/>
        <pt x="460" y="1421" on="1"/>
        <pt x="460" y="500" on="1"/>
        <pt x="460" y="415" on="0"/>
        <pt x="489" y="293" on="0"/>
        <pt x="536" y="240" on="1"/>
        <pt x="636" y="127" on="0"/>
        <pt x="831" y="127" on="1"/>
        <pt x="972" y="127" on="0"/>
        <pt x="1161" y="250" on="0"/>
        <pt x="1189" y="362" on="1"/>
        <pt x="1202" y="415" on="0"/>
        <pt x="1202" y="500" on="1"/>
        <pt x="1202" y="1421" on="1"/>
        <pt x="1370" y="1421" on="1"/>
        <pt x="1370" y="1100" on="0"/>
        <pt x="1371" y="692" on="0"/>
        <pt x="1371" y="577" on="0"/>
        <pt x="1372" y="508" on="0"/>
        <pt x="1372" y="485" on="1"/>
        <pt x="1372" y="439" on="0"/>
        <pt x="1368" y="370" on="0"/>
        <pt x="1345" y="258" on="0"/>
        <pt x="1305" y="175" on="0"/>
        <pt x="1224" y="81" on="0"/>
        <pt x="1113" y="20" on="0"/>
        <pt x="940" y="-20" on="0"/>
        <pt x="831" y="-20" on="1"/>
        <pt x="714" y="-20" on="0"/>
        <pt x="528" y="29" on="0"/>
        <pt x="422" y="97" on="0"/>
        <pt x="345" y="193" on="0"/>
        <pt x="316" y="262" on="0"/>
        <pt x="307" y="300" on="1"/>
        <pt x="290" y="366" on="0"/>
        <pt x="290" y="487" on="1"/>
      </contour>
    </TTGlyph>
    <TTGlyph name="Uacute" xMin="290" yMin="-20" xMax="1370" yMax="1930">
      <contour>
        <pt x="290" y="1421" on="1"/>
        <pt x="460" y="1421" on="1"/>
        <pt x="460" y="500" on="1"/>
        <pt x="460" y="468" on="0"/>
        <pt x="463" y="415" on="0"/>
        <pt x="480" y="334" on="0"/>
        <pt x="508" y="271" on="0"/>
        <pt x="564" y="202" on="0"/>
        <pt x="640" y="157" on="0"/>
        <pt x="757" y="127" on="0"/>
        <pt x="830" y="127" on="1"/>
        <pt x="916" y="127" on="0"/>
        <pt x="1048" y="167" on="0"/>
        <pt x="1129" y="234" on="0"/>
        <pt x="1180" y="332" on="0"/>
        <pt x="1200" y="437" on="0"/>
        <pt x="1200" y="500" on="1"/>
        <pt x="1200" y="1421" on="1"/>
        <pt x="1370" y="1421" on="1"/>
        <pt x="1370" y="483" on="1"/>
        <pt x="1370" y="448" on="0"/>
        <pt x="1368" y="399" on="0"/>
        <pt x="1358" y="313" on="0"/>
        <pt x="1339" y="250" on="0"/>
        <pt x="1300" y="167" on="0"/>
        <pt x="1246" y="107" on="0"/>
        <pt x="1162" y="44" on="0"/>
        <pt x="1057" y="5" on="0"/>
        <pt x="910" y="-20" on="0"/>
        <pt x="823" y="-20" on="1"/>
        <pt x="714" y="-20" on="0"/>
        <pt x="541" y="22" on="0"/>
        <pt x="431" y="83" on="0"/>
        <pt x="352" y="180" on="0"/>
        <pt x="314" y="261" on="0"/>
        <pt x="293" y="376" on="0"/>
        <pt x="290" y="437" on="0"/>
        <pt x="290" y="483" on="1"/>
      </contour>
      <contour>
        <pt x="1064" y="1930" on="1"/>
        <pt x="1134" y="1807" on="1"/>
        <pt x="622" y="1511" on="1"/>
        <pt x="560" y="1620" on="1"/>
      </contour>
    </TTGlyph>
    <TTGlyph name="Ubreve" xMin="288" yMin="-20" xMax="1372" yMax="1882">
      <contour>
        <pt x="376" y="1816" on="1"/>
        <pt x="499" y="1882" on="1"/>
        <pt x="535" y="1807" on="0"/>
        <pt x="663" y="1695" on="0"/>
        <pt x="751" y="1695" on="1"/>
        <pt x="832" y="1695" on="0"/>
        <pt x="987" y="1804" on="0"/>
        <pt x="1046" y="1882" on="1"/>
        <pt x="1159" y="1805" on="1"/>
        <pt x="1079" y="1698" on="0"/>
        <pt x="854" y="1557" on="0"/>
        <pt x="735" y="1557" on="1"/>
        <pt x="604" y="1557" on="0"/>
        <pt x="415" y="1710" on="0"/>
      </contour>
      <contour>
        <pt x="290" y="1421" on="1"/>
        <pt x="460" y="1421" on="1"/>
        <pt x="460" y="500" on="1"/>
        <pt x="460" y="414" on="0"/>
        <pt x="488" y="293" on="0"/>
        <pt x="535" y="240" on="1"/>
        <pt x="635" y="127" on="0"/>
        <pt x="830" y="127" on="1"/>
        <pt x="971" y="127" on="0"/>
        <pt x="1160" y="250" on="0"/>
        <pt x="1188" y="362" on="1"/>
        <pt x="1200" y="411" on="0"/>
        <pt x="1200" y="500" on="1"/>
        <pt x="1200" y="1421" on="1"/>
        <pt x="1370" y="1421" on="1"/>
        <pt x="1370" y="620" on="1"/>
        <pt x="1370" y="598" on="0"/>
        <pt x="1372" y="508" on="0"/>
        <pt x="1372" y="485" on="1"/>
        <pt x="1372" y="450" on="0"/>
        <pt x="1370" y="398" on="0"/>
        <pt x="1358" y="313" on="0"/>
        <pt x="1339" y="248" on="0"/>
        <pt x="1299" y="167" on="0"/>
        <pt x="1246" y="106" on="0"/>
        <pt x="1163" y="44" on="0"/>
        <pt x="1059" y="5" on="0"/>
        <pt x="915" y="-20" on="0"/>
        <pt x="830" y="-20" on="1"/>
        <pt x="713" y="-20" on="0"/>
        <pt x="527" y="29" on="0"/>
        <pt x="421" y="97" on="0"/>
        <pt x="344" y="193" on="0"/>
        <pt x="315" y="262" on="0"/>
        <pt x="306" y="300" on="1"/>
        <pt x="288" y="372" on="0"/>
        <pt x="288" y="485" on="1"/>
        <pt x="288" y="508" on="0"/>
        <pt x="290" y="598" on="0"/>
        <pt x="290" y="620" on="1"/>
      </contour>
    </TTGlyph>
    <TTGlyph name="Ucircumflex" xMin="290" yMin="-20" xMax="1370" yMax="1924">
      <contour>
        <pt x="290" y="1421" on="1"/>
        <pt x="460" y="1421" on="1"/>
        <pt x="460" y="500" on="1"/>
        <pt x="460" y="468" on="0"/>
        <pt x="463" y="415" on="0"/>
        <pt x="480" y="334" on="0"/>
        <pt x="508" y="271" on="0"/>
        <pt x="564" y="202" on="0"/>
        <pt x="640" y="157" on="0"/>
        <pt x="757" y="127" on="0"/>
        <pt x="830" y="127" on="1"/>
        <pt x="916" y="127" on="0"/>
        <pt x="1048" y="167" on="0"/>
        <pt x="1129" y="234" on="0"/>
        <pt x="1180" y="332" on="0"/>
        <pt x="1200" y="437" on="0"/>
        <pt x="1200" y="500" on="1"/>
        <pt x="1200" y="1421" on="1"/>
        <pt x="1370" y="1421" on="1"/>
        <pt x="1370" y="483" on="1"/>
        <pt x="1370" y="448" on="0"/>
        <pt x="1368" y="399" on="0"/>
        <pt x="1358" y="313" on="0"/>
        <pt x="1339" y="250" on="0"/>
        <pt x="1300" y="167" on="0"/>
        <pt x="1246" y="107" on="0"/>
        <pt x="1162" y="44" on="0"/>
        <pt x="1057" y="5" on="0"/>
        <pt x="910" y="-20" on="0"/>
        <pt x="823" y="-20" on="1"/>
        <pt x="714" y="-20" on="0"/>
        <pt x="541" y="22" on="0"/>
        <pt x="431" y="83" on="0"/>
        <pt x="352" y="180" on="0"/>
        <pt x="314" y="261" on="0"/>
        <pt x="293" y="376" on="0"/>
        <pt x="290" y="437" on="0"/>
        <pt x="290" y="483" on="1"/>
      </contour>
      <contour>
        <pt x="844" y="1924" on="1"/>
        <pt x="1100" y="1638" on="1"/>
        <pt x="1006" y="1550" on="1"/>
        <pt x="831" y="1746" on="1"/>
        <pt x="650" y="1551" on="1"/>
        <pt x="562" y="1629" on="1"/>
      </contour>
    </TTGlyph>
    <TTGlyph name="Udieresis" xMin="290" yMin="-20" xMax="1370" yMax="1898">
      <contour>
        <pt x="290" y="1421" on="1"/>
        <pt x="460" y="1421" on="1"/>
        <pt x="460" y="500" on="1"/>
        <pt x="460" y="468" on="0"/>
        <pt x="463" y="415" on="0"/>
        <pt x="480" y="334" on="0"/>
        <pt x="508" y="271" on="0"/>
        <pt x="564" y="202" on="0"/>
        <pt x="640" y="157" on="0"/>
        <pt x="757" y="127" on="0"/>
        <pt x="830" y="127" on="1"/>
        <pt x="916" y="127" on="0"/>
        <pt x="1048" y="167" on="0"/>
        <pt x="1129" y="234" on="0"/>
        <pt x="1180" y="332" on="0"/>
        <pt x="1200" y="437" on="0"/>
        <pt x="1200" y="500" on="1"/>
        <pt x="1200" y="1421" on="1"/>
        <pt x="1370" y="1421" on="1"/>
        <pt x="1370" y="483" on="1"/>
        <pt x="1370" y="448" on="0"/>
        <pt x="1368" y="399" on="0"/>
        <pt x="1358" y="313" on="0"/>
        <pt x="1339" y="250" on="0"/>
        <pt x="1300" y="167" on="0"/>
        <pt x="1246" y="107" on="0"/>
        <pt x="1162" y="44" on="0"/>
        <pt x="1057" y="5" on="0"/>
        <pt x="910" y="-20" on="0"/>
        <pt x="823" y="-20" on="1"/>
        <pt x="714" y="-20" on="0"/>
        <pt x="541" y="22" on="0"/>
        <pt x="431" y="83" on="0"/>
        <pt x="352" y="180" on="0"/>
        <pt x="314" y="261" on="0"/>
        <pt x="293" y="376" on="0"/>
        <pt x="290" y="437" on="0"/>
        <pt x="290" y="483" on="1"/>
      </contour>
      <contour>
        <pt x="513" y="1898" on="1"/>
        <pt x="698" y="1898" on="1"/>
        <pt x="698" y="1713" on="1"/>
        <pt x="513" y="1713" on="1"/>
      </contour>
      <contour>
        <pt x="962" y="1898" on="1"/>
        <pt x="1147" y="1898" on="1"/>
        <pt x="1147" y="1713" on="1"/>
        <pt x="962" y="1713" on="1"/>
      </contour>
    </TTGlyph>
    <TTGlyph name="Ugrave" xMin="290" yMin="-20" xMax="1370" yMax="1927">
      <contour>
        <pt x="290" y="1421" on="1"/>
        <pt x="460" y="1421" on="1"/>
        <pt x="460" y="500" on="1"/>
        <pt x="460" y="468" on="0"/>
        <pt x="463" y="415" on="0"/>
        <pt x="480" y="334" on="0"/>
        <pt x="508" y="271" on="0"/>
        <pt x="564" y="202" on="0"/>
        <pt x="640" y="157" on="0"/>
        <pt x="757" y="127" on="0"/>
        <pt x="830" y="127" on="1"/>
        <pt x="916" y="127" on="0"/>
        <pt x="1048" y="167" on="0"/>
        <pt x="1129" y="234" on="0"/>
        <pt x="1180" y="332" on="0"/>
        <pt x="1200" y="437" on="0"/>
        <pt x="1200" y="500" on="1"/>
        <pt x="1200" y="1421" on="1"/>
        <pt x="1370" y="1421" on="1"/>
        <pt x="1370" y="483" on="1"/>
        <pt x="1370" y="448" on="0"/>
        <pt x="1368" y="399" on="0"/>
        <pt x="1358" y="313" on="0"/>
        <pt x="1339" y="250" on="0"/>
        <pt x="1300" y="167" on="0"/>
        <pt x="1246" y="107" on="0"/>
        <pt x="1162" y="44" on="0"/>
        <pt x="1057" y="5" on="0"/>
        <pt x="910" y="-20" on="0"/>
        <pt x="823" y="-20" on="1"/>
        <pt x="714" y="-20" on="0"/>
        <pt x="541" y="22" on="0"/>
        <pt x="431" y="83" on="0"/>
        <pt x="352" y="180" on="0"/>
        <pt x="314" y="261" on="0"/>
        <pt x="293" y="376" on="0"/>
        <pt x="290" y="437" on="0"/>
        <pt x="290" y="483" on="1"/>
      </contour>
      <contour>
        <pt x="624" y="1927" on="1"/>
        <pt x="1128" y="1617" on="1"/>
        <pt x="1065" y="1511" on="1"/>
        <pt x="553" y="1804" on="1"/>
      </contour>
    </TTGlyph>
    <TTGlyph name="Uhungarumlaut" xMin="288" yMin="-20" xMax="1468" yMax="1984">
      <contour>
        <pt x="290" y="1421" on="1"/>
        <pt x="460" y="1421" on="1"/>
        <pt x="460" y="500" on="1"/>
        <pt x="460" y="414" on="0"/>
        <pt x="488" y="293" on="0"/>
        <pt x="535" y="240" on="1"/>
        <pt x="635" y="127" on="0"/>
        <pt x="830" y="127" on="1"/>
        <pt x="971" y="127" on="0"/>
        <pt x="1160" y="250" on="0"/>
        <pt x="1188" y="362" on="1"/>
        <pt x="1200" y="411" on="0"/>
        <pt x="1200" y="500" on="1"/>
        <pt x="1200" y="1421" on="1"/>
        <pt x="1370" y="1421" on="1"/>
        <pt x="1370" y="620" on="1"/>
        <pt x="1370" y="598" on="0"/>
        <pt x="1372" y="508" on="0"/>
        <pt x="1372" y="485" on="1"/>
        <pt x="1372" y="450" on="0"/>
        <pt x="1370" y="398" on="0"/>
        <pt x="1358" y="313" on="0"/>
        <pt x="1339" y="248" on="0"/>
        <pt x="1299" y="167" on="0"/>
        <pt x="1246" y="106" on="0"/>
        <pt x="1163" y="44" on="0"/>
        <pt x="1059" y="5" on="0"/>
        <pt x="915" y="-20" on="0"/>
        <pt x="830" y="-20" on="1"/>
        <pt x="713" y="-20" on="0"/>
        <pt x="527" y="29" on="0"/>
        <pt x="421" y="97" on="0"/>
        <pt x="344" y="193" on="0"/>
        <pt x="315" y="262" on="0"/>
        <pt x="306" y="300" on="1"/>
        <pt x="288" y="372" on="0"/>
        <pt x="288" y="485" on="1"/>
        <pt x="288" y="508" on="0"/>
        <pt x="290" y="598" on="0"/>
        <pt x="290" y="620" on="1"/>
      </contour>
      <contour>
        <pt x="868" y="1984" on="1"/>
        <pt x="948" y="1868" on="1"/>
        <pt x="464" y="1529" on="1"/>
        <pt x="393" y="1631" on="1"/>
      </contour>
      <contour>
        <pt x="1388" y="1984" on="1"/>
        <pt x="1468" y="1868" on="1"/>
        <pt x="984" y="1529" on="1"/>
        <pt x="913" y="1631" on="1"/>
      </contour>
    </TTGlyph>
    <TTGlyph name="Umacron" xMin="288" yMin="-20" xMax="1372" yMax="1697">
      <contour>
        <pt x="290" y="1421" on="1"/>
        <pt x="460" y="1421" on="1"/>
        <pt x="460" y="500" on="1"/>
        <pt x="460" y="414" on="0"/>
        <pt x="488" y="293" on="0"/>
        <pt x="535" y="240" on="1"/>
        <pt x="635" y="127" on="0"/>
        <pt x="830" y="127" on="1"/>
        <pt x="971" y="127" on="0"/>
        <pt x="1160" y="250" on="0"/>
        <pt x="1188" y="362" on="1"/>
        <pt x="1200" y="411" on="0"/>
        <pt x="1200" y="500" on="1"/>
        <pt x="1200" y="1421" on="1"/>
        <pt x="1370" y="1421" on="1"/>
        <pt x="1370" y="620" on="1"/>
        <pt x="1370" y="598" on="0"/>
        <pt x="1372" y="508" on="0"/>
        <pt x="1372" y="485" on="1"/>
        <pt x="1372" y="450" on="0"/>
        <pt x="1370" y="398" on="0"/>
        <pt x="1358" y="313" on="0"/>
        <pt x="1339" y="248" on="0"/>
        <pt x="1299" y="167" on="0"/>
        <pt x="1246" y="106" on="0"/>
        <pt x="1163" y="44" on="0"/>
        <pt x="1059" y="5" on="0"/>
        <pt x="915" y="-20" on="0"/>
        <pt x="830" y="-20" on="1"/>
        <pt x="713" y="-20" on="0"/>
        <pt x="527" y="29" on="0"/>
        <pt x="421" y="97" on="0"/>
        <pt x="344" y="193" on="0"/>
        <pt x="315" y="262" on="0"/>
        <pt x="306" y="300" on="1"/>
        <pt x="288" y="370" on="0"/>
        <pt x="288" y="487" on="1"/>
        <pt x="288" y="514" on="0"/>
        <pt x="290" y="604" on="0"/>
        <pt x="290" y="620" on="1"/>
      </contour>
      <contour>
        <pt x="395" y="1697" on="1"/>
        <pt x="1225" y="1697" on="1"/>
        <pt x="1225" y="1568" on="1"/>
        <pt x="395" y="1568" on="1"/>
      </contour>
    </TTGlyph>
    <TTGlyph name="Uogonek" xMin="288" yMin="-545" xMax="1371" yMax="1421">
      <contour>
        <pt x="288" y="485" on="1"/>
        <pt x="288" y="508" on="0"/>
        <pt x="290" y="598" on="0"/>
        <pt x="290" y="620" on="1"/>
        <pt x="290" y="1421" on="1"/>
        <pt x="460" y="1421" on="1"/>
        <pt x="460" y="500" on="1"/>
        <pt x="460" y="414" on="0"/>
        <pt x="488" y="293" on="0"/>
        <pt x="535" y="240" on="1"/>
        <pt x="635" y="127" on="0"/>
        <pt x="830" y="127" on="1"/>
        <pt x="971" y="127" on="0"/>
        <pt x="1160" y="250" on="0"/>
        <pt x="1188" y="362" on="1"/>
        <pt x="1200" y="411" on="0"/>
        <pt x="1200" y="500" on="1"/>
        <pt x="1200" y="1421" on="1"/>
        <pt x="1370" y="1421" on="1"/>
        <pt x="1370" y="620" on="1"/>
        <pt x="1370" y="599" on="0"/>
        <pt x="1371" y="515" on="0"/>
        <pt x="1371" y="494" on="1"/>
        <pt x="1371" y="415" on="0"/>
        <pt x="1357" y="295" on="0"/>
        <pt x="1321" y="202" on="0"/>
        <pt x="1280" y="136" on="0"/>
        <pt x="1207" y="79" on="0"/>
        <pt x="1137" y="38" on="0"/>
        <pt x="1082" y="12" on="1"/>
        <pt x="1017" y="-19" on="0"/>
        <pt x="914" y="-93" on="0"/>
        <pt x="855" y="-161" on="0"/>
        <pt x="816" y="-230" on="0"/>
        <pt x="802" y="-281" on="0"/>
        <pt x="802" y="-302" on="1"/>
        <pt x="802" y="-351" on="0"/>
        <pt x="862" y="-412" on="0"/>
        <pt x="910" y="-412" on="1"/>
        <pt x="980" y="-412" on="0"/>
        <pt x="1071" y="-351" on="1"/>
        <pt x="1120" y="-443" on="1"/>
        <pt x="987" y="-545" on="0"/>
        <pt x="858" y="-545" on="1"/>
        <pt x="768" y="-545" on="0"/>
        <pt x="658" y="-432" on="0"/>
        <pt x="658" y="-246" on="0"/>
        <pt x="753" y="-76" on="0"/>
        <pt x="821" y="-20" on="1"/>
        <pt x="714" y="-20" on="0"/>
        <pt x="544" y="21" on="0"/>
        <pt x="434" y="83" on="0"/>
        <pt x="355" y="179" on="0"/>
        <pt x="315" y="263" on="0"/>
        <pt x="292" y="374" on="0"/>
        <pt x="288" y="441" on="0"/>
      </contour>
    </TTGlyph>
    <TTGlyph name="Uring" xMin="288" yMin="-20" xMax="1372" yMax="2007">
      <contour>
        <pt x="720" y="2007" on="0"/>
        <pt x="900" y="2007" on="0"/>
        <pt x="1030" y="1876" on="0"/>
        <pt x="1030" y="1690" on="0"/>
        <pt x="900" y="1558" on="0"/>
        <pt x="720" y="1558" on="0"/>
        <pt x="590" y="1689" on="0"/>
        <pt x="590" y="1783" on="1"/>
        <pt x="590" y="1876" on="0"/>
      </contour>
      <contour>
        <pt x="810" y="1916" on="1"/>
        <pt x="755" y="1916" on="0"/>
        <pt x="680" y="1837" on="0"/>
        <pt x="680" y="1729" on="0"/>
        <pt x="753" y="1649" on="0"/>
        <pt x="810" y="1649" on="1"/>
        <pt x="864" y="1649" on="0"/>
        <pt x="938" y="1730" on="0"/>
        <pt x="938" y="1836" on="0"/>
        <pt x="864" y="1916" on="0"/>
      </contour>
      <contour>
        <pt x="290" y="1421" on="1"/>
        <pt x="460" y="1421" on="1"/>
        <pt x="460" y="500" on="1"/>
        <pt x="460" y="414" on="0"/>
        <pt x="488" y="293" on="0"/>
        <pt x="535" y="240" on="1"/>
        <pt x="635" y="127" on="0"/>
        <pt x="830" y="127" on="1"/>
        <pt x="971" y="127" on="0"/>
        <pt x="1160" y="250" on="0"/>
        <pt x="1188" y="362" on="1"/>
        <pt x="1200" y="411" on="0"/>
        <pt x="1200" y="500" on="1"/>
        <pt x="1200" y="1421" on="1"/>
        <pt x="1370" y="1421" on="1"/>
        <pt x="1370" y="620" on="1"/>
        <pt x="1370" y="598" on="0"/>
        <pt x="1372" y="508" on="0"/>
        <pt x="1372" y="485" on="1"/>
        <pt x="1372" y="450" on="0"/>
        <pt x="1370" y="398" on="0"/>
        <pt x="1358" y="313" on="0"/>
        <pt x="1339" y="248" on="0"/>
        <pt x="1299" y="167" on="0"/>
        <pt x="1246" y="106" on="0"/>
        <pt x="1163" y="44" on="0"/>
        <pt x="1059" y="5" on="0"/>
        <pt x="915" y="-20" on="0"/>
        <pt x="830" y="-20" on="1"/>
        <pt x="713" y="-20" on="0"/>
        <pt x="527" y="29" on="0"/>
        <pt x="421" y="97" on="0"/>
        <pt x="344" y="193" on="0"/>
        <pt x="315" y="262" on="0"/>
        <pt x="306" y="300" on="1"/>
        <pt x="288" y="372" on="0"/>
        <pt x="288" y="485" on="1"/>
        <pt x="288" y="508" on="0"/>
        <pt x="290" y="598" on="0"/>
        <pt x="290" y="620" on="1"/>
      </contour>
    </TTGlyph>
    <TTGlyph name="Utilde" xMin="288" yMin="-20" xMax="1372" yMax="1864">
      <contour>
        <pt x="290" y="1421" on="1"/>
        <pt x="460" y="1421" on="1"/>
        <pt x="460" y="500" on="1"/>
        <pt x="460" y="414" on="0"/>
        <pt x="488" y="293" on="0"/>
        <pt x="535" y="240" on="1"/>
        <pt x="635" y="127" on="0"/>
        <pt x="830" y="127" on="1"/>
        <pt x="971" y="127" on="0"/>
        <pt x="1160" y="250" on="0"/>
        <pt x="1188" y="362" on="1"/>
        <pt x="1200" y="411" on="0"/>
        <pt x="1200" y="500" on="1"/>
        <pt x="1200" y="1421" on="1"/>
        <pt x="1370" y="1421" on="1"/>
        <pt x="1370" y="620" on="1"/>
        <pt x="1370" y="598" on="0"/>
        <pt x="1372" y="508" on="0"/>
        <pt x="1372" y="485" on="1"/>
        <pt x="1372" y="450" on="0"/>
        <pt x="1370" y="398" on="0"/>
        <pt x="1358" y="313" on="0"/>
        <pt x="1339" y="248" on="0"/>
        <pt x="1299" y="167" on="0"/>
        <pt x="1246" y="106" on="0"/>
        <pt x="1163" y="44" on="0"/>
        <pt x="1059" y="5" on="0"/>
        <pt x="915" y="-20" on="0"/>
        <pt x="830" y="-20" on="1"/>
        <pt x="713" y="-20" on="0"/>
        <pt x="527" y="29" on="0"/>
        <pt x="421" y="97" on="0"/>
        <pt x="344" y="193" on="0"/>
        <pt x="315" y="262" on="0"/>
        <pt x="306" y="300" on="1"/>
        <pt x="288" y="370" on="0"/>
        <pt x="288" y="487" on="1"/>
        <pt x="288" y="514" on="0"/>
        <pt x="290" y="604" on="0"/>
        <pt x="290" y="620" on="1"/>
      </contour>
      <contour>
        <pt x="970" y="1682" on="1"/>
        <pt x="987" y="1682" on="0"/>
        <pt x="1018" y="1697" on="0"/>
        <pt x="1039" y="1716" on="0"/>
        <pt x="1066" y="1759" on="0"/>
        <pt x="1080" y="1786" on="0"/>
        <pt x="1111" y="1849" on="0"/>
        <pt x="1119" y="1864" on="1"/>
        <pt x="1224" y="1817" on="1"/>
        <pt x="1220" y="1809" on="0"/>
        <pt x="1197" y="1760" on="0"/>
        <pt x="1186" y="1738" on="0"/>
        <pt x="1161" y="1692" on="0"/>
        <pt x="1145" y="1668" on="0"/>
        <pt x="1118" y="1630" on="0"/>
        <pt x="1095" y="1609" on="0"/>
        <pt x="1062" y="1583" on="0"/>
        <pt x="1031" y="1569" on="0"/>
        <pt x="991" y="1560" on="0"/>
        <pt x="970" y="1560" on="1"/>
        <pt x="926" y="1560" on="0"/>
        <pt x="845" y="1597" on="0"/>
        <pt x="785" y="1650" on="0"/>
        <pt x="730" y="1703" on="0"/>
        <pt x="675" y="1740" on="0"/>
        <pt x="650" y="1740" on="1"/>
        <pt x="635" y="1740" on="0"/>
        <pt x="609" y="1731" on="0"/>
        <pt x="586" y="1709" on="0"/>
        <pt x="569" y="1690" on="0"/>
        <pt x="546" y="1650" on="0"/>
        <pt x="533" y="1625" on="0"/>
        <pt x="508" y="1572" on="0"/>
        <pt x="501" y="1558" on="1"/>
        <pt x="396" y="1605" on="1"/>
        <pt x="400" y="1613" on="0"/>
        <pt x="423" y="1662" on="0"/>
        <pt x="434" y="1684" on="0"/>
        <pt x="459" y="1730" on="0"/>
        <pt x="475" y="1754" on="0"/>
        <pt x="502" y="1792" on="0"/>
        <pt x="525" y="1813" on="0"/>
        <pt x="558" y="1839" on="0"/>
        <pt x="589" y="1853" on="0"/>
        <pt x="629" y="1862" on="0"/>
        <pt x="650" y="1862" on="1"/>
        <pt x="694" y="1862" on="0"/>
        <pt x="775" y="1825" on="0"/>
        <pt x="835" y="1772" on="0"/>
        <pt x="890" y="1719" on="0"/>
        <pt x="945" y="1682" on="0"/>
      </contour>
    </TTGlyph>
    <TTGlyph name="V" xMin="140" yMin="0" xMax="1341" yMax="1421">
      <contour>
        <pt x="140" y="1421" on="1"/>
        <pt x="342" y="1421" on="1"/>
        <pt x="748" y="180" on="1"/>
        <pt x="1154" y="1421" on="1"/>
        <pt x="1341" y="1421" on="1"/>
        <pt x="846" y="0" on="1"/>
        <pt x="635" y="0" on="1"/>
      </contour>
    </TTGlyph>
    <TTGlyph name="W" xMin="140" yMin="0" xMax="2105" yMax="1421">
      <contour>
        <pt x="140" y="1421" on="1"/>
        <pt x="320" y="1421" on="1"/>
        <pt x="677" y="227" on="1"/>
        <pt x="1037" y="1421" on="1"/>
        <pt x="1208" y="1421" on="1"/>
        <pt x="1578" y="227" on="1"/>
        <pt x="1925" y="1421" on="1"/>
        <pt x="2105" y="1421" on="1"/>
        <pt x="1667" y="0" on="1"/>
        <pt x="1486" y="0" on="1"/>
        <pt x="1113" y="1187" on="1"/>
        <pt x="764" y="0" on="1"/>
        <pt x="583" y="0" on="1"/>
      </contour>
    </TTGlyph>
    <TTGlyph name="Wacute" xMin="140" yMin="0" xMax="2095" yMax="1928">
      <contour>
        <pt x="140" y="1421" on="1"/>
        <pt x="322" y="1421" on="1"/>
        <pt x="679" y="227" on="1"/>
        <pt x="1039" y="1421" on="1"/>
        <pt x="1210" y="1421" on="1"/>
        <pt x="1580" y="227" on="1"/>
        <pt x="1927" y="1421" on="1"/>
        <pt x="2095" y="1421" on="1"/>
        <pt x="1669" y="0" on="1"/>
        <pt x="1488" y="0" on="1"/>
        <pt x="1115" y="1187" on="1"/>
        <pt x="766" y="0" on="1"/>
        <pt x="585" y="0" on="1"/>
      </contour>
      <contour>
        <pt x="1320" y="1928" on="1"/>
        <pt x="1390" y="1805" on="1"/>
        <pt x="878" y="1511" on="1"/>
        <pt x="816" y="1618" on="1"/>
      </contour>
    </TTGlyph>
    <TTGlyph name="Wcircumflex" xMin="140" yMin="0" xMax="2095" yMax="1936">
      <contour>
        <pt x="140" y="1421" on="1"/>
        <pt x="322" y="1421" on="1"/>
        <pt x="679" y="227" on="1"/>
        <pt x="1039" y="1421" on="1"/>
        <pt x="1210" y="1421" on="1"/>
        <pt x="1580" y="227" on="1"/>
        <pt x="1927" y="1421" on="1"/>
        <pt x="2095" y="1421" on="1"/>
        <pt x="1669" y="0" on="1"/>
        <pt x="1488" y="0" on="1"/>
        <pt x="1115" y="1187" on="1"/>
        <pt x="766" y="0" on="1"/>
        <pt x="585" y="0" on="1"/>
      </contour>
      <contour>
        <pt x="1130" y="1936" on="1"/>
        <pt x="1386" y="1650" on="1"/>
        <pt x="1294" y="1562" on="1"/>
        <pt x="1118" y="1758" on="1"/>
        <pt x="936" y="1563" on="1"/>
        <pt x="848" y="1641" on="1"/>
      </contour>
    </TTGlyph>
    <TTGlyph name="Wdieresis" xMin="140" yMin="0" xMax="2095" yMax="1898">
      <contour>
        <pt x="140" y="1421" on="1"/>
        <pt x="322" y="1421" on="1"/>
        <pt x="679" y="227" on="1"/>
        <pt x="1039" y="1421" on="1"/>
        <pt x="1210" y="1421" on="1"/>
        <pt x="1580" y="227" on="1"/>
        <pt x="1927" y="1421" on="1"/>
        <pt x="2095" y="1421" on="1"/>
        <pt x="1669" y="0" on="1"/>
        <pt x="1488" y="0" on="1"/>
        <pt x="1115" y="1187" on="1"/>
        <pt x="766" y="0" on="1"/>
        <pt x="585" y="0" on="1"/>
      </contour>
      <contour>
        <pt x="800" y="1898" on="1"/>
        <pt x="985" y="1898" on="1"/>
        <pt x="985" y="1713" on="1"/>
        <pt x="800" y="1713" on="1"/>
      </contour>
      <contour>
        <pt x="1250" y="1898" on="1"/>
        <pt x="1435" y="1898" on="1"/>
        <pt x="1435" y="1713" on="1"/>
        <pt x="1250" y="1713" on="1"/>
      </contour>
    </TTGlyph>
    <TTGlyph name="Wgrave" xMin="140" yMin="0" xMax="2095" yMax="1928">
      <contour>
        <pt x="140" y="1421" on="1"/>
        <pt x="322" y="1421" on="1"/>
        <pt x="679" y="227" on="1"/>
        <pt x="1039" y="1421" on="1"/>
        <pt x="1210" y="1421" on="1"/>
        <pt x="1580" y="227" on="1"/>
        <pt x="1927" y="1421" on="1"/>
        <pt x="2095" y="1421" on="1"/>
        <pt x="1669" y="0" on="1"/>
        <pt x="1488" y="0" on="1"/>
        <pt x="1115" y="1187" on="1"/>
        <pt x="766" y="0" on="1"/>
        <pt x="585" y="0" on="1"/>
      </contour>
      <contour>
        <pt x="966" y="1928" on="1"/>
        <pt x="1470" y="1618" on="1"/>
        <pt x="1408" y="1511" on="1"/>
        <pt x="896" y="1805" on="1"/>
      </contour>
    </TTGlyph>
    <TTGlyph name="X" xMin="110" yMin="0" xMax="1338" yMax="1421">
      <contour>
        <pt x="1087" y="1421" on="1"/>
        <pt x="1283" y="1421" on="1"/>
        <pt x="833" y="746" on="1"/>
        <pt x="1338" y="0" on="1"/>
        <pt x="1118" y="0" on="1"/>
        <pt x="719" y="599" on="1"/>
        <pt x="320" y="0" on="1"/>
        <pt x="110" y="0" on="1"/>
        <pt x="623" y="742" on="1"/>
        <pt x="170" y="1421" on="1"/>
        <pt x="376" y="1421" on="1"/>
        <pt x="738" y="886" on="1"/>
      </contour>
    </TTGlyph>
    <TTGlyph name="Y" xMin="100" yMin="0" xMax="1223" yMax="1421">
      <contour>
        <pt x="100" y="1421" on="1"/>
        <pt x="301" y="1421" on="1"/>
        <pt x="663" y="834" on="1"/>
        <pt x="1033" y="1421" on="1"/>
        <pt x="1223" y="1421" on="1"/>
        <pt x="739" y="673" on="1"/>
        <pt x="739" y="0" on="1"/>
        <pt x="569" y="0" on="1"/>
        <pt x="569" y="673" on="1"/>
      </contour>
    </TTGlyph>
    <TTGlyph name="Yacute" xMin="100" yMin="0" xMax="1223" yMax="1930">
      <contour>
        <pt x="100" y="1421" on="1"/>
        <pt x="301" y="1421" on="1"/>
        <pt x="663" y="834" on="1"/>
        <pt x="1033" y="1421" on="1"/>
        <pt x="1223" y="1421" on="1"/>
        <pt x="739" y="673" on="1"/>
        <pt x="739" y="0" on="1"/>
        <pt x="569" y="0" on="1"/>
        <pt x="569" y="673" on="1"/>
      </contour>
      <contour>
        <pt x="871" y="1930" on="1"/>
        <pt x="941" y="1807" on="1"/>
        <pt x="429" y="1511" on="1"/>
        <pt x="367" y="1620" on="1"/>
      </contour>
    </TTGlyph>
    <TTGlyph name="Ycircumflex" xMin="100" yMin="0" xMax="1223" yMax="1932">
      <contour>
        <pt x="100" y="1421" on="1"/>
        <pt x="301" y="1421" on="1"/>
        <pt x="663" y="834" on="1"/>
        <pt x="1033" y="1421" on="1"/>
        <pt x="1223" y="1421" on="1"/>
        <pt x="739" y="673" on="1"/>
        <pt x="739" y="0" on="1"/>
        <pt x="569" y="0" on="1"/>
        <pt x="569" y="673" on="1"/>
      </contour>
      <contour>
        <pt x="678" y="1932" on="1"/>
        <pt x="934" y="1646" on="1"/>
        <pt x="842" y="1558" on="1"/>
        <pt x="666" y="1754" on="1"/>
        <pt x="484" y="1559" on="1"/>
        <pt x="396" y="1637" on="1"/>
      </contour>
    </TTGlyph>
    <TTGlyph name="Ydieresis" xMin="100" yMin="0" xMax="1223" yMax="1898">
      <contour>
        <pt x="100" y="1421" on="1"/>
        <pt x="301" y="1421" on="1"/>
        <pt x="663" y="834" on="1"/>
        <pt x="1033" y="1421" on="1"/>
        <pt x="1223" y="1421" on="1"/>
        <pt x="739" y="673" on="1"/>
        <pt x="739" y="0" on="1"/>
        <pt x="569" y="0" on="1"/>
        <pt x="569" y="673" on="1"/>
      </contour>
      <contour>
        <pt x="793" y="1898" on="1"/>
        <pt x="978" y="1898" on="1"/>
        <pt x="978" y="1713" on="1"/>
        <pt x="793" y="1713" on="1"/>
      </contour>
      <contour>
        <pt x="343" y="1898" on="1"/>
        <pt x="528" y="1898" on="1"/>
        <pt x="528" y="1713" on="1"/>
        <pt x="343" y="1713" on="1"/>
      </contour>
    </TTGlyph>
    <TTGlyph name="Ygrave" xMin="100" yMin="0" xMax="1223" yMax="1928">
      <contour>
        <pt x="100" y="1421" on="1"/>
        <pt x="301" y="1421" on="1"/>
        <pt x="663" y="834" on="1"/>
        <pt x="1033" y="1421" on="1"/>
        <pt x="1223" y="1421" on="1"/>
        <pt x="739" y="673" on="1"/>
        <pt x="739" y="0" on="1"/>
        <pt x="569" y="0" on="1"/>
        <pt x="569" y="673" on="1"/>
      </contour>
      <contour>
        <pt x="460" y="1928" on="1"/>
        <pt x="964" y="1618" on="1"/>
        <pt x="902" y="1511" on="1"/>
        <pt x="390" y="1805" on="1"/>
      </contour>
    </TTGlyph>
    <TTGlyph name="Z" xMin="155" yMin="0" xMax="1298" yMax="1421">
      <contour>
        <pt x="185" y="1421" on="1"/>
        <pt x="1271" y="1421" on="1"/>
        <pt x="1271" y="1312" on="1"/>
        <pt x="381" y="150" on="1"/>
        <pt x="1298" y="150" on="1"/>
        <pt x="1298" y="0" on="1"/>
        <pt x="155" y="0" on="1"/>
        <pt x="155" y="111" on="1"/>
        <pt x="1028" y="1271" on="1"/>
        <pt x="185" y="1271" on="1"/>
      </contour>
    </TTGlyph>
    <TTGlyph name="Zacute" xMin="155" yMin="0" xMax="1298" yMax="1976">
      <contour>
        <pt x="185" y="1421" on="1"/>
        <pt x="1271" y="1421" on="1"/>
        <pt x="1271" y="1312" on="1"/>
        <pt x="381" y="150" on="1"/>
        <pt x="1298" y="150" on="1"/>
        <pt x="1298" y="0" on="1"/>
        <pt x="155" y="0" on="1"/>
        <pt x="155" y="111" on="1"/>
        <pt x="1028" y="1271" on="1"/>
        <pt x="185" y="1271" on="1"/>
      </contour>
      <contour>
        <pt x="961" y="1976" on="1"/>
        <pt x="1031" y="1853" on="1"/>
        <pt x="519" y="1558" on="1"/>
        <pt x="457" y="1666" on="1"/>
      </contour>
    </TTGlyph>
    <TTGlyph name="Zcaron" xMin="155" yMin="0" xMax="1298" yMax="1932">
      <contour>
        <pt x="185" y="1421" on="1"/>
        <pt x="1271" y="1421" on="1"/>
        <pt x="1271" y="1312" on="1"/>
        <pt x="381" y="150" on="1"/>
        <pt x="1298" y="150" on="1"/>
        <pt x="1298" y="0" on="1"/>
        <pt x="155" y="0" on="1"/>
        <pt x="155" y="111" on="1"/>
        <pt x="1028" y="1271" on="1"/>
        <pt x="185" y="1271" on="1"/>
      </contour>
      <contour>
        <pt x="717" y="1558" on="1"/>
        <pt x="461" y="1844" on="1"/>
        <pt x="554" y="1932" on="1"/>
        <pt x="730" y="1736" on="1"/>
        <pt x="911" y="1931" on="1"/>
        <pt x="999" y="1853" on="1"/>
      </contour>
    </TTGlyph>
    <TTGlyph name="Zdotaccent" xMin="155" yMin="0" xMax="1298" yMax="1829">
      <contour>
        <pt x="185" y="1421" on="1"/>
        <pt x="1271" y="1421" on="1"/>
        <pt x="1271" y="1312" on="1"/>
        <pt x="381" y="150" on="1"/>
        <pt x="1298" y="150" on="1"/>
        <pt x="1298" y="0" on="1"/>
        <pt x="155" y="0" on="1"/>
        <pt x="155" y="111" on="1"/>
        <pt x="1028" y="1271" on="1"/>
        <pt x="185" y="1271" on="1"/>
      </contour>
      <contour>
        <pt x="606" y="1829" on="1"/>
        <pt x="816" y="1829" on="1"/>
        <pt x="816" y="1619" on="1"/>
        <pt x="606" y="1619" on="1"/>
      </contour>
    </TTGlyph>
    <TTGlyph name="a" xMin="123" yMin="-20" xMax="889" yMax="1007">
      <contour>
        <pt x="507" y="1007" on="1"/>
        <pt x="617" y="1007" on="0"/>
        <pt x="770" y="956" on="0"/>
        <pt x="853" y="858" on="0"/>
        <pt x="889" y="738" on="0"/>
        <pt x="889" y="660" on="1"/>
        <pt x="889" y="0" on="1"/>
        <pt x="773" y="0" on="1"/>
        <pt x="735" y="90" on="1"/>
        <pt x="614" y="-20" on="0"/>
        <pt x="457" y="-20" on="1"/>
        <pt x="317" y="-20" on="0"/>
        <pt x="123" y="149" on="0"/>
        <pt x="123" y="262" on="1"/>
        <pt x="123" y="322" on="0"/>
        <pt x="167" y="418" on="0"/>
        <pt x="250" y="482" on="0"/>
        <pt x="356" y="527" on="0"/>
        <pt x="497" y="551" on="0"/>
        <pt x="639" y="561" on="0"/>
        <pt x="724" y="561" on="1"/>
        <pt x="724" y="639" on="1"/>
        <pt x="724" y="673" on="0"/>
        <pt x="719" y="723" on="0"/>
        <pt x="691" y="793" on="0"/>
        <pt x="643" y="838" on="0"/>
        <pt x="547" y="871" on="0"/>
        <pt x="481" y="871" on="1"/>
        <pt x="379" y="871" on="0"/>
        <pt x="217" y="826" on="1"/>
        <pt x="186" y="946" on="1"/>
        <pt x="350" y="1007" on="0"/>
      </contour>
      <contour>
        <pt x="724" y="437" on="1"/>
        <pt x="663" y="437" on="1"/>
        <pt x="606" y="437" on="0"/>
        <pt x="522" y="433" on="0"/>
        <pt x="409" y="414" on="0"/>
        <pt x="337" y="380" on="0"/>
        <pt x="286" y="315" on="0"/>
        <pt x="286" y="270" on="1"/>
        <pt x="286" y="207" on="0"/>
        <pt x="413" y="109" on="0"/>
        <pt x="501" y="109" on="1"/>
        <pt x="630" y="109" on="0"/>
        <pt x="724" y="210" on="1"/>
      </contour>
    </TTGlyph>
    <TTGlyph name="aacute" xMin="123" yMin="-20" xMax="889" yMax="1549">
      <contour>
        <pt x="676" y="1549" on="1"/>
        <pt x="768" y="1440" on="1"/>
        <pt x="392" y="1125" on="1"/>
        <pt x="312" y="1225" on="1"/>
      </contour>
      <contour>
        <pt x="724" y="437" on="1"/>
        <pt x="663" y="437" on="1"/>
        <pt x="617" y="437" on="0"/>
        <pt x="546" y="434" on="0"/>
        <pt x="451" y="424" on="0"/>
        <pt x="383" y="401" on="0"/>
        <pt x="320" y="366" on="0"/>
        <pt x="287" y="308" on="0"/>
        <pt x="287" y="270" on="1"/>
        <pt x="287" y="207" on="0"/>
        <pt x="413" y="109" on="0"/>
        <pt x="501" y="109" on="1"/>
        <pt x="630" y="109" on="0"/>
        <pt x="724" y="210" on="1"/>
      </contour>
      <contour>
        <pt x="507" y="1006" on="1"/>
        <pt x="618" y="1006" on="0"/>
        <pt x="771" y="954" on="0"/>
        <pt x="854" y="855" on="0"/>
        <pt x="889" y="735" on="0"/>
        <pt x="889" y="656" on="1"/>
        <pt x="889" y="0" on="1"/>
        <pt x="773" y="0" on="1"/>
        <pt x="735" y="90" on="1"/>
        <pt x="614" y="-20" on="0"/>
        <pt x="457" y="-20" on="1"/>
        <pt x="317" y="-20" on="0"/>
        <pt x="123" y="149" on="0"/>
        <pt x="123" y="262" on="1"/>
        <pt x="123" y="334" on="0"/>
        <pt x="188" y="442" on="0"/>
        <pt x="295" y="507" on="0"/>
        <pt x="455" y="546" on="0"/>
        <pt x="620" y="560" on="0"/>
        <pt x="724" y="560" on="1"/>
        <pt x="724" y="639" on="1"/>
        <pt x="724" y="673" on="0"/>
        <pt x="719" y="723" on="0"/>
        <pt x="691" y="793" on="0"/>
        <pt x="643" y="838" on="0"/>
        <pt x="547" y="871" on="0"/>
        <pt x="481" y="871" on="1"/>
        <pt x="379" y="871" on="0"/>
        <pt x="217" y="826" on="1"/>
        <pt x="186" y="946" on="1"/>
        <pt x="347" y="1006" on="0"/>
      </contour>
    </TTGlyph>
    <TTGlyph name="abreve" xMin="123" yMin="-20" xMax="955" yMax="1448">
      <contour>
        <pt x="172" y="1382" on="1"/>
        <pt x="295" y="1448" on="1"/>
        <pt x="331" y="1373" on="0"/>
        <pt x="459" y="1261" on="0"/>
        <pt x="547" y="1261" on="1"/>
        <pt x="628" y="1261" on="0"/>
        <pt x="783" y="1370" on="0"/>
        <pt x="842" y="1448" on="1"/>
        <pt x="955" y="1371" on="1"/>
        <pt x="875" y="1264" on="0"/>
        <pt x="650" y="1123" on="0"/>
        <pt x="531" y="1123" on="1"/>
        <pt x="400" y="1123" on="0"/>
        <pt x="211" y="1276" on="0"/>
      </contour>
      <contour>
        <pt x="724" y="437" on="1"/>
        <pt x="663" y="437" on="1"/>
        <pt x="617" y="437" on="0"/>
        <pt x="546" y="434" on="0"/>
        <pt x="451" y="424" on="0"/>
        <pt x="383" y="401" on="0"/>
        <pt x="320" y="366" on="0"/>
        <pt x="287" y="308" on="0"/>
        <pt x="287" y="270" on="1"/>
        <pt x="287" y="207" on="0"/>
        <pt x="413" y="109" on="0"/>
        <pt x="501" y="109" on="1"/>
        <pt x="630" y="109" on="0"/>
        <pt x="724" y="210" on="1"/>
      </contour>
      <contour>
        <pt x="507" y="1006" on="1"/>
        <pt x="618" y="1006" on="0"/>
        <pt x="771" y="954" on="0"/>
        <pt x="854" y="855" on="0"/>
        <pt x="889" y="735" on="0"/>
        <pt x="889" y="656" on="1"/>
        <pt x="889" y="0" on="1"/>
        <pt x="773" y="0" on="1"/>
        <pt x="735" y="90" on="1"/>
        <pt x="614" y="-20" on="0"/>
        <pt x="457" y="-20" on="1"/>
        <pt x="317" y="-20" on="0"/>
        <pt x="123" y="149" on="0"/>
        <pt x="123" y="262" on="1"/>
        <pt x="123" y="334" on="0"/>
        <pt x="188" y="442" on="0"/>
        <pt x="295" y="507" on="0"/>
        <pt x="455" y="546" on="0"/>
        <pt x="620" y="560" on="0"/>
        <pt x="724" y="560" on="1"/>
        <pt x="724" y="639" on="1"/>
        <pt x="724" y="673" on="0"/>
        <pt x="719" y="723" on="0"/>
        <pt x="691" y="793" on="0"/>
        <pt x="643" y="838" on="0"/>
        <pt x="547" y="871" on="0"/>
        <pt x="481" y="871" on="1"/>
        <pt x="379" y="871" on="0"/>
        <pt x="217" y="826" on="1"/>
        <pt x="186" y="946" on="1"/>
        <pt x="347" y="1006" on="0"/>
      </contour>
    </TTGlyph>
    <TTGlyph name="acircumflex" xMin="123" yMin="-20" xMax="889" yMax="1490">
      <contour>
        <pt x="544" y="1490" on="1"/>
        <pt x="800" y="1204" on="1"/>
        <pt x="707" y="1116" on="1"/>
        <pt x="532" y="1312" on="1"/>
        <pt x="350" y="1117" on="1"/>
        <pt x="262" y="1195" on="1"/>
      </contour>
      <contour>
        <pt x="724" y="437" on="1"/>
        <pt x="663" y="437" on="1"/>
        <pt x="617" y="437" on="0"/>
        <pt x="546" y="434" on="0"/>
        <pt x="451" y="424" on="0"/>
        <pt x="383" y="401" on="0"/>
        <pt x="320" y="366" on="0"/>
        <pt x="287" y="308" on="0"/>
        <pt x="287" y="270" on="1"/>
        <pt x="287" y="207" on="0"/>
        <pt x="413" y="109" on="0"/>
        <pt x="501" y="109" on="1"/>
        <pt x="630" y="109" on="0"/>
        <pt x="724" y="210" on="1"/>
      </contour>
      <contour>
        <pt x="507" y="1006" on="1"/>
        <pt x="618" y="1006" on="0"/>
        <pt x="771" y="954" on="0"/>
        <pt x="854" y="855" on="0"/>
        <pt x="889" y="735" on="0"/>
        <pt x="889" y="656" on="1"/>
        <pt x="889" y="0" on="1"/>
        <pt x="773" y="0" on="1"/>
        <pt x="735" y="90" on="1"/>
        <pt x="614" y="-20" on="0"/>
        <pt x="457" y="-20" on="1"/>
        <pt x="317" y="-20" on="0"/>
        <pt x="123" y="149" on="0"/>
        <pt x="123" y="262" on="1"/>
        <pt x="123" y="334" on="0"/>
        <pt x="188" y="442" on="0"/>
        <pt x="295" y="507" on="0"/>
        <pt x="455" y="546" on="0"/>
        <pt x="620" y="560" on="0"/>
        <pt x="724" y="560" on="1"/>
        <pt x="724" y="639" on="1"/>
        <pt x="724" y="673" on="0"/>
        <pt x="719" y="723" on="0"/>
        <pt x="691" y="793" on="0"/>
        <pt x="643" y="838" on="0"/>
        <pt x="547" y="871" on="0"/>
        <pt x="481" y="871" on="1"/>
        <pt x="379" y="871" on="0"/>
        <pt x="217" y="826" on="1"/>
        <pt x="186" y="946" on="1"/>
        <pt x="347" y="1006" on="0"/>
      </contour>
    </TTGlyph>
    <TTGlyph name="acute" xMin="274" yMin="1167" xMax="848" yMax="1585">
      <contour>
        <pt x="778" y="1585" on="1"/>
        <pt x="848" y="1462" on="1"/>
        <pt x="336" y="1167" on="1"/>
        <pt x="274" y="1275" on="1"/>
      </contour>
    </TTGlyph>
    <TTGlyph name="adieresis" xMin="123" yMin="-20" xMax="893" yMax="1421">
      <contour>
        <pt x="708" y="1421" on="1"/>
        <pt x="893" y="1421" on="1"/>
        <pt x="893" y="1235" on="1"/>
        <pt x="708" y="1235" on="1"/>
      </contour>
      <contour>
        <pt x="259" y="1421" on="1"/>
        <pt x="444" y="1421" on="1"/>
        <pt x="444" y="1235" on="1"/>
        <pt x="259" y="1235" on="1"/>
      </contour>
      <contour>
        <pt x="724" y="437" on="1"/>
        <pt x="663" y="437" on="1"/>
        <pt x="617" y="437" on="0"/>
        <pt x="546" y="434" on="0"/>
        <pt x="451" y="424" on="0"/>
        <pt x="383" y="401" on="0"/>
        <pt x="320" y="366" on="0"/>
        <pt x="287" y="308" on="0"/>
        <pt x="287" y="270" on="1"/>
        <pt x="287" y="207" on="0"/>
        <pt x="413" y="109" on="0"/>
        <pt x="501" y="109" on="1"/>
        <pt x="630" y="109" on="0"/>
        <pt x="724" y="210" on="1"/>
      </contour>
      <contour>
        <pt x="507" y="1006" on="1"/>
        <pt x="618" y="1006" on="0"/>
        <pt x="771" y="954" on="0"/>
        <pt x="854" y="855" on="0"/>
        <pt x="889" y="735" on="0"/>
        <pt x="889" y="656" on="1"/>
        <pt x="889" y="0" on="1"/>
        <pt x="773" y="0" on="1"/>
        <pt x="735" y="90" on="1"/>
        <pt x="614" y="-20" on="0"/>
        <pt x="457" y="-20" on="1"/>
        <pt x="317" y="-20" on="0"/>
        <pt x="123" y="149" on="0"/>
        <pt x="123" y="262" on="1"/>
        <pt x="123" y="334" on="0"/>
        <pt x="188" y="442" on="0"/>
        <pt x="295" y="507" on="0"/>
        <pt x="455" y="546" on="0"/>
        <pt x="620" y="560" on="0"/>
        <pt x="724" y="560" on="1"/>
        <pt x="724" y="639" on="1"/>
        <pt x="724" y="673" on="0"/>
        <pt x="719" y="723" on="0"/>
        <pt x="691" y="793" on="0"/>
        <pt x="643" y="838" on="0"/>
        <pt x="547" y="871" on="0"/>
        <pt x="481" y="871" on="1"/>
        <pt x="379" y="871" on="0"/>
        <pt x="217" y="826" on="1"/>
        <pt x="186" y="946" on="1"/>
        <pt x="347" y="1006" on="0"/>
      </contour>
    </TTGlyph>
    <TTGlyph name="ae" xMin="123" yMin="-20" xMax="1543" yMax="1006">
      <contour>
        <pt x="286" y="274" on="1"/>
        <pt x="286" y="207" on="0"/>
        <pt x="420" y="111" on="0"/>
        <pt x="506" y="111" on="1"/>
        <pt x="633" y="111" on="0"/>
        <pt x="724" y="207" on="1"/>
        <pt x="724" y="436" on="1"/>
        <pt x="591" y="436" on="0"/>
        <pt x="414" y="414" on="0"/>
        <pt x="321" y="369" on="0"/>
        <pt x="286" y="314" on="0"/>
      </contour>
      <contour>
        <pt x="1163" y="864" on="1"/>
        <pt x="1042" y="864" on="0"/>
        <pt x="897" y="685" on="0"/>
        <pt x="897" y="560" on="1"/>
        <pt x="1386" y="560" on="1"/>
        <pt x="1386" y="600" on="0"/>
        <pt x="1376" y="675" on="0"/>
        <pt x="1346" y="761" on="0"/>
        <pt x="1299" y="823" on="0"/>
        <pt x="1217" y="864" on="0"/>
      </contour>
      <contour>
        <pt x="186" y="944" on="1"/>
        <pt x="352" y="1006" on="0"/>
        <pt x="521" y="1006" on="1"/>
        <pt x="639" y="1006" on="0"/>
        <pt x="798" y="914" on="0"/>
        <pt x="836" y="832" on="1"/>
        <pt x="901" y="911" on="0"/>
        <pt x="1088" y="1006" on="0"/>
        <pt x="1191" y="1006" on="1"/>
        <pt x="1279" y="1006" on="0"/>
        <pt x="1409" y="937" on="0"/>
        <pt x="1484" y="830" on="0"/>
        <pt x="1529" y="673" on="0"/>
        <pt x="1543" y="526" on="0"/>
        <pt x="1543" y="436" on="1"/>
        <pt x="889" y="436" on="1"/>
        <pt x="889" y="299" on="0"/>
        <pt x="1098" y="112" on="0"/>
        <pt x="1253" y="112" on="1"/>
        <pt x="1337" y="112" on="0"/>
        <pt x="1459" y="148" on="1"/>
        <pt x="1486" y="36" on="1"/>
        <pt x="1334" y="-20" on="0"/>
        <pt x="1190" y="-20" on="1"/>
        <pt x="1081" y="-20" on="0"/>
        <pt x="885" y="54" on="0"/>
        <pt x="821" y="131" on="1"/>
        <pt x="706" y="-20" on="0"/>
        <pt x="473" y="-20" on="1"/>
        <pt x="333" y="-20" on="0"/>
        <pt x="123" y="145" on="0"/>
        <pt x="123" y="266" on="1"/>
        <pt x="123" y="378" on="0"/>
        <pt x="307" y="535" on="0"/>
        <pt x="483" y="553" on="1"/>
        <pt x="571" y="562" on="0"/>
        <pt x="724" y="562" on="1"/>
        <pt x="724" y="613" on="1"/>
        <pt x="724" y="661" on="0"/>
        <pt x="702" y="745" on="0"/>
        <pt x="650" y="824" on="0"/>
        <pt x="549" y="870" on="0"/>
        <pt x="479" y="870" on="1"/>
        <pt x="388" y="870" on="0"/>
        <pt x="227" y="826" on="1"/>
      </contour>
    </TTGlyph>
    <TTGlyph name="afii00208" xMin="0" yMin="589" xMax="1600" yMax="728">
      <contour>
        <pt x="0" y="728" on="1"/>
        <pt x="1600" y="728" on="1"/>
        <pt x="1600" y="589" on="1"/>
        <pt x="0" y="589" on="1"/>
      </contour>
    </TTGlyph>
    <TTGlyph name="agrave" xMin="123" yMin="-20" xMax="889" yMax="1539">
      <contour>
        <pt x="507" y="1006" on="1"/>
        <pt x="618" y="1006" on="0"/>
        <pt x="771" y="954" on="0"/>
        <pt x="854" y="855" on="0"/>
        <pt x="889" y="735" on="0"/>
        <pt x="889" y="656" on="1"/>
        <pt x="889" y="0" on="1"/>
        <pt x="773" y="0" on="1"/>
        <pt x="735" y="90" on="1"/>
        <pt x="614" y="-20" on="0"/>
        <pt x="457" y="-20" on="1"/>
        <pt x="317" y="-20" on="0"/>
        <pt x="123" y="149" on="0"/>
        <pt x="123" y="262" on="1"/>
        <pt x="123" y="334" on="0"/>
        <pt x="188" y="442" on="0"/>
        <pt x="295" y="507" on="0"/>
        <pt x="455" y="546" on="0"/>
        <pt x="620" y="560" on="0"/>
        <pt x="724" y="560" on="1"/>
        <pt x="724" y="639" on="1"/>
        <pt x="724" y="673" on="0"/>
        <pt x="719" y="723" on="0"/>
        <pt x="691" y="793" on="0"/>
        <pt x="643" y="838" on="0"/>
        <pt x="547" y="871" on="0"/>
        <pt x="481" y="871" on="1"/>
        <pt x="379" y="871" on="0"/>
        <pt x="217" y="826" on="1"/>
        <pt x="186" y="946" on="1"/>
        <pt x="347" y="1006" on="0"/>
      </contour>
      <contour>
        <pt x="724" y="437" on="1"/>
        <pt x="663" y="437" on="1"/>
        <pt x="617" y="437" on="0"/>
        <pt x="546" y="434" on="0"/>
        <pt x="451" y="424" on="0"/>
        <pt x="383" y="401" on="0"/>
        <pt x="320" y="366" on="0"/>
        <pt x="287" y="308" on="0"/>
        <pt x="287" y="270" on="1"/>
        <pt x="287" y="207" on="0"/>
        <pt x="413" y="109" on="0"/>
        <pt x="501" y="109" on="1"/>
        <pt x="630" y="109" on="0"/>
        <pt x="724" y="210" on="1"/>
      </contour>
      <contour>
        <pt x="445" y="1539" on="1"/>
        <pt x="809" y="1215" on="1"/>
        <pt x="729" y="1115" on="1"/>
        <pt x="353" y="1430" on="1"/>
      </contour>
    </TTGlyph>
    <TTGlyph name="amacron" xMin="123" yMin="-20" xMax="889" yMax="1333">
      <contour>
        <pt x="265" y="1333" on="1"/>
        <pt x="797" y="1333" on="1"/>
        <pt x="797" y="1204" on="1"/>
        <pt x="265" y="1204" on="1"/>
      </contour>
      <contour>
        <pt x="724" y="437" on="1"/>
        <pt x="663" y="437" on="1"/>
        <pt x="606" y="437" on="0"/>
        <pt x="522" y="433" on="0"/>
        <pt x="409" y="414" on="0"/>
        <pt x="337" y="380" on="0"/>
        <pt x="286" y="315" on="0"/>
        <pt x="286" y="270" on="1"/>
        <pt x="286" y="207" on="0"/>
        <pt x="413" y="109" on="0"/>
        <pt x="501" y="109" on="1"/>
        <pt x="630" y="109" on="0"/>
        <pt x="724" y="210" on="1"/>
      </contour>
      <contour>
        <pt x="507" y="1007" on="1"/>
        <pt x="617" y="1007" on="0"/>
        <pt x="771" y="955" on="0"/>
        <pt x="854" y="856" on="0"/>
        <pt x="889" y="735" on="0"/>
        <pt x="889" y="656" on="1"/>
        <pt x="889" y="0" on="1"/>
        <pt x="773" y="0" on="1"/>
        <pt x="735" y="90" on="1"/>
        <pt x="614" y="-20" on="0"/>
        <pt x="457" y="-20" on="1"/>
        <pt x="317" y="-20" on="0"/>
        <pt x="123" y="149" on="0"/>
        <pt x="123" y="262" on="1"/>
        <pt x="123" y="322" on="0"/>
        <pt x="167" y="418" on="0"/>
        <pt x="250" y="482" on="0"/>
        <pt x="356" y="527" on="0"/>
        <pt x="497" y="551" on="0"/>
        <pt x="639" y="561" on="0"/>
        <pt x="724" y="561" on="1"/>
        <pt x="724" y="639" on="1"/>
        <pt x="724" y="673" on="0"/>
        <pt x="719" y="723" on="0"/>
        <pt x="691" y="793" on="0"/>
        <pt x="643" y="838" on="0"/>
        <pt x="547" y="871" on="0"/>
        <pt x="481" y="871" on="1"/>
        <pt x="379" y="871" on="0"/>
        <pt x="217" y="826" on="1"/>
        <pt x="186" y="946" on="1"/>
        <pt x="350" y="1007" on="0"/>
      </contour>
    </TTGlyph>
    <TTGlyph name="ampersand" xMin="180" yMin="-47" xMax="1492" yMax="1440">
      <contour>
        <pt x="707" y="1440" on="1"/>
        <pt x="858" y="1440" on="0"/>
        <pt x="1040" y="1289" on="0"/>
        <pt x="1040" y="1175" on="1"/>
        <pt x="1040" y="1143" on="0"/>
        <pt x="1022" y="1079" on="0"/>
        <pt x="999" y="1028" on="0"/>
        <pt x="950" y="966" on="0"/>
        <pt x="917" y="928" on="0"/>
        <pt x="848" y="868" on="0"/>
        <pt x="817" y="842" on="0"/>
        <pt x="739" y="781" on="0"/>
        <pt x="728" y="772" on="1"/>
        <pt x="1076" y="401" on="1"/>
        <pt x="1399" y="754" on="1"/>
        <pt x="1492" y="660" on="1"/>
        <pt x="1170" y="301" on="1"/>
        <pt x="1453" y="0" on="1"/>
        <pt x="1250" y="0" on="1"/>
        <pt x="1056" y="201" on="1"/>
        <pt x="1016" y="161" on="0"/>
        <pt x="959" y="110" on="0"/>
        <pt x="852" y="33" on="0"/>
        <pt x="753" y="-13" on="0"/>
        <pt x="611" y="-47" on="0"/>
        <pt x="536" y="-47" on="1"/>
        <pt x="370" y="-47" on="0"/>
        <pt x="180" y="138" on="0"/>
        <pt x="180" y="282" on="1"/>
        <pt x="180" y="320" on="0"/>
        <pt x="194" y="394" on="0"/>
        <pt x="214" y="455" on="0"/>
        <pt x="251" y="521" on="0"/>
        <pt x="281" y="567" on="0"/>
        <pt x="333" y="624" on="0"/>
        <pt x="363" y="656" on="0"/>
        <pt x="421" y="706" on="0"/>
        <pt x="445" y="724" on="0"/>
        <pt x="500" y="767" on="0"/>
        <pt x="504" y="770" on="1"/>
        <pt x="411" y="866" on="0"/>
        <pt x="380" y="908" on="1"/>
        <pt x="302" y="1014" on="0"/>
        <pt x="302" y="1123" on="1"/>
        <pt x="302" y="1263" on="0"/>
        <pt x="536" y="1440" on="0"/>
      </contour>
      <contour>
        <pt x="690" y="1297" on="1"/>
        <pt x="600" y="1297" on="0"/>
        <pt x="469" y="1188" on="0"/>
        <pt x="469" y="1114" on="1"/>
        <pt x="469" y="1087" on="0"/>
        <pt x="484" y="1039" on="0"/>
        <pt x="523" y="988" on="0"/>
        <pt x="553" y="954" on="0"/>
        <pt x="618" y="889" on="0"/>
        <pt x="635" y="871" on="1"/>
        <pt x="652" y="884" on="0"/>
        <pt x="722" y="937" on="0"/>
        <pt x="749" y="959" on="0"/>
        <pt x="800" y="1001" on="0"/>
        <pt x="821" y="1024" on="0"/>
        <pt x="852" y="1060" on="0"/>
        <pt x="864" y="1089" on="0"/>
        <pt x="874" y="1124" on="0"/>
        <pt x="874" y="1143" on="1"/>
        <pt x="874" y="1205" on="0"/>
        <pt x="771" y="1297" on="0"/>
      </contour>
      <contour>
        <pt x="601" y="671" on="1"/>
        <pt x="593" y="665" on="0"/>
        <pt x="577" y="652" on="1"/>
        <pt x="521" y="608" on="0"/>
        <pt x="463" y="557" on="0"/>
        <pt x="383" y="469" on="0"/>
        <pt x="347" y="378" on="0"/>
        <pt x="347" y="327" on="1"/>
        <pt x="347" y="233" on="0"/>
        <pt x="487" y="100" on="0"/>
        <pt x="593" y="100" on="1"/>
        <pt x="640" y="100" on="0"/>
        <pt x="735" y="130" on="0"/>
        <pt x="805" y="166" on="0"/>
        <pt x="888" y="231" on="0"/>
        <pt x="928" y="267" on="0"/>
        <pt x="960" y="299" on="1"/>
      </contour>
    </TTGlyph>
    <TTGlyph name="aogonek" xMin="123" yMin="-543" xMax="889" yMax="994">
      <contour>
        <pt x="481" y="859" on="1"/>
        <pt x="379" y="859" on="0"/>
        <pt x="217" y="814" on="1"/>
        <pt x="186" y="934" on="1"/>
        <pt x="347" y="994" on="0"/>
        <pt x="507" y="994" on="1"/>
        <pt x="618" y="994" on="0"/>
        <pt x="772" y="942" on="0"/>
        <pt x="854" y="843" on="0"/>
        <pt x="889" y="723" on="0"/>
        <pt x="889" y="644" on="1"/>
        <pt x="889" y="-45" on="1"/>
        <pt x="873" y="-53" on="0"/>
        <pt x="806" y="-87" on="0"/>
        <pt x="774" y="-103" on="0"/>
        <pt x="716" y="-135" on="0"/>
        <pt x="687" y="-153" on="0"/>
        <pt x="641" y="-184" on="0"/>
        <pt x="617" y="-207" on="0"/>
        <pt x="587" y="-239" on="0"/>
        <pt x="573" y="-267" on="0"/>
        <pt x="563" y="-302" on="0"/>
        <pt x="563" y="-320" on="1"/>
        <pt x="563" y="-365" on="0"/>
        <pt x="623" y="-422" on="0"/>
        <pt x="670" y="-422" on="1"/>
        <pt x="731" y="-422" on="0"/>
        <pt x="833" y="-366" on="1"/>
        <pt x="881" y="-449" on="1"/>
        <pt x="737" y="-543" on="0"/>
        <pt x="620" y="-543" on="1"/>
        <pt x="531" y="-543" on="0"/>
        <pt x="419" y="-435" on="0"/>
        <pt x="419" y="-352" on="1"/>
        <pt x="419" y="-296" on="0"/>
        <pt x="476" y="-189" on="0"/>
        <pt x="552" y="-116" on="0"/>
        <pt x="659" y="-46" on="0"/>
        <pt x="725" y="-12" on="0"/>
        <pt x="762" y="5" on="1"/>
        <pt x="767" y="7" on="0"/>
        <pt x="769" y="8" on="1"/>
        <pt x="736" y="85" on="1"/>
        <pt x="586" y="-17" on="0"/>
        <pt x="444" y="-17" on="1"/>
        <pt x="312" y="-17" on="0"/>
        <pt x="123" y="151" on="0"/>
        <pt x="123" y="262" on="1"/>
        <pt x="123" y="300" on="0"/>
        <pt x="149" y="375" on="0"/>
        <pt x="205" y="453" on="0"/>
        <pt x="313" y="516" on="0"/>
        <pt x="386" y="533" on="1"/>
        <pt x="507" y="561" on="0"/>
        <pt x="724" y="561" on="1"/>
        <pt x="724" y="627" on="1"/>
        <pt x="724" y="661" on="0"/>
        <pt x="719" y="711" on="0"/>
        <pt x="691" y="781" on="0"/>
        <pt x="643" y="826" on="0"/>
        <pt x="547" y="859" on="0"/>
      </contour>
      <contour>
        <pt x="490" y="117" on="1"/>
        <pt x="615" y="117" on="0"/>
        <pt x="724" y="200" on="1"/>
        <pt x="724" y="437" on="1"/>
        <pt x="684" y="437" on="1"/>
        <pt x="533" y="437" on="0"/>
        <pt x="372" y="411" on="0"/>
        <pt x="325" y="362" on="1"/>
        <pt x="287" y="322" on="0"/>
        <pt x="287" y="269" on="1"/>
        <pt x="287" y="207" on="0"/>
        <pt x="401" y="117" on="0"/>
      </contour>
    </TTGlyph>
    <TTGlyph name="aring" xMin="123" yMin="-20" xMax="889" yMax="1573">
      <contour>
        <pt x="551" y="1482" on="1"/>
        <pt x="496" y="1482" on="0"/>
        <pt x="421" y="1403" on="0"/>
        <pt x="421" y="1295" on="0"/>
        <pt x="494" y="1215" on="0"/>
        <pt x="551" y="1215" on="1"/>
        <pt x="605" y="1215" on="0"/>
        <pt x="678" y="1296" on="0"/>
        <pt x="678" y="1402" on="0"/>
        <pt x="605" y="1482" on="0"/>
      </contour>
      <contour>
        <pt x="460" y="1573" on="0"/>
        <pt x="640" y="1573" on="0"/>
        <pt x="770" y="1442" on="0"/>
        <pt x="770" y="1256" on="0"/>
        <pt x="641" y="1124" on="0"/>
        <pt x="461" y="1124" on="0"/>
        <pt x="331" y="1255" on="0"/>
        <pt x="331" y="1349" on="1"/>
        <pt x="331" y="1442" on="0"/>
      </contour>
      <contour>
        <pt x="724" y="437" on="1"/>
        <pt x="663" y="437" on="1"/>
        <pt x="617" y="437" on="0"/>
        <pt x="546" y="434" on="0"/>
        <pt x="451" y="424" on="0"/>
        <pt x="383" y="401" on="0"/>
        <pt x="320" y="366" on="0"/>
        <pt x="287" y="308" on="0"/>
        <pt x="287" y="270" on="1"/>
        <pt x="287" y="207" on="0"/>
        <pt x="413" y="109" on="0"/>
        <pt x="501" y="109" on="1"/>
        <pt x="630" y="109" on="0"/>
        <pt x="724" y="210" on="1"/>
      </contour>
      <contour>
        <pt x="507" y="1006" on="1"/>
        <pt x="618" y="1006" on="0"/>
        <pt x="771" y="954" on="0"/>
        <pt x="854" y="855" on="0"/>
        <pt x="889" y="735" on="0"/>
        <pt x="889" y="656" on="1"/>
        <pt x="889" y="0" on="1"/>
        <pt x="773" y="0" on="1"/>
        <pt x="735" y="90" on="1"/>
        <pt x="614" y="-20" on="0"/>
        <pt x="457" y="-20" on="1"/>
        <pt x="317" y="-20" on="0"/>
        <pt x="123" y="149" on="0"/>
        <pt x="123" y="262" on="1"/>
        <pt x="123" y="334" on="0"/>
        <pt x="188" y="442" on="0"/>
        <pt x="295" y="507" on="0"/>
        <pt x="455" y="546" on="0"/>
        <pt x="620" y="560" on="0"/>
        <pt x="724" y="560" on="1"/>
        <pt x="724" y="639" on="1"/>
        <pt x="724" y="673" on="0"/>
        <pt x="719" y="723" on="0"/>
        <pt x="691" y="793" on="0"/>
        <pt x="643" y="838" on="0"/>
        <pt x="547" y="871" on="0"/>
        <pt x="481" y="871" on="1"/>
        <pt x="379" y="871" on="0"/>
        <pt x="217" y="826" on="1"/>
        <pt x="186" y="946" on="1"/>
        <pt x="347" y="1006" on="0"/>
      </contour>
    </TTGlyph>
    <TTGlyph name="asciicircum" xMin="443" yMin="1167" xMax="981" yMax="1541">
      <contour>
        <pt x="725" y="1541" on="1"/>
        <pt x="981" y="1255" on="1"/>
        <pt x="888" y="1167" on="1"/>
        <pt x="712" y="1363" on="1"/>
        <pt x="531" y="1167" on="1"/>
        <pt x="443" y="1246" on="1"/>
      </contour>
    </TTGlyph>
    <TTGlyph name="asciitilde" xMin="356" yMin="1239" xMax="1084" yMax="1545">
      <contour>
        <pt x="876" y="1361" on="1"/>
        <pt x="888" y="1361" on="0"/>
        <pt x="909" y="1368" on="0"/>
        <pt x="925" y="1383" on="0"/>
        <pt x="938" y="1398" on="0"/>
        <pt x="949" y="1425" on="0"/>
        <pt x="956" y="1445" on="0"/>
        <pt x="964" y="1480" on="0"/>
        <pt x="968" y="1499" on="0"/>
        <pt x="975" y="1537" on="0"/>
        <pt x="976" y="1545" on="1"/>
        <pt x="1084" y="1528" on="1"/>
        <pt x="1082" y="1519" on="0"/>
        <pt x="1070" y="1455" on="0"/>
        <pt x="1064" y="1430" on="0"/>
        <pt x="1050" y="1371" on="0"/>
        <pt x="1036" y="1344" on="0"/>
        <pt x="1014" y="1298" on="0"/>
        <pt x="988" y="1275" on="0"/>
        <pt x="953" y="1249" on="0"/>
        <pt x="908" y="1239" on="0"/>
        <pt x="882" y="1239" on="1"/>
        <pt x="838" y="1239" on="0"/>
        <pt x="755" y="1276" on="0"/>
        <pt x="694" y="1330" on="0"/>
        <pt x="640" y="1384" on="0"/>
        <pt x="587" y="1421" on="0"/>
        <pt x="564" y="1421" on="1"/>
        <pt x="552" y="1421" on="0"/>
        <pt x="531" y="1415" on="0"/>
        <pt x="514" y="1398" on="0"/>
        <pt x="502" y="1385" on="0"/>
        <pt x="490" y="1356" on="0"/>
        <pt x="484" y="1340" on="0"/>
        <pt x="475" y="1302" on="0"/>
        <pt x="472" y="1288" on="0"/>
        <pt x="465" y="1246" on="0"/>
        <pt x="464" y="1241" on="1"/>
        <pt x="356" y="1256" on="1"/>
        <pt x="358" y="1264" on="0"/>
        <pt x="370" y="1329" on="0"/>
        <pt x="376" y="1353" on="0"/>
        <pt x="390" y="1413" on="0"/>
        <pt x="404" y="1439" on="0"/>
        <pt x="426" y="1485" on="0"/>
        <pt x="452" y="1507" on="0"/>
        <pt x="487" y="1533" on="0"/>
        <pt x="532" y="1543" on="0"/>
        <pt x="558" y="1543" on="1"/>
        <pt x="602" y="1543" on="0"/>
        <pt x="685" y="1506" on="0"/>
        <pt x="746" y="1452" on="0"/>
        <pt x="800" y="1398" on="0"/>
        <pt x="853" y="1361" on="0"/>
      </contour>
    </TTGlyph>
    <TTGlyph name="asterisk" xMin="180" yMin="552" xMax="1016" yMax="1421">
      <contour>
        <pt x="513" y="1421" on="1"/>
        <pt x="683" y="1421" on="1"/>
        <pt x="665" y="1102" on="1"/>
        <pt x="931" y="1277" on="1"/>
        <pt x="1016" y="1129" on="1"/>
        <pt x="732" y="988" on="1"/>
        <pt x="1016" y="843" on="1"/>
        <pt x="931" y="695" on="1"/>
        <pt x="665" y="870" on="1"/>
        <pt x="683" y="552" on="1"/>
        <pt x="513" y="552" on="1"/>
        <pt x="531" y="870" on="1"/>
        <pt x="265" y="695" on="1"/>
        <pt x="180" y="843" on="1"/>
        <pt x="465" y="988" on="1"/>
        <pt x="180" y="1129" on="1"/>
        <pt x="265" y="1277" on="1"/>
        <pt x="531" y="1102" on="1"/>
      </contour>
    </TTGlyph>
    <TTGlyph name="at" xMin="181" yMin="-427" xMax="1963" yMax="1399">
      <contour>
        <pt x="1054" y="962" on="1"/>
        <pt x="1180" y="962" on="0"/>
        <pt x="1300" y="903" on="1"/>
        <pt x="1323" y="968" on="1"/>
        <pt x="1436" y="968" on="1"/>
        <pt x="1436" y="252" on="1"/>
        <pt x="1436" y="220" on="0"/>
        <pt x="1438" y="183" on="0"/>
        <pt x="1444" y="120" on="0"/>
        <pt x="1461" y="81" on="0"/>
        <pt x="1488" y="40" on="0"/>
        <pt x="1534" y="20" on="0"/>
        <pt x="1565" y="20" on="1"/>
        <pt x="1602" y="20" on="0"/>
        <pt x="1678" y="72" on="0"/>
        <pt x="1750" y="180" on="0"/>
        <pt x="1795" y="380" on="0"/>
        <pt x="1795" y="510" on="1"/>
        <pt x="1795" y="596" on="0"/>
        <pt x="1777" y="747" on="0"/>
        <pt x="1732" y="897" on="0"/>
        <pt x="1662" y="1019" on="0"/>
        <pt x="1552" y="1125" on="0"/>
        <pt x="1410" y="1197" on="0"/>
        <pt x="1217" y="1238" on="0"/>
        <pt x="1100" y="1238" on="1"/>
        <pt x="975" y="1238" on="0"/>
        <pt x="764" y="1182" on="0"/>
        <pt x="612" y="1088" on="0"/>
        <pt x="492" y="957" on="0"/>
        <pt x="418" y="815" on="0"/>
        <pt x="369" y="654" on="0"/>
        <pt x="349" y="510" on="0"/>
        <pt x="349" y="438" on="1"/>
        <pt x="349" y="299" on="0"/>
        <pt x="423" y="62" on="0"/>
        <pt x="550" y="-107" on="0"/>
        <pt x="720" y="-227" on="0"/>
        <pt x="914" y="-285" on="0"/>
        <pt x="1017" y="-285" on="1"/>
        <pt x="1171" y="-285" on="0"/>
        <pt x="1309" y="-218" on="1"/>
        <pt x="1372" y="-337" on="1"/>
        <pt x="1197" y="-427" on="0"/>
        <pt x="992" y="-427" on="1"/>
        <pt x="931" y="-427" on="0"/>
        <pt x="801" y="-411" on="0"/>
        <pt x="638" y="-363" on="0"/>
        <pt x="492" y="-288" on="0"/>
        <pt x="348" y="-158" on="0"/>
        <pt x="245" y="10" on="0"/>
        <pt x="181" y="256" on="0"/>
        <pt x="181" y="404" on="1"/>
        <pt x="181" y="506" on="0"/>
        <pt x="206" y="698" on="0"/>
        <pt x="269" y="900" on="0"/>
        <pt x="365" y="1073" on="0"/>
        <pt x="518" y="1227" on="0"/>
        <pt x="713" y="1336" on="0"/>
        <pt x="982" y="1399" on="0"/>
        <pt x="1142" y="1399" on="1"/>
        <pt x="1290" y="1399" on="0"/>
        <pt x="1531" y="1343" on="0"/>
        <pt x="1699" y="1250" on="0"/>
        <pt x="1826" y="1112" on="0"/>
        <pt x="1901" y="966" on="0"/>
        <pt x="1947" y="784" on="0"/>
        <pt x="1963" y="623" on="0"/>
        <pt x="1963" y="530" on="1"/>
        <pt x="1963" y="374" on="0"/>
        <pt x="1901" y="133" on="0"/>
        <pt x="1811" y="-2" on="0"/>
        <pt x="1691" y="-88" on="0"/>
        <pt x="1593" y="-115" on="0"/>
        <pt x="1545" y="-115" on="1"/>
        <pt x="1457" y="-115" on="0"/>
        <pt x="1326" y="-21" on="0"/>
        <pt x="1299" y="56" on="1"/>
        <pt x="1169" y="-20" on="0"/>
        <pt x="1029" y="-20" on="1"/>
        <pt x="841" y="-20" on="0"/>
        <pt x="601" y="236" on="0"/>
        <pt x="601" y="452" on="1"/>
        <pt x="601" y="678" on="0"/>
        <pt x="851" y="962" on="0"/>
      </contour>
      <contour>
        <pt x="1077" y="840" on="1"/>
        <pt x="934" y="840" on="0"/>
        <pt x="753" y="647" on="0"/>
        <pt x="753" y="475" on="1"/>
        <pt x="753" y="302" on="0"/>
        <pt x="940" y="109" on="0"/>
        <pt x="1082" y="109" on="1"/>
        <pt x="1185" y="109" on="0"/>
        <pt x="1281" y="161" on="1"/>
        <pt x="1281" y="794" on="1"/>
        <pt x="1178" y="840" on="0"/>
      </contour>
    </TTGlyph>
    <TTGlyph name="atilde" xMin="123" yMin="-20" xMax="910" yMax="1444">
      <contour>
        <pt x="802" y="1444" on="1"/>
        <pt x="910" y="1427" on="1"/>
        <pt x="893" y="1342" on="1"/>
        <pt x="873" y="1246" on="0"/>
        <pt x="838" y="1201" on="1"/>
        <pt x="790" y="1140" on="0"/>
        <pt x="708" y="1140" on="1"/>
        <pt x="664" y="1140" on="0"/>
        <pt x="581" y="1177" on="0"/>
        <pt x="520" y="1230" on="0"/>
        <pt x="466" y="1283" on="0"/>
        <pt x="413" y="1320" on="0"/>
        <pt x="390" y="1320" on="1"/>
        <pt x="377" y="1320" on="0"/>
        <pt x="354" y="1310" on="0"/>
        <pt x="338" y="1297" on="0"/>
        <pt x="324" y="1274" on="0"/>
        <pt x="315" y="1256" on="0"/>
        <pt x="307" y="1228" on="0"/>
        <pt x="304" y="1215" on="0"/>
        <pt x="302" y="1202" on="1"/>
        <pt x="300" y="1190" on="1"/>
        <pt x="290" y="1140" on="1"/>
        <pt x="182" y="1155" on="1"/>
        <pt x="199" y="1240" on="1"/>
        <pt x="203" y="1261" on="0"/>
        <pt x="205" y="1271" on="0"/>
        <pt x="221" y="1326" on="0"/>
        <pt x="235" y="1352" on="0"/>
        <pt x="266" y="1399" on="0"/>
        <pt x="300" y="1422" on="0"/>
        <pt x="353" y="1442" on="0"/>
        <pt x="384" y="1442" on="1"/>
        <pt x="428" y="1442" on="0"/>
        <pt x="511" y="1405" on="0"/>
        <pt x="572" y="1352" on="0"/>
        <pt x="626" y="1299" on="0"/>
        <pt x="679" y="1262" on="0"/>
        <pt x="702" y="1262" on="1"/>
        <pt x="715" y="1262" on="0"/>
        <pt x="738" y="1272" on="0"/>
        <pt x="754" y="1285" on="0"/>
        <pt x="768" y="1308" on="0"/>
        <pt x="777" y="1326" on="0"/>
        <pt x="785" y="1354" on="0"/>
        <pt x="788" y="1367" on="0"/>
        <pt x="790" y="1380" on="1"/>
        <pt x="792" y="1392" on="1"/>
      </contour>
      <contour>
        <pt x="724" y="437" on="1"/>
        <pt x="663" y="437" on="1"/>
        <pt x="617" y="437" on="0"/>
        <pt x="546" y="434" on="0"/>
        <pt x="451" y="424" on="0"/>
        <pt x="383" y="401" on="0"/>
        <pt x="320" y="366" on="0"/>
        <pt x="287" y="308" on="0"/>
        <pt x="287" y="270" on="1"/>
        <pt x="287" y="207" on="0"/>
        <pt x="413" y="109" on="0"/>
        <pt x="501" y="109" on="1"/>
        <pt x="630" y="109" on="0"/>
        <pt x="724" y="210" on="1"/>
      </contour>
      <contour>
        <pt x="507" y="1006" on="1"/>
        <pt x="618" y="1006" on="0"/>
        <pt x="771" y="954" on="0"/>
        <pt x="854" y="855" on="0"/>
        <pt x="889" y="735" on="0"/>
        <pt x="889" y="656" on="1"/>
        <pt x="889" y="0" on="1"/>
        <pt x="773" y="0" on="1"/>
        <pt x="735" y="90" on="1"/>
        <pt x="614" y="-20" on="0"/>
        <pt x="457" y="-20" on="1"/>
        <pt x="317" y="-20" on="0"/>
        <pt x="123" y="149" on="0"/>
        <pt x="123" y="262" on="1"/>
        <pt x="123" y="334" on="0"/>
        <pt x="188" y="442" on="0"/>
        <pt x="295" y="507" on="0"/>
        <pt x="455" y="546" on="0"/>
        <pt x="620" y="560" on="0"/>
        <pt x="724" y="560" on="1"/>
        <pt x="724" y="639" on="1"/>
        <pt x="724" y="673" on="0"/>
        <pt x="719" y="723" on="0"/>
        <pt x="691" y="793" on="0"/>
        <pt x="643" y="838" on="0"/>
        <pt x="547" y="871" on="0"/>
        <pt x="481" y="871" on="1"/>
        <pt x="379" y="871" on="0"/>
        <pt x="217" y="826" on="1"/>
        <pt x="186" y="946" on="1"/>
        <pt x="347" y="1006" on="0"/>
      </contour>
    </TTGlyph>
    <TTGlyph name="b" xMin="190" yMin="-20" xMax="1054" yMax="1511">
      <contour>
        <pt x="190" y="1511" on="1"/>
        <pt x="354" y="1511" on="1"/>
        <pt x="354" y="941" on="1"/>
        <pt x="483" y="1008" on="0"/>
        <pt x="618" y="1008" on="1"/>
        <pt x="678" y="1008" on="0"/>
        <pt x="794" y="979" on="0"/>
        <pt x="911" y="906" on="0"/>
        <pt x="999" y="796" on="0"/>
        <pt x="1054" y="618" on="0"/>
        <pt x="1054" y="506" on="1"/>
        <pt x="1054" y="262" on="0"/>
        <pt x="795" y="-20" on="0"/>
        <pt x="589" y="-20" on="1"/>
        <pt x="454" y="-20" on="0"/>
        <pt x="324" y="46" on="1"/>
        <pt x="304" y="0" on="1"/>
        <pt x="190" y="0" on="1"/>
      </contour>
      <contour>
        <pt x="562" y="872" on="1"/>
        <pt x="455" y="872" on="0"/>
        <pt x="354" y="819" on="1"/>
        <pt x="354" y="155" on="1"/>
        <pt x="461" y="109" on="0"/>
        <pt x="565" y="109" on="1"/>
        <pt x="611" y="109" on="0"/>
        <pt x="697" y="129" on="0"/>
        <pt x="786" y="182" on="0"/>
        <pt x="852" y="262" on="0"/>
        <pt x="894" y="394" on="0"/>
        <pt x="894" y="477" on="1"/>
        <pt x="894" y="571" on="0"/>
        <pt x="850" y="716" on="0"/>
        <pt x="782" y="800" on="0"/>
        <pt x="690" y="854" on="0"/>
        <pt x="606" y="872" on="0"/>
      </contour>
    </TTGlyph>
    <TTGlyph name="backslash" xMin="20" yMin="-90" xMax="686" yMax="1421">
      <contour>
        <pt x="20" y="1421" on="1"/>
        <pt x="190" y="1421" on="1"/>
        <pt x="686" y="-90" on="1"/>
        <pt x="516" y="-90" on="1"/>
      </contour>
    </TTGlyph>
    <TTGlyph name="bar" xMin="360" yMin="-308" xMax="524" yMax="1601">
      <contour>
        <pt x="360" y="1601" on="1"/>
        <pt x="524" y="1601" on="1"/>
        <pt x="524" y="-308" on="1"/>
        <pt x="360" y="-308" on="1"/>
      </contour>
    </TTGlyph>
</ttFont>
